<svg width="411" height="132" viewBox="0 0 411 132" fill="none" xmlns="http://www.w3.org/2000/svg">
<g filter="url(#filter0_d)">
<rect y="22" width="414" height="110" fill="white"/>
</g>
<path d="M182.026 61.3577C181.123 60.6273 179.845 60.3936 178.769 60.762C178.481 60.8608 178.213 60.9994 177.973 61.1741C177.361 61.6196 176.003 62.9569 174.927 64.2804V54.0784C174.927 53.2113 174.567 52.3637 173.939 51.7529C173.316 51.1465 172.497 50.8195 171.638 50.8354C171.248 50.8422 170.874 50.9188 170.529 51.0527V50.0562C170.529 49.1125 170.137 48.1899 169.453 47.5247C168.775 46.8653 167.888 46.51 166.95 46.5269C165.081 46.559 163.554 48.0635 163.498 49.9028C163.093 49.7209 162.653 49.6189 162.198 49.6054C161.248 49.5778 160.307 49.9417 159.617 50.6045C158.942 51.2536 158.569 52.1104 158.569 53.0146L158.567 53.9809C158.276 53.886 157.965 53.8341 157.642 53.8341C156.011 53.8341 154.684 55.1472 154.684 56.7612L154.685 71.5912L154.688 71.6615C154.824 73.6078 155.235 75.2742 155.911 76.6147C156.545 77.8714 157.428 78.8833 158.538 79.6222C160.721 81.0766 163.418 81.2632 165.524 81.2632C169.659 81.2632 173.38 79.2281 175.24 75.9503C175.466 75.5893 176.063 74.6612 176.707 73.6603C177.334 72.685 177.917 71.7863 178.431 70.9934C178.714 70.5574 178.971 70.1609 179.195 69.8153C180.027 68.5276 180.913 67.2791 181.83 66.1043C182.17 65.6686 182.274 65.5504 182.298 65.5244C182.727 65.0609 182.998 64.4935 183.08 63.8831C183.21 62.9256 182.826 62.0049 182.026 61.3577ZM181.04 63.6128C181.014 63.8079 180.924 63.9928 180.781 64.1476C180.706 64.2284 180.572 64.3822 180.201 64.8587C179.247 66.0809 178.325 67.3793 177.46 68.7176C177.238 69.0624 176.981 69.4573 176.699 69.8922C176.184 70.6867 175.599 71.5875 174.97 72.566C174.311 73.5906 173.701 74.5396 173.478 74.8966L173.455 74.9358C171.961 77.5818 168.923 79.2254 165.525 79.2254C163.711 79.2254 161.409 79.0783 159.687 77.9319C157.931 76.7621 156.968 74.6764 156.744 71.5555L156.743 56.7615C156.743 56.2709 157.146 55.8718 157.642 55.8718C158.14 55.8718 158.546 56.2709 158.546 56.7615V62.3113C158.546 62.3277 158.548 62.3436 158.548 62.36C158.549 62.3781 158.549 62.3964 158.551 62.4144C158.553 62.4305 158.556 62.4462 158.558 62.4621C158.561 62.4798 158.563 62.4979 158.566 62.5156C158.57 62.5315 158.575 62.5472 158.579 62.5628C158.583 62.5795 158.586 62.5967 158.592 62.6131C158.597 62.629 158.603 62.6444 158.609 62.6598C158.614 62.6754 158.62 62.6913 158.626 62.7067C158.633 62.7221 158.64 62.7366 158.648 62.7515C158.655 62.7663 158.662 62.7814 158.669 62.796C158.677 62.8103 158.686 62.8241 158.695 62.8381C158.704 62.8522 158.712 62.8665 158.721 62.88C158.73 62.8935 158.741 62.9063 158.75 62.9192C158.76 62.9325 158.769 62.946 158.78 62.9585C158.79 62.9709 158.802 62.9823 158.813 62.9942C158.824 63.0064 158.835 63.0194 158.846 63.0311C158.858 63.0422 158.87 63.0523 158.882 63.0631C158.894 63.0743 158.906 63.0862 158.919 63.0968C158.932 63.1069 158.945 63.1159 158.958 63.1254C158.971 63.1355 158.984 63.1461 158.998 63.1556C159.012 63.1644 159.025 63.1718 159.039 63.1798C159.054 63.1888 159.068 63.1983 159.083 63.2068C159.097 63.2142 159.112 63.2203 159.126 63.2272C159.142 63.2349 159.157 63.2428 159.173 63.2497C159.188 63.2561 159.204 63.2609 159.219 63.2664C159.235 63.2722 159.251 63.2789 159.268 63.2842C159.284 63.2889 159.3 63.2924 159.316 63.2966C159.333 63.3009 159.349 63.3059 159.366 63.3094C159.383 63.3128 159.401 63.3147 159.418 63.3173C159.435 63.3197 159.451 63.3231 159.469 63.325C159.486 63.3266 159.503 63.3268 159.521 63.3276C159.538 63.3284 159.555 63.3303 159.572 63.3303C159.573 63.3303 159.574 63.3303 159.575 63.3303C159.611 63.3303 159.646 63.3284 159.68 63.325C159.695 63.3237 159.71 63.3205 159.725 63.3184C159.744 63.3157 159.764 63.3136 159.782 63.3096C159.802 63.3056 159.821 63.3001 159.84 63.295C159.854 63.2913 159.868 63.2887 159.881 63.2847C159.902 63.2781 159.923 63.2699 159.944 63.2619C159.954 63.2579 159.965 63.2548 159.975 63.2505C159.996 63.2418 160.016 63.2314 160.036 63.2216C160.046 63.2169 160.056 63.2129 160.065 63.2078C160.084 63.1978 160.102 63.1861 160.12 63.175C160.13 63.1689 160.14 63.1633 160.15 63.1567C160.167 63.1458 160.182 63.1334 160.198 63.1212C160.209 63.1135 160.219 63.1063 160.229 63.0981C160.244 63.0865 160.257 63.0732 160.271 63.0605C160.282 63.0512 160.292 63.0422 160.303 63.0327C160.315 63.0199 160.327 63.0062 160.339 62.9929C160.349 62.9821 160.36 62.9715 160.369 62.9603C160.38 62.9473 160.389 62.9336 160.399 62.92C160.409 62.9073 160.419 62.8951 160.428 62.8819C160.437 62.8684 160.445 62.8543 160.454 62.8403C160.462 62.8262 160.472 62.8124 160.48 62.7981C160.488 62.7838 160.494 62.769 160.501 62.7544C160.508 62.7393 160.516 62.7245 160.523 62.7091C160.53 62.6942 160.534 62.6786 160.54 62.6635C160.546 62.6476 160.553 62.632 160.558 62.6155C160.563 62.5999 160.566 62.584 160.57 62.5681C160.575 62.5514 160.58 62.535 160.583 62.518C160.587 62.5021 160.589 62.4854 160.591 62.469C160.594 62.4517 160.597 62.4345 160.599 62.417C160.601 62.4006 160.601 62.3836 160.602 62.3669C160.603 62.3492 160.605 62.332 160.605 62.3142L160.628 53.0173C160.628 52.6664 160.779 52.3287 161.051 52.0666C161.344 51.7855 161.74 51.6302 162.137 51.6423C162.88 51.6643 163.484 52.3038 163.484 53.0695L163.496 62.2575C163.496 62.276 163.497 62.2941 163.499 62.3121C163.499 62.3282 163.499 62.3449 163.501 62.3608C163.503 62.3799 163.507 62.3982 163.51 62.4168C163.512 62.4319 163.514 62.4472 163.516 62.4621C163.521 62.4822 163.527 62.5018 163.532 62.5214C163.535 62.5342 163.538 62.5472 163.542 62.5596C163.549 62.5808 163.557 62.6015 163.565 62.6222C163.569 62.6325 163.572 62.6431 163.576 62.6532C163.586 62.6752 163.597 62.6966 163.608 62.7178C163.612 62.7258 163.616 62.7343 163.62 62.7419C163.632 62.7639 163.646 62.7849 163.659 62.8055C163.663 62.8124 163.667 62.8193 163.672 62.826C163.686 62.8469 163.701 62.8665 163.717 62.8861C163.722 62.8922 163.726 62.8986 163.731 62.9044C163.748 62.9253 163.767 62.9449 163.786 62.9643C163.79 62.9685 163.793 62.9728 163.797 62.9768C163.817 62.9961 163.837 63.0141 163.859 63.0319C163.863 63.0353 163.866 63.039 163.87 63.0425C163.891 63.0597 163.913 63.0753 163.935 63.0907C163.94 63.0942 163.945 63.0979 163.949 63.101C163.972 63.1162 163.995 63.1297 164.019 63.1429C164.024 63.1458 164.029 63.1493 164.034 63.1522C164.059 63.1652 164.084 63.1768 164.11 63.1882C164.115 63.1904 164.119 63.193 164.124 63.1951C164.15 63.206 164.178 63.2153 164.205 63.2243C164.21 63.2256 164.214 63.2277 164.219 63.2293C164.246 63.2375 164.273 63.2442 164.301 63.2503C164.307 63.2513 164.312 63.2532 164.318 63.2545C164.384 63.268 164.454 63.2752 164.525 63.2752C164.525 63.2752 164.526 63.2752 164.526 63.2752C164.544 63.2752 164.562 63.2733 164.58 63.2725C164.597 63.2715 164.614 63.2715 164.631 63.2699C164.65 63.2677 164.667 63.2643 164.686 63.2614C164.701 63.259 164.718 63.2574 164.733 63.2542C164.752 63.2505 164.769 63.2452 164.788 63.2404C164.802 63.2365 164.817 63.2336 164.832 63.229C164.85 63.2235 164.868 63.2163 164.886 63.2094C164.899 63.2044 164.913 63.2004 164.926 63.1949C164.945 63.1869 164.963 63.1776 164.98 63.1689C164.992 63.1631 165.005 63.158 165.016 63.1519C165.034 63.1424 165.051 63.1313 165.068 63.1209C165.079 63.114 165.09 63.1079 165.101 63.1008C165.117 63.0899 165.133 63.0777 165.148 63.0658C165.159 63.0578 165.17 63.0504 165.18 63.0419C165.195 63.03 165.209 63.0165 165.223 63.0035C165.233 62.9945 165.243 62.9858 165.253 62.9762C165.266 62.963 165.279 62.9487 165.291 62.9349C165.301 62.9245 165.311 62.9147 165.32 62.9039C165.331 62.8901 165.341 62.8755 165.352 62.8615C165.361 62.8493 165.37 62.8376 165.379 62.8254C165.389 62.8114 165.397 62.7965 165.405 62.782C165.414 62.7684 165.423 62.7552 165.43 62.7414C165.438 62.7268 165.445 62.7115 165.452 62.6966C165.459 62.6818 165.467 62.6675 165.474 62.6521C165.48 62.6375 165.485 62.6222 165.49 62.607C165.496 62.5909 165.503 62.575 165.508 62.5585C165.513 62.5426 165.516 62.5265 165.521 62.5103C165.525 62.4939 165.53 62.4777 165.533 62.461C165.537 62.4443 165.539 62.4271 165.541 62.4104C165.544 62.3934 165.547 62.3767 165.549 62.3598C165.551 62.3426 165.551 62.3251 165.552 62.3076C165.553 62.2903 165.554 62.2737 165.554 62.2562V50.0074C165.554 49.2251 166.197 48.5779 166.986 48.5644C167.367 48.5591 167.729 48.7049 168.01 48.9781C168.303 49.2625 168.47 49.6555 168.47 50.0562V62.3123C168.47 62.3309 168.472 62.3489 168.473 62.3672C168.474 62.3834 168.474 62.3998 168.476 62.416C168.477 62.434 168.481 62.4515 168.484 62.4692C168.486 62.4854 168.488 62.5016 168.491 62.5172C168.495 62.535 168.5 62.5522 168.505 62.5697C168.509 62.5848 168.512 62.5999 168.517 62.6147C168.523 62.6335 168.53 62.6518 168.537 62.6701C168.542 62.6828 168.546 62.6958 168.551 62.7083C168.56 62.7274 168.569 62.7457 168.579 62.7642C168.584 62.7751 168.589 62.7865 168.595 62.7973C168.605 62.8161 168.617 62.8339 168.628 62.8519C168.634 62.8615 168.64 62.8718 168.646 62.8813C168.659 62.8994 168.672 62.9166 168.686 62.9338C168.693 62.9423 168.699 62.9513 168.706 62.9595C168.72 62.9778 168.737 62.9948 168.753 63.012C168.76 63.0184 168.765 63.0255 168.772 63.0319C168.789 63.0488 168.807 63.0642 168.825 63.0798C168.832 63.0857 168.838 63.092 168.845 63.0976C168.865 63.1143 168.887 63.1294 168.908 63.1445C168.914 63.1482 168.919 63.1525 168.924 63.1564C168.947 63.1718 168.971 63.1859 168.996 63.1994C169 63.2018 169.004 63.2049 169.009 63.2073C169.036 63.2216 169.063 63.2344 169.091 63.2465C169.094 63.2476 169.096 63.2492 169.099 63.2503C169.128 63.2624 169.158 63.273 169.189 63.2826C169.19 63.2834 169.192 63.2839 169.194 63.2844C169.258 63.3043 169.324 63.3178 169.393 63.325C169.394 63.325 169.394 63.325 169.394 63.325C169.429 63.3284 169.464 63.3303 169.5 63.3303C169.5 63.3303 169.5 63.3303 169.501 63.3303C169.519 63.3303 169.537 63.3284 169.555 63.3276C169.572 63.3266 169.589 63.3266 169.605 63.325C169.624 63.3231 169.643 63.3194 169.662 63.3165C169.677 63.3141 169.692 63.3125 169.708 63.3094C169.728 63.3054 169.747 63.2995 169.767 63.2945C169.78 63.2911 169.793 63.2884 169.806 63.2844C169.827 63.2778 169.847 63.2699 169.867 63.2622C169.878 63.2579 169.89 63.2545 169.901 63.25C169.921 63.2412 169.941 63.2312 169.961 63.2211C169.971 63.2163 169.981 63.2124 169.991 63.2071C170.01 63.1965 170.029 63.1845 170.048 63.1726C170.057 63.167 170.066 63.162 170.076 63.1559C170.095 63.1432 170.113 63.1289 170.131 63.1148C170.139 63.109 170.147 63.1034 170.155 63.0973C170.173 63.0825 170.19 63.0663 170.207 63.0504C170.214 63.0441 170.221 63.0382 170.228 63.0316C170.244 63.0152 170.26 62.9977 170.275 62.9799C170.281 62.973 170.288 62.9664 170.294 62.9593C170.309 62.9415 170.322 62.9227 170.336 62.9041C170.341 62.8962 170.348 62.8888 170.353 62.8808C170.366 62.8623 170.377 62.8429 170.389 62.8236C170.394 62.8146 170.4 62.8061 170.405 62.7968C170.416 62.7772 170.425 62.7568 170.434 62.7364C170.439 62.7268 170.444 62.7176 170.448 62.7078C170.457 62.6879 170.464 62.6672 170.471 62.6468C170.475 62.6359 170.48 62.6253 170.483 62.6139C170.489 62.5946 170.493 62.5742 170.499 62.5543C170.501 62.5416 170.506 62.5291 170.508 62.5164C170.512 62.4968 170.515 62.4764 170.518 62.4565C170.519 62.4427 170.522 62.4292 170.524 62.4152C170.526 62.3966 170.526 62.3775 170.527 62.3585C170.527 62.3428 170.529 62.3274 170.529 62.3113V53.9016C170.596 53.3332 171.084 52.8829 171.674 52.8728C171.977 52.8678 172.27 52.986 172.496 53.2062C172.733 53.4363 172.869 53.7543 172.869 54.0784V66.1048L172.869 66.1504C172.875 66.8105 173.313 67.3684 173.959 67.5386C174.601 67.7074 175.257 67.4405 175.594 66.8686L175.6 66.8572C176.407 65.4616 178.564 63.2741 179.194 62.8156C179.267 62.7623 179.35 62.7197 179.443 62.6879C179.853 62.5477 180.367 62.6471 180.723 62.9354C180.891 63.0714 181.082 63.2993 181.04 63.6128Z" fill="#4F4F4F"/>
<path d="M149.918 110.14C148.639 110.14 147.64 109.809 146.922 109.146C146.212 108.483 145.834 107.559 145.788 106.374C145.778 106.103 145.774 105.669 145.774 105.072C145.774 104.475 145.778 104.041 145.788 103.77C145.834 102.613 146.217 101.707 146.936 101.054C147.664 100.391 148.658 100.06 149.918 100.06C150.776 100.06 151.514 100.205 152.13 100.494C152.746 100.783 153.212 101.147 153.53 101.586C153.847 102.015 154.015 102.44 154.034 102.86V102.888C154.034 102.963 154.006 103.028 153.95 103.084C153.894 103.131 153.824 103.154 153.74 103.154H152.298C152.204 103.154 152.134 103.14 152.088 103.112C152.041 103.075 151.999 103.014 151.962 102.93C151.831 102.585 151.602 102.291 151.276 102.048C150.949 101.796 150.496 101.67 149.918 101.67C149.264 101.67 148.751 101.847 148.378 102.202C148.014 102.557 147.818 103.103 147.79 103.84C147.78 104.111 147.776 104.521 147.776 105.072C147.776 105.613 147.78 106.024 147.79 106.304C147.846 107.788 148.564 108.53 149.946 108.53C150.608 108.53 151.14 108.353 151.542 107.998C151.943 107.634 152.144 107.097 152.144 106.388V105.954H150.436C150.333 105.954 150.249 105.921 150.184 105.856C150.128 105.791 150.1 105.707 150.1 105.604V104.862C150.1 104.759 150.128 104.675 150.184 104.61C150.249 104.545 150.333 104.512 150.436 104.512H153.782C153.884 104.512 153.964 104.545 154.02 104.61C154.085 104.675 154.118 104.759 154.118 104.862V106.332C154.118 107.107 153.945 107.783 153.6 108.362C153.264 108.931 152.778 109.37 152.144 109.678C151.509 109.986 150.767 110.14 149.918 110.14ZM157.858 110.14C157.382 110.14 156.944 110.047 156.542 109.86C156.15 109.664 155.838 109.403 155.604 109.076C155.38 108.749 155.268 108.39 155.268 107.998C155.268 107.363 155.525 106.85 156.038 106.458C156.552 106.066 157.256 105.8 158.152 105.66L160.07 105.38V105.086C160.07 104.675 159.968 104.367 159.762 104.162C159.557 103.957 159.226 103.854 158.768 103.854C158.46 103.854 158.208 103.915 158.012 104.036C157.826 104.148 157.676 104.26 157.564 104.372C157.452 104.493 157.378 104.573 157.34 104.61C157.303 104.722 157.233 104.778 157.13 104.778H156.052C155.968 104.778 155.894 104.75 155.828 104.694C155.772 104.638 155.744 104.563 155.744 104.47C155.754 104.237 155.866 103.971 156.08 103.672C156.304 103.373 156.645 103.117 157.102 102.902C157.56 102.687 158.12 102.58 158.782 102.58C159.884 102.58 160.686 102.827 161.19 103.322C161.694 103.817 161.946 104.465 161.946 105.268V109.664C161.946 109.757 161.914 109.837 161.848 109.902C161.792 109.967 161.713 110 161.61 110H160.476C160.383 110 160.304 109.967 160.238 109.902C160.173 109.837 160.14 109.757 160.14 109.664V109.118C159.935 109.417 159.641 109.664 159.258 109.86C158.885 110.047 158.418 110.14 157.858 110.14ZM158.334 108.81C158.848 108.81 159.268 108.642 159.594 108.306C159.921 107.97 160.084 107.48 160.084 106.836V106.542L158.684 106.766C158.143 106.85 157.732 106.985 157.452 107.172C157.182 107.359 157.046 107.587 157.046 107.858C157.046 108.157 157.172 108.39 157.424 108.558C157.676 108.726 157.98 108.81 158.334 108.81ZM164.078 110C163.985 110 163.906 109.967 163.84 109.902C163.775 109.837 163.742 109.757 163.742 109.664V103.056C163.742 102.963 163.775 102.883 163.84 102.818C163.906 102.753 163.985 102.72 164.078 102.72H165.17C165.264 102.72 165.343 102.753 165.408 102.818C165.474 102.883 165.506 102.963 165.506 103.056V103.532C165.992 102.897 166.668 102.58 167.536 102.58C168.572 102.58 169.296 102.995 169.706 103.826C169.93 103.453 170.248 103.154 170.658 102.93C171.069 102.697 171.512 102.58 171.988 102.58C172.754 102.58 173.379 102.841 173.864 103.364C174.35 103.887 174.592 104.647 174.592 105.646V109.664C174.592 109.757 174.56 109.837 174.494 109.902C174.438 109.967 174.359 110 174.256 110H173.108C173.015 110 172.936 109.967 172.87 109.902C172.805 109.837 172.772 109.757 172.772 109.664V105.758C172.772 105.17 172.646 104.745 172.394 104.484C172.152 104.213 171.825 104.078 171.414 104.078C171.05 104.078 170.738 104.213 170.476 104.484C170.224 104.755 170.098 105.179 170.098 105.758V109.664C170.098 109.757 170.066 109.837 170 109.902C169.935 109.967 169.856 110 169.762 110H168.614C168.521 110 168.442 109.967 168.376 109.902C168.311 109.837 168.278 109.757 168.278 109.664V105.758C168.278 105.17 168.148 104.745 167.886 104.484C167.634 104.213 167.312 104.078 166.92 104.078C166.547 104.078 166.23 104.213 165.968 104.484C165.716 104.755 165.59 105.179 165.59 105.758V109.664C165.59 109.757 165.558 109.837 165.492 109.902C165.427 109.967 165.348 110 165.254 110H164.078ZM179.511 110.14C178.475 110.14 177.649 109.841 177.033 109.244C176.427 108.637 176.105 107.788 176.067 106.696L176.053 106.346L176.067 105.996C176.114 104.932 176.441 104.097 177.047 103.49C177.663 102.883 178.485 102.58 179.511 102.58C180.613 102.58 181.462 102.916 182.059 103.588C182.666 104.26 182.969 105.156 182.969 106.276V106.57C182.969 106.663 182.937 106.743 182.871 106.808C182.806 106.873 182.722 106.906 182.619 106.906H177.971V107.018C177.99 107.531 178.13 107.965 178.391 108.32C178.662 108.665 179.031 108.838 179.497 108.838C180.048 108.838 180.491 108.623 180.827 108.194C180.911 108.091 180.977 108.026 181.023 107.998C181.079 107.97 181.159 107.956 181.261 107.956H182.465C182.549 107.956 182.619 107.984 182.675 108.04C182.741 108.087 182.773 108.147 182.773 108.222C182.773 108.446 182.638 108.712 182.367 109.02C182.106 109.319 181.728 109.58 181.233 109.804C180.739 110.028 180.165 110.14 179.511 110.14ZM181.065 105.73V105.688C181.065 105.137 180.925 104.694 180.645 104.358C180.375 104.022 179.997 103.854 179.511 103.854C179.026 103.854 178.648 104.022 178.377 104.358C178.107 104.694 177.971 105.137 177.971 105.688V105.73H181.065ZM187.213 110.14C186.513 110.14 185.925 110.037 185.449 109.832C184.973 109.617 184.619 109.37 184.385 109.09C184.161 108.801 184.049 108.553 184.049 108.348C184.049 108.255 184.082 108.18 184.147 108.124C184.213 108.068 184.287 108.04 184.371 108.04H185.477C185.561 108.04 185.631 108.073 185.687 108.138C185.725 108.166 185.823 108.25 185.981 108.39C186.14 108.539 186.327 108.656 186.541 108.74C186.756 108.824 186.994 108.866 187.255 108.866C187.629 108.866 187.937 108.791 188.179 108.642C188.422 108.493 188.543 108.287 188.543 108.026C188.543 107.83 188.487 107.671 188.375 107.55C188.273 107.429 188.081 107.321 187.801 107.228C187.521 107.125 187.106 107.018 186.555 106.906C185.762 106.738 185.174 106.481 184.791 106.136C184.418 105.791 184.231 105.333 184.231 104.764C184.231 104.391 184.343 104.041 184.567 103.714C184.791 103.378 185.123 103.107 185.561 102.902C186.009 102.687 186.541 102.58 187.157 102.58C187.783 102.58 188.324 102.683 188.781 102.888C189.239 103.084 189.584 103.322 189.817 103.602C190.06 103.873 190.181 104.115 190.181 104.33C190.181 104.414 190.149 104.489 190.083 104.554C190.027 104.61 189.957 104.638 189.873 104.638H188.837C188.763 104.638 188.683 104.605 188.599 104.54C188.534 104.493 188.431 104.405 188.291 104.274C188.151 104.143 187.988 104.041 187.801 103.966C187.615 103.891 187.395 103.854 187.143 103.854C186.798 103.854 186.527 103.929 186.331 104.078C186.145 104.227 186.051 104.423 186.051 104.666C186.051 104.843 186.098 104.988 186.191 105.1C186.285 105.212 186.467 105.319 186.737 105.422C187.008 105.525 187.414 105.627 187.955 105.73C188.851 105.907 189.491 106.183 189.873 106.556C190.265 106.929 190.461 107.387 190.461 107.928C190.461 108.581 190.177 109.113 189.607 109.524C189.038 109.935 188.24 110.14 187.213 110.14Z" fill="#4F4F4F"/>
<path d="M50 59.2778L64.5 48L79 59.2778V77C79 77.8546 78.6605 78.6742 78.0562 79.2785C77.4519 79.8827 76.6324 80.2222 75.7778 80.2222H53.2222C52.3676 80.2222 51.5481 79.8827 50.9438 79.2785C50.3395 78.6742 50 77.8546 50 77V59.2778Z" stroke="#4F4F4F" stroke-width="2" stroke-linecap="round" stroke-linejoin="round"/>
<path d="M59.667 80.2222V64.1111H69.3337V80.2222" stroke="#4F4F4F" stroke-width="2" stroke-linecap="round" stroke-linejoin="round"/>
<path d="M46.8294 110C46.736 110 46.6567 109.967 46.5914 109.902C46.526 109.837 46.4934 109.757 46.4934 109.664V100.55C46.4934 100.447 46.5214 100.363 46.5774 100.298C46.6427 100.233 46.7267 100.2 46.8294 100.2H48.1034C48.206 100.2 48.2854 100.233 48.3414 100.298C48.4067 100.363 48.4394 100.447 48.4394 100.55V104.162H52.5694V100.55C52.5694 100.447 52.5974 100.363 52.6534 100.298C52.7187 100.233 52.8027 100.2 52.9054 100.2H54.1654C54.268 100.2 54.352 100.233 54.4174 100.298C54.4827 100.363 54.5154 100.447 54.5154 100.55V109.664C54.5154 109.767 54.4827 109.851 54.4174 109.916C54.352 109.972 54.268 110 54.1654 110H52.9054C52.812 110 52.7327 109.967 52.6674 109.902C52.602 109.837 52.5694 109.757 52.5694 109.664V105.912H48.4394V109.664C48.4394 109.757 48.4067 109.837 48.3414 109.902C48.2854 109.967 48.206 110 48.1034 110H46.8294ZM59.7446 110.14C58.6526 110.14 57.8079 109.86 57.2106 109.3C56.6133 108.731 56.2913 107.956 56.2446 106.976L56.2306 106.36L56.2446 105.744C56.2913 104.773 56.6179 104.003 57.2246 103.434C57.8313 102.865 58.6713 102.58 59.7446 102.58C60.8179 102.58 61.6579 102.865 62.2646 103.434C62.8713 104.003 63.1979 104.773 63.2446 105.744C63.2539 105.856 63.2586 106.061 63.2586 106.36C63.2586 106.659 63.2539 106.864 63.2446 106.976C63.1979 107.956 62.8759 108.731 62.2786 109.3C61.6813 109.86 60.8366 110.14 59.7446 110.14ZM59.7446 108.754C60.2393 108.754 60.6219 108.6 60.8926 108.292C61.1633 107.975 61.3126 107.513 61.3406 106.906C61.3499 106.813 61.3546 106.631 61.3546 106.36C61.3546 106.089 61.3499 105.907 61.3406 105.814C61.3126 105.207 61.1633 104.75 60.8926 104.442C60.6219 104.125 60.2393 103.966 59.7446 103.966C59.2499 103.966 58.8673 104.125 58.5966 104.442C58.3259 104.75 58.1766 105.207 58.1486 105.814L58.1346 106.36L58.1486 106.906C58.1766 107.513 58.3259 107.975 58.5966 108.292C58.8673 108.6 59.2499 108.754 59.7446 108.754ZM65.1457 110C65.0524 110 64.9731 109.967 64.9077 109.902C64.8424 109.837 64.8097 109.757 64.8097 109.664V103.056C64.8097 102.963 64.8424 102.883 64.9077 102.818C64.9731 102.753 65.0524 102.72 65.1457 102.72H66.2377C66.3311 102.72 66.4104 102.753 66.4757 102.818C66.5411 102.883 66.5737 102.963 66.5737 103.056V103.532C67.0591 102.897 67.7357 102.58 68.6037 102.58C69.6397 102.58 70.3631 102.995 70.7737 103.826C70.9977 103.453 71.3151 103.154 71.7257 102.93C72.1364 102.697 72.5797 102.58 73.0557 102.58C73.8211 102.58 74.4464 102.841 74.9317 103.364C75.4171 103.887 75.6597 104.647 75.6597 105.646V109.664C75.6597 109.757 75.6271 109.837 75.5617 109.902C75.5057 109.967 75.4264 110 75.3237 110H74.1757C74.0824 110 74.0031 109.967 73.9377 109.902C73.8724 109.837 73.8397 109.757 73.8397 109.664V105.758C73.8397 105.17 73.7137 104.745 73.4617 104.484C73.2191 104.213 72.8924 104.078 72.4817 104.078C72.1177 104.078 71.8051 104.213 71.5437 104.484C71.2917 104.755 71.1657 105.179 71.1657 105.758V109.664C71.1657 109.757 71.1331 109.837 71.0677 109.902C71.0024 109.967 70.9231 110 70.8297 110H69.6817C69.5884 110 69.5091 109.967 69.4437 109.902C69.3784 109.837 69.3457 109.757 69.3457 109.664V105.758C69.3457 105.17 69.2151 104.745 68.9537 104.484C68.7017 104.213 68.3797 104.078 67.9877 104.078C67.6144 104.078 67.2971 104.213 67.0357 104.484C66.7837 104.755 66.6577 105.179 66.6577 105.758V109.664C66.6577 109.757 66.6251 109.837 66.5597 109.902C66.4944 109.967 66.4151 110 66.3217 110H65.1457ZM80.5786 110.14C79.5426 110.14 78.7166 109.841 78.1006 109.244C77.4939 108.637 77.1719 107.788 77.1346 106.696L77.1206 106.346L77.1346 105.996C77.1812 104.932 77.5079 104.097 78.1146 103.49C78.7306 102.883 79.5519 102.58 80.5786 102.58C81.6799 102.58 82.5292 102.916 83.1266 103.588C83.7332 104.26 84.0366 105.156 84.0366 106.276V106.57C84.0366 106.663 84.0039 106.743 83.9386 106.808C83.8732 106.873 83.7892 106.906 83.6866 106.906H79.0386V107.018C79.0572 107.531 79.1972 107.965 79.4586 108.32C79.7292 108.665 80.0979 108.838 80.5646 108.838C81.1152 108.838 81.5586 108.623 81.8946 108.194C81.9786 108.091 82.0439 108.026 82.0906 107.998C82.1466 107.97 82.2259 107.956 82.3286 107.956H83.5326C83.6166 107.956 83.6866 107.984 83.7426 108.04C83.8079 108.087 83.8406 108.147 83.8406 108.222C83.8406 108.446 83.7052 108.712 83.4346 109.02C83.1732 109.319 82.7952 109.58 82.3006 109.804C81.8059 110.028 81.2319 110.14 80.5786 110.14ZM82.1326 105.73V105.688C82.1326 105.137 81.9926 104.694 81.7126 104.358C81.4419 104.022 81.0639 103.854 80.5786 103.854C80.0932 103.854 79.7152 104.022 79.4446 104.358C79.1739 104.694 79.0386 105.137 79.0386 105.688V105.73H82.1326Z" fill="#4F4F4F"/>
<path d="M327.722 110.14C326.891 110.14 326.177 110.014 325.58 109.762C324.982 109.51 324.53 109.179 324.222 108.768C323.914 108.357 323.75 107.914 323.732 107.438C323.732 107.354 323.76 107.284 323.816 107.228C323.872 107.172 323.942 107.144 324.026 107.144H325.272C325.384 107.144 325.468 107.167 325.524 107.214C325.589 107.251 325.65 107.317 325.706 107.41C325.799 107.727 326.014 107.993 326.35 108.208C326.686 108.423 327.143 108.53 327.722 108.53C328.384 108.53 328.884 108.423 329.22 108.208C329.556 107.984 329.724 107.676 329.724 107.284C329.724 107.023 329.635 106.808 329.458 106.64C329.29 106.472 329.033 106.327 328.688 106.206C328.352 106.085 327.848 105.935 327.176 105.758C326.074 105.497 325.267 105.151 324.754 104.722C324.25 104.283 323.998 103.663 323.998 102.86C323.998 102.319 324.142 101.838 324.432 101.418C324.73 100.998 325.155 100.667 325.706 100.424C326.266 100.181 326.914 100.06 327.652 100.06C328.417 100.06 329.08 100.195 329.64 100.466C330.2 100.737 330.624 101.077 330.914 101.488C331.212 101.889 331.371 102.291 331.39 102.692C331.39 102.776 331.362 102.846 331.306 102.902C331.25 102.958 331.18 102.986 331.096 102.986H329.794C329.598 102.986 329.462 102.897 329.388 102.72C329.332 102.421 329.145 102.174 328.828 101.978C328.51 101.773 328.118 101.67 327.652 101.67C327.129 101.67 326.718 101.768 326.42 101.964C326.121 102.16 325.972 102.445 325.972 102.818C325.972 103.079 326.046 103.294 326.196 103.462C326.345 103.63 326.578 103.779 326.896 103.91C327.222 104.041 327.689 104.185 328.296 104.344C329.117 104.531 329.77 104.741 330.256 104.974C330.75 105.207 331.114 105.501 331.348 105.856C331.581 106.211 331.698 106.663 331.698 107.214C331.698 107.811 331.53 108.334 331.194 108.782C330.867 109.221 330.4 109.557 329.794 109.79C329.196 110.023 328.506 110.14 327.722 110.14ZM336.27 110.14C335.234 110.14 334.408 109.841 333.792 109.244C333.185 108.637 332.863 107.788 332.826 106.696L332.812 106.346L332.826 105.996C332.873 104.932 333.199 104.097 333.806 103.49C334.422 102.883 335.243 102.58 336.27 102.58C337.371 102.58 338.221 102.916 338.818 103.588C339.425 104.26 339.728 105.156 339.728 106.276V106.57C339.728 106.663 339.695 106.743 339.63 106.808C339.565 106.873 339.481 106.906 339.378 106.906H334.73V107.018C334.749 107.531 334.889 107.965 335.15 108.32C335.421 108.665 335.789 108.838 336.256 108.838C336.807 108.838 337.25 108.623 337.586 108.194C337.67 108.091 337.735 108.026 337.782 107.998C337.838 107.97 337.917 107.956 338.02 107.956H339.224C339.308 107.956 339.378 107.984 339.434 108.04C339.499 108.087 339.532 108.147 339.532 108.222C339.532 108.446 339.397 108.712 339.126 109.02C338.865 109.319 338.487 109.58 337.992 109.804C337.497 110.028 336.923 110.14 336.27 110.14ZM337.824 105.73V105.688C337.824 105.137 337.684 104.694 337.404 104.358C337.133 104.022 336.755 103.854 336.27 103.854C335.785 103.854 335.407 104.022 335.136 104.358C334.865 104.694 334.73 105.137 334.73 105.688V105.73H337.824ZM344.477 110C343.627 110 342.988 109.781 342.559 109.342C342.139 108.894 341.929 108.241 341.929 107.382V104.204H340.823C340.729 104.204 340.65 104.171 340.585 104.106C340.519 104.031 340.487 103.947 340.487 103.854V103.056C340.487 102.963 340.519 102.883 340.585 102.818C340.65 102.753 340.729 102.72 340.823 102.72H341.929V100.396C341.929 100.293 341.961 100.214 342.027 100.158C342.092 100.093 342.171 100.06 342.265 100.06H343.399C343.501 100.06 343.581 100.093 343.637 100.158C343.702 100.214 343.735 100.293 343.735 100.396V102.72H345.485C345.587 102.72 345.667 102.753 345.723 102.818C345.788 102.874 345.821 102.953 345.821 103.056V103.854C345.821 103.957 345.788 104.041 345.723 104.106C345.657 104.171 345.578 104.204 345.485 104.204H343.735V107.242C343.735 107.643 343.805 107.947 343.945 108.152C344.085 108.357 344.318 108.46 344.645 108.46H345.611C345.704 108.46 345.783 108.493 345.849 108.558C345.914 108.623 345.947 108.703 345.947 108.796V109.664C345.947 109.757 345.914 109.837 345.849 109.902C345.793 109.967 345.713 110 345.611 110H344.477ZM350.479 110C349.629 110 348.99 109.781 348.561 109.342C348.141 108.894 347.931 108.241 347.931 107.382V104.204H346.825C346.731 104.204 346.652 104.171 346.587 104.106C346.521 104.031 346.489 103.947 346.489 103.854V103.056C346.489 102.963 346.521 102.883 346.587 102.818C346.652 102.753 346.731 102.72 346.825 102.72H347.931V100.396C347.931 100.293 347.963 100.214 348.029 100.158C348.094 100.093 348.173 100.06 348.267 100.06H349.401C349.503 100.06 349.583 100.093 349.639 100.158C349.704 100.214 349.737 100.293 349.737 100.396V102.72H351.487C351.589 102.72 351.669 102.753 351.725 102.818C351.79 102.874 351.823 102.953 351.823 103.056V103.854C351.823 103.957 351.79 104.041 351.725 104.106C351.659 104.171 351.58 104.204 351.487 104.204H349.737V107.242C349.737 107.643 349.807 107.947 349.947 108.152C350.087 108.357 350.32 108.46 350.647 108.46H351.613C351.706 108.46 351.785 108.493 351.851 108.558C351.916 108.623 351.949 108.703 351.949 108.796V109.664C351.949 109.757 351.916 109.837 351.851 109.902C351.795 109.967 351.715 110 351.613 110H350.479ZM353.471 101.516C353.377 101.516 353.298 101.483 353.233 101.418C353.167 101.353 353.135 101.273 353.135 101.18V100.172C353.135 100.079 353.167 99.9993 353.233 99.934C353.298 99.8687 353.377 99.836 353.471 99.836H354.745C354.838 99.836 354.917 99.8687 354.983 99.934C355.057 99.9993 355.095 100.079 355.095 100.172V101.18C355.095 101.273 355.062 101.353 354.997 101.418C354.931 101.483 354.847 101.516 354.745 101.516H353.471ZM353.527 110C353.433 110 353.354 109.967 353.289 109.902C353.223 109.837 353.191 109.757 353.191 109.664V103.056C353.191 102.963 353.223 102.883 353.289 102.818C353.354 102.753 353.433 102.72 353.527 102.72H354.689C354.791 102.72 354.871 102.753 354.927 102.818C354.992 102.874 355.025 102.953 355.025 103.056V109.664C355.025 109.757 354.992 109.837 354.927 109.902C354.871 109.967 354.791 110 354.689 110H353.527ZM357.218 110C357.125 110 357.045 109.967 356.98 109.902C356.915 109.837 356.882 109.757 356.882 109.664V103.056C356.882 102.963 356.915 102.883 356.98 102.818C357.045 102.753 357.125 102.72 357.218 102.72H358.366C358.459 102.72 358.539 102.753 358.604 102.818C358.669 102.883 358.702 102.963 358.702 103.056V103.63C359.253 102.93 360.032 102.58 361.04 102.58C361.899 102.58 362.58 102.865 363.084 103.434C363.588 103.994 363.84 104.759 363.84 105.73V109.664C363.84 109.757 363.807 109.837 363.742 109.902C363.686 109.967 363.607 110 363.504 110H362.272C362.179 110 362.099 109.967 362.034 109.902C361.969 109.837 361.936 109.757 361.936 109.664V105.814C361.936 105.263 361.801 104.839 361.53 104.54C361.269 104.232 360.886 104.078 360.382 104.078C359.887 104.078 359.495 104.232 359.206 104.54C358.926 104.848 358.786 105.273 358.786 105.814V109.664C358.786 109.757 358.753 109.837 358.688 109.902C358.632 109.967 358.553 110 358.45 110H357.218ZM368.908 113.08C368.078 113.08 367.406 112.94 366.892 112.66C366.379 112.389 366.015 112.077 365.8 111.722C365.586 111.367 365.478 111.064 365.478 110.812C365.478 110.728 365.511 110.653 365.576 110.588C365.651 110.523 365.73 110.49 365.814 110.49H367.032C367.116 110.49 367.186 110.509 367.242 110.546C367.308 110.593 367.359 110.672 367.396 110.784C367.49 111.036 367.639 111.246 367.844 111.414C368.059 111.591 368.39 111.68 368.838 111.68C369.398 111.68 369.809 111.554 370.07 111.302C370.341 111.05 370.476 110.616 370.476 110V109.048C369.963 109.655 369.244 109.958 368.32 109.958C367.35 109.958 366.617 109.659 366.122 109.062C365.637 108.465 365.376 107.662 365.338 106.654L365.324 106.276L365.338 105.898C365.376 104.909 365.642 104.111 366.136 103.504C366.631 102.888 367.359 102.58 368.32 102.58C368.815 102.58 369.249 102.673 369.622 102.86C369.996 103.047 370.308 103.303 370.56 103.63V103.07C370.56 102.967 370.593 102.883 370.658 102.818C370.724 102.753 370.803 102.72 370.896 102.72H372.03C372.124 102.72 372.203 102.757 372.268 102.832C372.334 102.897 372.366 102.977 372.366 103.07L372.38 109.818C372.38 110.854 372.091 111.657 371.512 112.226C370.934 112.795 370.066 113.08 368.908 113.08ZM368.838 108.474C369.37 108.474 369.767 108.306 370.028 107.97C370.299 107.634 370.448 107.223 370.476 106.738C370.486 106.663 370.49 106.509 370.49 106.276C370.49 106.052 370.486 105.903 370.476 105.828C370.448 105.333 370.299 104.918 370.028 104.582C369.767 104.246 369.37 104.078 368.838 104.078C367.83 104.078 367.298 104.699 367.242 105.94L367.228 106.276C367.228 106.939 367.345 107.471 367.578 107.872C367.821 108.273 368.241 108.474 368.838 108.474ZM377.003 110.14C376.303 110.14 375.715 110.037 375.239 109.832C374.763 109.617 374.409 109.37 374.175 109.09C373.951 108.801 373.839 108.553 373.839 108.348C373.839 108.255 373.872 108.18 373.937 108.124C374.003 108.068 374.077 108.04 374.161 108.04H375.267C375.351 108.04 375.421 108.073 375.477 108.138C375.515 108.166 375.613 108.25 375.771 108.39C375.93 108.539 376.117 108.656 376.331 108.74C376.546 108.824 376.784 108.866 377.045 108.866C377.419 108.866 377.727 108.791 377.969 108.642C378.212 108.493 378.333 108.287 378.333 108.026C378.333 107.83 378.277 107.671 378.165 107.55C378.063 107.429 377.871 107.321 377.591 107.228C377.311 107.125 376.896 107.018 376.345 106.906C375.552 106.738 374.964 106.481 374.581 106.136C374.208 105.791 374.021 105.333 374.021 104.764C374.021 104.391 374.133 104.041 374.357 103.714C374.581 103.378 374.913 103.107 375.351 102.902C375.799 102.687 376.331 102.58 376.947 102.58C377.573 102.58 378.114 102.683 378.571 102.888C379.029 103.084 379.374 103.322 379.607 103.602C379.85 103.873 379.971 104.115 379.971 104.33C379.971 104.414 379.939 104.489 379.873 104.554C379.817 104.61 379.747 104.638 379.663 104.638H378.627C378.553 104.638 378.473 104.605 378.389 104.54C378.324 104.493 378.221 104.405 378.081 104.274C377.941 104.143 377.778 104.041 377.591 103.966C377.405 103.891 377.185 103.854 376.933 103.854C376.588 103.854 376.317 103.929 376.121 104.078C375.935 104.227 375.841 104.423 375.841 104.666C375.841 104.843 375.888 104.988 375.981 105.1C376.075 105.212 376.257 105.319 376.527 105.422C376.798 105.525 377.204 105.627 377.745 105.73C378.641 105.907 379.281 106.183 379.663 106.556C380.055 106.929 380.251 107.387 380.251 107.928C380.251 108.581 379.967 109.113 379.397 109.524C378.828 109.935 378.03 110.14 377.003 110.14Z" fill="#1A7BFF"/>
<path d="M325 53C325 43.0589 333.059 35 343 35H363C372.941 35 381 43.0589 381 53V73C381 82.9411 372.941 91 363 91H343C333.059 91 325 82.9411 325 73V53Z" fill="#1A7BFF"/>
<path d="M352.5 68.375C355.192 68.375 357.375 66.1924 357.375 63.5C357.375 60.8076 355.192 58.625 352.5 58.625C349.808 58.625 347.625 60.8076 347.625 63.5C347.625 66.1924 349.808 68.375 352.5 68.375Z" stroke="white" stroke-width="2" stroke-linecap="round" stroke-linejoin="round"/>
<path d="M364.525 68.375C364.309 68.8651 364.244 69.4088 364.34 69.936C364.435 70.4631 364.687 70.9495 365.061 71.3325L365.159 71.43C365.461 71.7318 365.701 72.0903 365.864 72.4848C366.028 72.8794 366.112 73.3023 366.112 73.7294C366.112 74.1565 366.028 74.5794 365.864 74.9739C365.701 75.3685 365.461 75.7269 365.159 76.0287C364.857 76.3309 364.498 76.5706 364.104 76.7342C363.709 76.8977 363.286 76.9819 362.859 76.9819C362.432 76.9819 362.009 76.8977 361.615 76.7342C361.22 76.5706 360.862 76.3309 360.56 76.0287L360.462 75.9312C360.08 75.5566 359.593 75.3053 359.066 75.2097C358.539 75.1142 357.995 75.1787 357.505 75.395C357.024 75.601 356.614 75.943 356.326 76.379C356.037 76.815 355.882 77.3258 355.88 77.8487V78.125C355.88 78.987 355.538 79.8136 354.928 80.4231C354.319 81.0326 353.492 81.375 352.63 81.375C351.768 81.375 350.941 81.0326 350.332 80.4231C349.722 79.8136 349.38 78.987 349.38 78.125V77.9787C349.367 77.4409 349.193 76.9192 348.88 76.4816C348.567 76.044 348.13 75.7107 347.625 75.525C347.135 75.3087 346.591 75.2442 346.064 75.3397C345.537 75.4353 345.05 75.6866 344.667 76.0612L344.57 76.1588C344.268 76.4609 343.91 76.7006 343.515 76.8642C343.121 77.0277 342.698 77.1119 342.271 77.1119C341.844 77.1119 341.421 77.0277 341.026 76.8642C340.632 76.7006 340.273 76.4609 339.971 76.1588C339.669 75.8569 339.429 75.4985 339.266 75.1039C339.102 74.7094 339.018 74.2865 339.018 73.8594C339.018 73.4323 339.102 73.0094 339.266 72.6148C339.429 72.2203 339.669 71.8618 339.971 71.56L340.069 71.4625C340.443 71.0795 340.695 70.5931 340.79 70.066C340.886 69.5388 340.821 68.9951 340.605 68.505C340.399 68.0244 340.057 67.6145 339.621 67.3257C339.185 67.037 338.674 66.8821 338.151 66.88H337.875C337.013 66.88 336.186 66.5376 335.577 65.9281C334.967 65.3186 334.625 64.492 334.625 63.63C334.625 62.768 334.967 61.9414 335.577 61.3319C336.186 60.7224 337.013 60.38 337.875 60.38H338.021C338.559 60.3674 339.081 60.1933 339.518 59.8803C339.956 59.5673 340.289 59.1299 340.475 58.625C340.691 58.1349 340.756 57.5912 340.66 57.064C340.565 56.5369 340.313 56.0505 339.939 55.6675L339.841 55.57C339.539 55.2682 339.299 54.9097 339.136 54.5152C338.972 54.1206 338.888 53.6977 338.888 53.2706C338.888 52.8435 338.972 52.4206 339.136 52.0261C339.299 51.6315 339.539 51.2731 339.841 50.9712C340.143 50.6691 340.502 50.4294 340.896 50.2658C341.291 50.1023 341.714 50.0181 342.141 50.0181C342.568 50.0181 342.991 50.1023 343.385 50.2658C343.78 50.4294 344.138 50.6691 344.44 50.9712L344.537 51.0687C344.92 51.4434 345.407 51.6947 345.934 51.7903C346.461 51.8858 347.005 51.8213 347.495 51.605H347.625C348.106 51.399 348.516 51.057 348.804 50.621C349.093 50.185 349.248 49.6742 349.25 49.1513V48.875C349.25 48.013 349.592 47.1864 350.202 46.5769C350.811 45.9674 351.638 45.625 352.5 45.625C353.362 45.625 354.189 45.9674 354.798 46.5769C355.408 47.1864 355.75 48.013 355.75 48.875V49.0212C355.752 49.5442 355.907 50.055 356.196 50.491C356.484 50.927 356.894 51.269 357.375 51.475C357.865 51.6913 358.409 51.7558 358.936 51.6603C359.463 51.5647 359.95 51.3134 360.332 50.9387L360.43 50.8413C360.732 50.5391 361.09 50.2994 361.485 50.1358C361.879 49.9723 362.302 49.8881 362.729 49.8881C363.156 49.8881 363.579 49.9723 363.974 50.1358C364.368 50.2994 364.727 50.5391 365.029 50.8413C365.331 51.1431 365.571 51.5015 365.734 51.8961C365.898 52.2906 365.982 52.7135 365.982 53.1406C365.982 53.5677 365.898 53.9906 365.734 54.3852C365.571 54.7797 365.331 55.1382 365.029 55.44L364.931 55.5375C364.557 55.9205 364.305 56.4069 364.21 56.934C364.114 57.4612 364.179 58.0049 364.395 58.495V58.625C364.601 59.1056 364.943 59.5155 365.379 59.8043C365.815 60.093 366.326 60.2479 366.849 60.25H367.125C367.987 60.25 368.814 60.5924 369.423 61.2019C370.033 61.8114 370.375 62.638 370.375 63.5C370.375 64.362 370.033 65.1886 369.423 65.7981C368.814 66.4076 367.987 66.75 367.125 66.75H366.979C366.456 66.7521 365.945 66.907 365.509 67.1957C365.073 67.4845 364.731 67.8944 364.525 68.375V68.375Z" stroke="white" stroke-width="2" stroke-linecap="round" stroke-linejoin="round"/>
<path d="M243.541 110C243.448 110 243.369 109.967 243.303 109.902C243.238 109.837 243.205 109.757 243.205 109.664V100.55C243.205 100.447 243.233 100.363 243.289 100.298C243.355 100.233 243.439 100.2 243.541 100.2H246.957C249.701 100.2 251.101 101.469 251.157 104.008C251.176 104.549 251.185 104.913 251.185 105.1C251.185 105.277 251.176 105.637 251.157 106.178C251.12 107.485 250.77 108.451 250.107 109.076C249.445 109.692 248.418 110 247.027 110H243.541ZM246.957 108.39C247.741 108.39 248.306 108.217 248.651 107.872C248.997 107.517 249.179 106.939 249.197 106.136C249.216 105.576 249.225 105.226 249.225 105.086C249.225 104.937 249.216 104.591 249.197 104.05C249.179 103.285 248.983 102.72 248.609 102.356C248.245 101.992 247.671 101.81 246.887 101.81H245.151V108.39H246.957ZM254.995 110.14C254.519 110.14 254.08 110.047 253.679 109.86C253.287 109.664 252.974 109.403 252.741 109.076C252.517 108.749 252.405 108.39 252.405 107.998C252.405 107.363 252.662 106.85 253.175 106.458C253.688 106.066 254.393 105.8 255.289 105.66L257.207 105.38V105.086C257.207 104.675 257.104 104.367 256.899 104.162C256.694 103.957 256.362 103.854 255.905 103.854C255.597 103.854 255.345 103.915 255.149 104.036C254.962 104.148 254.813 104.26 254.701 104.372C254.589 104.493 254.514 104.573 254.477 104.61C254.44 104.722 254.37 104.778 254.267 104.778H253.189C253.105 104.778 253.03 104.75 252.965 104.694C252.909 104.638 252.881 104.563 252.881 104.47C252.89 104.237 253.002 103.971 253.217 103.672C253.441 103.373 253.782 103.117 254.239 102.902C254.696 102.687 255.256 102.58 255.919 102.58C257.02 102.58 257.823 102.827 258.327 103.322C258.831 103.817 259.083 104.465 259.083 105.268V109.664C259.083 109.757 259.05 109.837 258.985 109.902C258.929 109.967 258.85 110 258.747 110H257.613C257.52 110 257.44 109.967 257.375 109.902C257.31 109.837 257.277 109.757 257.277 109.664V109.118C257.072 109.417 256.778 109.664 256.395 109.86C256.022 110.047 255.555 110.14 254.995 110.14ZM255.471 108.81C255.984 108.81 256.404 108.642 256.731 108.306C257.058 107.97 257.221 107.48 257.221 106.836V106.542L255.821 106.766C255.28 106.85 254.869 106.985 254.589 107.172C254.318 107.359 254.183 107.587 254.183 107.858C254.183 108.157 254.309 108.39 254.561 108.558C254.813 108.726 255.116 108.81 255.471 108.81ZM264.101 110C263.251 110 262.612 109.781 262.183 109.342C261.763 108.894 261.553 108.241 261.553 107.382V104.204H260.447C260.353 104.204 260.274 104.171 260.209 104.106C260.143 104.031 260.111 103.947 260.111 103.854V103.056C260.111 102.963 260.143 102.883 260.209 102.818C260.274 102.753 260.353 102.72 260.447 102.72H261.553V100.396C261.553 100.293 261.585 100.214 261.651 100.158C261.716 100.093 261.795 100.06 261.889 100.06H263.023C263.125 100.06 263.205 100.093 263.261 100.158C263.326 100.214 263.359 100.293 263.359 100.396V102.72H265.109C265.211 102.72 265.291 102.753 265.347 102.818C265.412 102.874 265.445 102.953 265.445 103.056V103.854C265.445 103.957 265.412 104.041 265.347 104.106C265.281 104.171 265.202 104.204 265.109 104.204H263.359V107.242C263.359 107.643 263.429 107.947 263.569 108.152C263.709 108.357 263.942 108.46 264.269 108.46H265.235C265.328 108.46 265.407 108.493 265.473 108.558C265.538 108.623 265.571 108.703 265.571 108.796V109.664C265.571 109.757 265.538 109.837 265.473 109.902C265.417 109.967 265.337 110 265.235 110H264.101ZM268.927 110.14C268.451 110.14 268.012 110.047 267.611 109.86C267.219 109.664 266.906 109.403 266.673 109.076C266.449 108.749 266.337 108.39 266.337 107.998C266.337 107.363 266.593 106.85 267.107 106.458C267.62 106.066 268.325 105.8 269.221 105.66L271.139 105.38V105.086C271.139 104.675 271.036 104.367 270.831 104.162C270.625 103.957 270.294 103.854 269.837 103.854C269.529 103.854 269.277 103.915 269.081 104.036C268.894 104.148 268.745 104.26 268.633 104.372C268.521 104.493 268.446 104.573 268.409 104.61C268.371 104.722 268.301 104.778 268.199 104.778H267.121C267.037 104.778 266.962 104.75 266.897 104.694C266.841 104.638 266.813 104.563 266.813 104.47C266.822 104.237 266.934 103.971 267.149 103.672C267.373 103.373 267.713 103.117 268.171 102.902C268.628 102.687 269.188 102.58 269.851 102.58C270.952 102.58 271.755 102.827 272.259 103.322C272.763 103.817 273.015 104.465 273.015 105.268V109.664C273.015 109.757 272.982 109.837 272.917 109.902C272.861 109.967 272.781 110 272.679 110H271.545C271.451 110 271.372 109.967 271.307 109.902C271.241 109.837 271.209 109.757 271.209 109.664V109.118C271.003 109.417 270.709 109.664 270.327 109.86C269.953 110.047 269.487 110.14 268.927 110.14ZM269.403 108.81C269.916 108.81 270.336 108.642 270.663 108.306C270.989 107.97 271.153 107.48 271.153 106.836V106.542L269.753 106.766C269.211 106.85 268.801 106.985 268.521 107.172C268.25 107.359 268.115 107.587 268.115 107.858C268.115 108.157 268.241 108.39 268.493 108.558C268.745 108.726 269.048 108.81 269.403 108.81Z" fill="#4F4F4F"/>
<path d="M269 76.5V60.25" stroke="#4F4F4F" stroke-width="2.5" stroke-linecap="round" stroke-linejoin="round"/>
<path d="M258 76.5V50.5" stroke="#4F4F4F" stroke-width="2.5" stroke-linecap="round" stroke-linejoin="round"/>
<path d="M247 76.5V66.75" stroke="#4F4F4F" stroke-width="2.5" stroke-linecap="round" stroke-linejoin="round"/>
<defs>
<filter id="filter0_d" x="-15" y="0" width="448" height="144" filterUnits="userSpaceOnUse" color-interpolation-filters="sRGB">
<feFlood flood-opacity="0" result="BackgroundImageFix"/>
<feColorMatrix in="SourceAlpha" type="matrix" values="0 0 0 0 0 0 0 0 0 0 0 0 0 0 0 0 0 0 127 0"/>
<feOffset dx="2" dy="-5"/>
<feGaussianBlur stdDeviation="8.5"/>
<feColorMatrix type="matrix" values="0 0 0 0 0.329412 0 0 0 0 0.341961 0 0 0 0 0.360784 0 0 0 0.1 0"/>
<feBlend mode="normal" in2="BackgroundImageFix" result="effect1_dropShadow"/>
<feBlend mode="normal" in="SourceGraphic" in2="effect1_dropShadow" result="shape"/>
</filter>
</defs>
</svg>
