<svg width="324" height="50" viewBox="0 0 324 50" fill="none" xmlns="http://www.w3.org/2000/svg">
<rect width="324" height="50" rx="15" fill="#1A7BFF"/>
<path d="M141.986 33C141.866 33 141.764 32.958 141.68 32.874C141.596 32.79 141.554 32.688 141.554 32.568V20.832C141.554 20.7 141.596 20.598 141.68 20.526C141.764 20.442 141.866 20.4 141.986 20.4H143.66C143.792 20.4 143.894 20.442 143.966 20.526C144.05 20.598 144.092 20.7 144.092 20.832V30.858H149.798C149.93 30.858 150.038 30.9 150.122 30.984C150.206 31.068 150.248 31.176 150.248 31.308V32.568C150.248 32.7 150.206 32.808 150.122 32.892C150.038 32.964 149.93 33 149.798 33H141.986ZM155.278 33.18C153.874 33.18 152.788 32.82 152.02 32.1C151.252 31.368 150.838 30.372 150.778 29.112L150.76 28.32L150.778 27.528C150.838 26.28 151.258 25.29 152.038 24.558C152.818 23.826 153.898 23.46 155.278 23.46C156.658 23.46 157.738 23.826 158.518 24.558C159.298 25.29 159.718 26.28 159.778 27.528C159.79 27.672 159.796 27.936 159.796 28.32C159.796 28.704 159.79 28.968 159.778 29.112C159.718 30.372 159.304 31.368 158.536 32.1C157.768 32.82 156.682 33.18 155.278 33.18ZM155.278 31.398C155.914 31.398 156.406 31.2 156.754 30.804C157.102 30.396 157.294 29.802 157.33 29.022C157.342 28.902 157.348 28.668 157.348 28.32C157.348 27.972 157.342 27.738 157.33 27.618C157.294 26.838 157.102 26.25 156.754 25.854C156.406 25.446 155.914 25.242 155.278 25.242C154.642 25.242 154.15 25.446 153.802 25.854C153.454 26.25 153.262 26.838 153.226 27.618L153.208 28.32L153.226 29.022C153.262 29.802 153.454 30.396 153.802 30.804C154.15 31.2 154.642 31.398 155.278 31.398ZM165.521 36.96C164.453 36.96 163.589 36.78 162.929 36.42C162.269 36.072 161.801 35.67 161.525 35.214C161.249 34.758 161.111 34.368 161.111 34.044C161.111 33.936 161.153 33.84 161.237 33.756C161.333 33.672 161.435 33.63 161.543 33.63H163.109C163.217 33.63 163.307 33.654 163.379 33.702C163.463 33.762 163.529 33.864 163.577 34.008C163.697 34.332 163.889 34.602 164.153 34.818C164.429 35.046 164.855 35.16 165.431 35.16C166.151 35.16 166.679 34.998 167.015 34.674C167.363 34.35 167.537 33.792 167.537 33V31.776C166.877 32.556 165.953 32.946 164.765 32.946C163.517 32.946 162.575 32.562 161.939 31.794C161.315 31.026 160.979 29.994 160.931 28.698L160.913 28.212L160.931 27.726C160.979 26.454 161.321 25.428 161.957 24.648C162.593 23.856 163.529 23.46 164.765 23.46C165.401 23.46 165.959 23.58 166.439 23.82C166.919 24.06 167.321 24.39 167.645 24.81V24.09C167.645 23.958 167.687 23.85 167.771 23.766C167.855 23.682 167.957 23.64 168.077 23.64H169.535C169.655 23.64 169.757 23.688 169.841 23.784C169.925 23.868 169.967 23.97 169.967 24.09L169.985 32.766C169.985 34.098 169.613 35.13 168.869 35.862C168.125 36.594 167.009 36.96 165.521 36.96ZM165.431 31.038C166.115 31.038 166.625 30.822 166.961 30.39C167.309 29.958 167.501 29.43 167.537 28.806C167.549 28.71 167.555 28.512 167.555 28.212C167.555 27.924 167.549 27.732 167.537 27.636C167.501 27 167.309 26.466 166.961 26.034C166.625 25.602 166.115 25.386 165.431 25.386C164.135 25.386 163.451 26.184 163.379 27.78L163.361 28.212C163.361 29.064 163.511 29.748 163.811 30.264C164.123 30.78 164.663 31.038 165.431 31.038ZM175.856 22.092C175.736 22.092 175.634 22.05 175.55 21.966C175.466 21.882 175.424 21.78 175.424 21.66V20.364C175.424 20.244 175.466 20.142 175.55 20.058C175.634 19.974 175.736 19.932 175.856 19.932H177.494C177.614 19.932 177.716 19.974 177.8 20.058C177.896 20.142 177.944 20.244 177.944 20.364V21.66C177.944 21.78 177.902 21.882 177.818 21.966C177.734 22.05 177.626 22.092 177.494 22.092H175.856ZM175.928 33C175.808 33 175.706 32.958 175.622 32.874C175.538 32.79 175.496 32.688 175.496 32.568V24.072C175.496 23.952 175.538 23.85 175.622 23.766C175.706 23.682 175.808 23.64 175.928 23.64H177.422C177.554 23.64 177.656 23.682 177.728 23.766C177.812 23.838 177.854 23.94 177.854 24.072V32.568C177.854 32.688 177.812 32.79 177.728 32.874C177.656 32.958 177.554 33 177.422 33H175.928ZM180.174 33C180.054 33 179.952 32.958 179.868 32.874C179.784 32.79 179.742 32.688 179.742 32.568V24.072C179.742 23.952 179.784 23.85 179.868 23.766C179.952 23.682 180.054 23.64 180.174 23.64H181.65C181.77 23.64 181.872 23.682 181.956 23.766C182.04 23.85 182.082 23.952 182.082 24.072V24.81C182.79 23.91 183.792 23.46 185.088 23.46C186.192 23.46 187.068 23.826 187.716 24.558C188.364 25.278 188.688 26.262 188.688 27.51V32.568C188.688 32.688 188.646 32.79 188.562 32.874C188.49 32.958 188.388 33 188.256 33H186.672C186.552 33 186.45 32.958 186.366 32.874C186.282 32.79 186.24 32.688 186.24 32.568V27.618C186.24 26.91 186.066 26.364 185.718 25.98C185.382 25.584 184.89 25.386 184.242 25.386C183.606 25.386 183.102 25.584 182.73 25.98C182.37 26.376 182.19 26.922 182.19 27.618V32.568C182.19 32.688 182.148 32.79 182.064 32.874C181.992 32.958 181.89 33 181.758 33H180.174Z" fill="white"/>
</svg>
