<svg width="240" height="285" viewBox="0 0 240 285" fill="none" xmlns="http://www.w3.org/2000/svg">
<path d="M50.9004 376.953C52.6304 383.183 57.4204 407.013 61.2204 436.323C64.3404 460.483 45.5804 481.903 21.2304 481.903L7.33043 481.903C-15.0096 481.903 -33.0996 463.743 -32.9996 441.403C-32.4996 327.723 -29.2396 154.813 -18.8096 140.163C-10.0896 127.923 -0.459531 102.893 6.08046 83.4633C13.8605 60.3733 27.4605 39.6133 45.8405 23.6233C46.3905 23.1433 46.9405 22.6733 47.4805 22.2233C59.1205 12.4233 73.2405 6.00331 88.2305 3.40331C208.29 -17.3967 238.89 67.5433 238.99 115.773C238.99 116.633 239.02 117.493 239.07 118.353C240.48 145.973 221.08 205.783 131.45 234.383C40.3904 263.423 39.8004 341.533 50.9004 376.953Z" fill="url(#paint0_linear)"/>
<defs>
<linearGradient id="paint0_linear" x1="200.871" y1="17.2139" x2="-529.441" y2="1074.14" gradientUnits="userSpaceOnUse">
<stop stop-color="#D6EAF5"/>
<stop offset="1" stop-color="#FAF7F2" stop-opacity="0"/>
</linearGradient>
</defs>
</svg>
