<svg width="324" height="50" viewBox="0 0 324 50" fill="none" xmlns="http://www.w3.org/2000/svg">
<rect width="324" height="50" rx="15" fill="#1A7BFF"/>
<path d="M139.762 33.18C138.694 33.18 137.776 33.018 137.008 32.694C136.24 32.37 135.658 31.944 135.262 31.416C134.866 30.888 134.656 30.318 134.632 29.706C134.632 29.598 134.668 29.508 134.74 29.436C134.812 29.364 134.902 29.328 135.01 29.328H136.612C136.756 29.328 136.864 29.358 136.936 29.418C137.02 29.466 137.098 29.55 137.17 29.67C137.29 30.078 137.566 30.42 137.998 30.696C138.43 30.972 139.018 31.11 139.762 31.11C140.614 31.11 141.256 30.972 141.688 30.696C142.12 30.408 142.336 30.012 142.336 29.508C142.336 29.172 142.222 28.896 141.994 28.68C141.778 28.464 141.448 28.278 141.004 28.122C140.572 27.966 139.924 27.774 139.06 27.546C137.644 27.21 136.606 26.766 135.946 26.214C135.298 25.65 134.974 24.852 134.974 23.82C134.974 23.124 135.16 22.506 135.532 21.966C135.916 21.426 136.462 21 137.17 20.688C137.89 20.376 138.724 20.22 139.672 20.22C140.656 20.22 141.508 20.394 142.228 20.742C142.948 21.09 143.494 21.528 143.866 22.056C144.25 22.572 144.454 23.088 144.478 23.604C144.478 23.712 144.442 23.802 144.37 23.874C144.298 23.946 144.208 23.982 144.1 23.982H142.426C142.174 23.982 142 23.868 141.904 23.64C141.832 23.256 141.592 22.938 141.184 22.686C140.776 22.422 140.272 22.29 139.672 22.29C139 22.29 138.472 22.416 138.088 22.668C137.704 22.92 137.512 23.286 137.512 23.766C137.512 24.102 137.608 24.378 137.8 24.594C137.992 24.81 138.292 25.002 138.7 25.17C139.12 25.338 139.72 25.524 140.5 25.728C141.556 25.968 142.396 26.238 143.02 26.538C143.656 26.838 144.124 27.216 144.424 27.672C144.724 28.128 144.874 28.71 144.874 29.418C144.874 30.186 144.658 30.858 144.226 31.434C143.806 31.998 143.206 32.43 142.426 32.73C141.658 33.03 140.77 33.18 139.762 33.18ZM146.58 22.092C146.46 22.092 146.358 22.05 146.274 21.966C146.19 21.882 146.148 21.78 146.148 21.66V20.364C146.148 20.244 146.19 20.142 146.274 20.058C146.358 19.974 146.46 19.932 146.58 19.932H148.218C148.338 19.932 148.44 19.974 148.524 20.058C148.62 20.142 148.668 20.244 148.668 20.364V21.66C148.668 21.78 148.626 21.882 148.542 21.966C148.458 22.05 148.35 22.092 148.218 22.092H146.58ZM146.652 33C146.532 33 146.43 32.958 146.346 32.874C146.262 32.79 146.22 32.688 146.22 32.568V24.072C146.22 23.952 146.262 23.85 146.346 23.766C146.43 23.682 146.532 23.64 146.652 23.64H148.146C148.278 23.64 148.38 23.682 148.452 23.766C148.536 23.838 148.578 23.94 148.578 24.072V32.568C148.578 32.688 148.536 32.79 148.452 32.874C148.38 32.958 148.278 33 148.146 33H146.652ZM154.697 36.96C153.629 36.96 152.765 36.78 152.105 36.42C151.445 36.072 150.977 35.67 150.701 35.214C150.425 34.758 150.287 34.368 150.287 34.044C150.287 33.936 150.329 33.84 150.413 33.756C150.509 33.672 150.611 33.63 150.719 33.63H152.285C152.393 33.63 152.483 33.654 152.555 33.702C152.639 33.762 152.705 33.864 152.753 34.008C152.873 34.332 153.065 34.602 153.329 34.818C153.605 35.046 154.031 35.16 154.607 35.16C155.327 35.16 155.855 34.998 156.191 34.674C156.539 34.35 156.713 33.792 156.713 33V31.776C156.053 32.556 155.129 32.946 153.941 32.946C152.693 32.946 151.751 32.562 151.115 31.794C150.491 31.026 150.155 29.994 150.107 28.698L150.089 28.212L150.107 27.726C150.155 26.454 150.497 25.428 151.133 24.648C151.769 23.856 152.705 23.46 153.941 23.46C154.577 23.46 155.135 23.58 155.615 23.82C156.095 24.06 156.497 24.39 156.821 24.81V24.09C156.821 23.958 156.863 23.85 156.947 23.766C157.031 23.682 157.133 23.64 157.253 23.64H158.711C158.831 23.64 158.933 23.688 159.017 23.784C159.101 23.868 159.143 23.97 159.143 24.09L159.161 32.766C159.161 34.098 158.789 35.13 158.045 35.862C157.301 36.594 156.185 36.96 154.697 36.96ZM154.607 31.038C155.291 31.038 155.801 30.822 156.137 30.39C156.485 29.958 156.677 29.43 156.713 28.806C156.725 28.71 156.731 28.512 156.731 28.212C156.731 27.924 156.725 27.732 156.713 27.636C156.677 27 156.485 26.466 156.137 26.034C155.801 25.602 155.291 25.386 154.607 25.386C153.311 25.386 152.627 26.184 152.555 27.78L152.537 28.212C152.537 29.064 152.687 29.748 152.987 30.264C153.299 30.78 153.839 31.038 154.607 31.038ZM161.49 33C161.37 33 161.268 32.958 161.184 32.874C161.1 32.79 161.058 32.688 161.058 32.568V24.072C161.058 23.952 161.1 23.85 161.184 23.766C161.268 23.682 161.37 23.64 161.49 23.64H162.966C163.086 23.64 163.188 23.682 163.272 23.766C163.356 23.85 163.398 23.952 163.398 24.072V24.81C164.106 23.91 165.108 23.46 166.404 23.46C167.508 23.46 168.384 23.826 169.032 24.558C169.68 25.278 170.004 26.262 170.004 27.51V32.568C170.004 32.688 169.962 32.79 169.878 32.874C169.806 32.958 169.704 33 169.572 33H167.988C167.868 33 167.766 32.958 167.682 32.874C167.598 32.79 167.556 32.688 167.556 32.568V27.618C167.556 26.91 167.382 26.364 167.034 25.98C166.698 25.584 166.206 25.386 165.558 25.386C164.922 25.386 164.418 25.584 164.046 25.98C163.686 26.376 163.506 26.922 163.506 27.618V32.568C163.506 32.688 163.464 32.79 163.38 32.874C163.308 32.958 163.206 33 163.074 33H161.49ZM178.878 33.18C177.774 33.18 176.904 32.82 176.268 32.1C175.632 31.368 175.314 30.378 175.314 29.13V24.072C175.314 23.952 175.356 23.85 175.44 23.766C175.524 23.682 175.626 23.64 175.746 23.64H177.33C177.462 23.64 177.564 23.682 177.636 23.766C177.72 23.838 177.762 23.94 177.762 24.072V29.022C177.762 30.51 178.416 31.254 179.724 31.254C180.348 31.254 180.84 31.056 181.2 30.66C181.572 30.264 181.758 29.718 181.758 29.022V24.072C181.758 23.952 181.8 23.85 181.884 23.766C181.968 23.682 182.07 23.64 182.19 23.64H183.774C183.906 23.64 184.008 23.682 184.08 23.766C184.164 23.838 184.206 23.94 184.206 24.072V32.568C184.206 32.688 184.164 32.79 184.08 32.874C184.008 32.958 183.906 33 183.774 33H182.316C182.196 33 182.094 32.958 182.01 32.874C181.926 32.79 181.884 32.688 181.884 32.568V31.83C181.212 32.73 180.21 33.18 178.878 33.18ZM186.534 36.42C186.414 36.42 186.312 36.378 186.228 36.294C186.144 36.222 186.102 36.12 186.102 35.988V24.072C186.102 23.94 186.144 23.838 186.228 23.766C186.312 23.682 186.414 23.64 186.534 23.64H187.956C188.088 23.64 188.19 23.682 188.262 23.766C188.346 23.838 188.388 23.94 188.388 24.072V24.792C189.06 23.904 190.02 23.46 191.268 23.46C192.48 23.46 193.41 23.844 194.058 24.612C194.706 25.368 195.054 26.394 195.102 27.69C195.114 27.834 195.12 28.044 195.12 28.32C195.12 28.608 195.114 28.824 195.102 28.968C195.054 30.228 194.706 31.248 194.058 32.028C193.41 32.796 192.48 33.18 191.268 33.18C190.056 33.18 189.132 32.754 188.496 31.902V35.988C188.496 36.12 188.454 36.222 188.37 36.294C188.298 36.378 188.196 36.42 188.064 36.42H186.534ZM190.602 31.254C191.898 31.254 192.588 30.456 192.672 28.86C192.684 28.74 192.69 28.56 192.69 28.32C192.69 28.08 192.684 27.9 192.672 27.78C192.588 26.184 191.898 25.386 190.602 25.386C189.906 25.386 189.39 25.608 189.054 26.052C188.718 26.496 188.532 27.042 188.496 27.69L188.478 28.374L188.496 29.076C188.52 29.676 188.706 30.192 189.054 30.624C189.414 31.044 189.93 31.254 190.602 31.254Z" fill="white"/>
</svg>
