<svg width="411" height="132" viewBox="0 0 411 132" fill="none" xmlns="http://www.w3.org/2000/svg">
<g filter="url(#filter0_d)">
<rect x="-1" y="22" width="414" height="110" fill="white"/>
</g>
<path d="M139 54C139 44.0589 147.059 36 157 36H177C186.941 36 195 44.0589 195 54V74C195 83.9411 186.941 92 177 92H157C147.059 92 139 83.9411 139 74V54Z" fill="#1A7BFF"/>
<path d="M181.026 61.3577C180.123 60.6273 178.845 60.3936 177.769 60.762C177.481 60.8608 177.213 60.9994 176.973 61.1741C176.361 61.6196 175.003 62.9569 173.927 64.2804V54.0784C173.927 53.2113 173.567 52.3637 172.939 51.7529C172.316 51.1465 171.497 50.8195 170.638 50.8354C170.248 50.8422 169.874 50.9188 169.529 51.0527V50.0562C169.529 49.1125 169.137 48.1899 168.453 47.5247C167.775 46.8653 166.888 46.51 165.95 46.5269C164.081 46.559 162.554 48.0635 162.498 49.9028C162.093 49.7209 161.653 49.6189 161.198 49.6054C160.248 49.5778 159.307 49.9417 158.617 50.6045C157.942 51.2536 157.569 52.1104 157.569 53.0146L157.567 53.9809C157.276 53.886 156.965 53.8341 156.642 53.8341C155.011 53.8341 153.684 55.1472 153.684 56.7612L153.685 71.5912L153.688 71.6615C153.824 73.6078 154.235 75.2742 154.911 76.6147C155.545 77.8714 156.428 78.8833 157.538 79.6222C159.721 81.0766 162.418 81.2632 164.524 81.2632C168.659 81.2632 172.38 79.2281 174.24 75.9503C174.466 75.5893 175.063 74.6612 175.707 73.6603C176.334 72.685 176.917 71.7863 177.431 70.9934C177.714 70.5574 177.971 70.1609 178.195 69.8153C179.027 68.5276 179.913 67.2791 180.83 66.1043C181.17 65.6686 181.274 65.5504 181.298 65.5244C181.727 65.0609 181.998 64.4935 182.08 63.8831C182.21 62.9256 181.826 62.0049 181.026 61.3577ZM180.04 63.6128C180.014 63.8079 179.924 63.9928 179.781 64.1476C179.706 64.2284 179.572 64.3822 179.201 64.8587C178.247 66.0809 177.325 67.3793 176.46 68.7176C176.238 69.0624 175.981 69.4573 175.699 69.8922C175.184 70.6867 174.599 71.5875 173.97 72.566C173.311 73.5906 172.701 74.5396 172.478 74.8966L172.455 74.9358C170.961 77.5818 167.923 79.2254 164.525 79.2254C162.711 79.2254 160.409 79.0783 158.687 77.9319C156.931 76.7621 155.968 74.6764 155.744 71.5555L155.743 56.7615C155.743 56.2709 156.146 55.8718 156.642 55.8718C157.14 55.8718 157.546 56.2709 157.546 56.7615V62.3113C157.546 62.3277 157.548 62.3436 157.548 62.36C157.549 62.3781 157.549 62.3964 157.551 62.4144C157.553 62.4305 157.556 62.4462 157.558 62.4621C157.561 62.4798 157.563 62.4979 157.566 62.5156C157.57 62.5315 157.575 62.5472 157.579 62.5628C157.583 62.5795 157.586 62.5967 157.592 62.6131C157.597 62.629 157.603 62.6444 157.609 62.6598C157.614 62.6754 157.62 62.6913 157.626 62.7067C157.633 62.7221 157.64 62.7366 157.648 62.7515C157.655 62.7663 157.662 62.7814 157.669 62.796C157.677 62.8103 157.686 62.8241 157.695 62.8381C157.704 62.8522 157.712 62.8665 157.721 62.88C157.73 62.8935 157.741 62.9063 157.75 62.9192C157.76 62.9325 157.769 62.946 157.78 62.9585C157.79 62.9709 157.802 62.9823 157.813 62.9942C157.824 63.0064 157.835 63.0194 157.846 63.0311C157.858 63.0422 157.87 63.0523 157.882 63.0631C157.894 63.0743 157.906 63.0862 157.919 63.0968C157.932 63.1069 157.945 63.1159 157.958 63.1254C157.971 63.1355 157.984 63.1461 157.998 63.1556C158.012 63.1644 158.025 63.1718 158.039 63.1798C158.054 63.1888 158.068 63.1983 158.083 63.2068C158.097 63.2142 158.112 63.2203 158.126 63.2272C158.142 63.2349 158.157 63.2428 158.173 63.2497C158.188 63.2561 158.204 63.2609 158.219 63.2664C158.235 63.2722 158.251 63.2789 158.268 63.2842C158.284 63.2889 158.3 63.2924 158.316 63.2966C158.333 63.3009 158.349 63.3059 158.366 63.3094C158.383 63.3128 158.401 63.3147 158.418 63.3173C158.435 63.3197 158.451 63.3231 158.469 63.325C158.486 63.3266 158.503 63.3268 158.521 63.3276C158.538 63.3284 158.555 63.3303 158.572 63.3303C158.573 63.3303 158.574 63.3303 158.575 63.3303C158.611 63.3303 158.646 63.3284 158.68 63.325C158.695 63.3237 158.71 63.3205 158.725 63.3184C158.744 63.3157 158.764 63.3136 158.782 63.3096C158.802 63.3056 158.821 63.3001 158.84 63.295C158.854 63.2913 158.868 63.2887 158.881 63.2847C158.902 63.2781 158.923 63.2699 158.944 63.2619C158.954 63.2579 158.965 63.2548 158.975 63.2505C158.996 63.2418 159.016 63.2314 159.036 63.2216C159.046 63.2169 159.056 63.2129 159.065 63.2078C159.084 63.1978 159.102 63.1861 159.12 63.175C159.13 63.1689 159.14 63.1633 159.15 63.1567C159.167 63.1458 159.182 63.1334 159.198 63.1212C159.209 63.1135 159.219 63.1063 159.229 63.0981C159.244 63.0865 159.257 63.0732 159.271 63.0605C159.282 63.0512 159.292 63.0422 159.303 63.0327C159.315 63.0199 159.327 63.0062 159.339 62.9929C159.349 62.9821 159.36 62.9715 159.369 62.9603C159.38 62.9473 159.389 62.9336 159.399 62.92C159.409 62.9073 159.419 62.8951 159.428 62.8819C159.437 62.8684 159.445 62.8543 159.454 62.8403C159.462 62.8262 159.472 62.8124 159.48 62.7981C159.488 62.7838 159.494 62.769 159.501 62.7544C159.508 62.7393 159.516 62.7245 159.523 62.7091C159.53 62.6942 159.534 62.6786 159.54 62.6635C159.546 62.6476 159.553 62.632 159.558 62.6155C159.563 62.5999 159.566 62.584 159.57 62.5681C159.575 62.5514 159.58 62.535 159.583 62.518C159.587 62.5021 159.589 62.4854 159.591 62.469C159.594 62.4517 159.597 62.4345 159.599 62.417C159.601 62.4006 159.601 62.3836 159.602 62.3669C159.603 62.3492 159.605 62.332 159.605 62.3142L159.628 53.0173C159.628 52.6664 159.779 52.3287 160.051 52.0666C160.344 51.7855 160.74 51.6302 161.137 51.6423C161.88 51.6643 162.484 52.3038 162.484 53.0695L162.496 62.2575C162.496 62.276 162.497 62.2941 162.499 62.3121C162.499 62.3282 162.499 62.3449 162.501 62.3608C162.503 62.3799 162.507 62.3982 162.51 62.4168C162.512 62.4319 162.514 62.4472 162.516 62.4621C162.521 62.4822 162.527 62.5018 162.532 62.5214C162.535 62.5342 162.538 62.5472 162.542 62.5596C162.549 62.5808 162.557 62.6015 162.565 62.6222C162.569 62.6325 162.572 62.6431 162.576 62.6532C162.586 62.6752 162.597 62.6966 162.608 62.7178C162.612 62.7258 162.616 62.7343 162.62 62.7419C162.632 62.7639 162.646 62.7849 162.659 62.8055C162.663 62.8124 162.667 62.8193 162.672 62.826C162.686 62.8469 162.701 62.8665 162.717 62.8861C162.722 62.8922 162.726 62.8986 162.731 62.9044C162.748 62.9253 162.767 62.9449 162.786 62.9643C162.79 62.9685 162.793 62.9728 162.797 62.9768C162.817 62.9961 162.837 63.0141 162.859 63.0319C162.863 63.0353 162.866 63.039 162.87 63.0425C162.891 63.0597 162.913 63.0753 162.935 63.0907C162.94 63.0942 162.945 63.0979 162.949 63.101C162.972 63.1162 162.995 63.1297 163.019 63.1429C163.024 63.1458 163.029 63.1493 163.034 63.1522C163.059 63.1652 163.084 63.1768 163.11 63.1882C163.115 63.1904 163.119 63.193 163.124 63.1951C163.15 63.206 163.178 63.2153 163.205 63.2243C163.21 63.2256 163.214 63.2277 163.219 63.2293C163.246 63.2375 163.273 63.2442 163.301 63.2503C163.307 63.2513 163.312 63.2532 163.318 63.2545C163.384 63.268 163.454 63.2752 163.525 63.2752C163.525 63.2752 163.526 63.2752 163.526 63.2752C163.544 63.2752 163.562 63.2733 163.58 63.2725C163.597 63.2715 163.614 63.2715 163.631 63.2699C163.65 63.2677 163.667 63.2643 163.686 63.2614C163.701 63.259 163.718 63.2574 163.733 63.2542C163.752 63.2505 163.769 63.2452 163.788 63.2404C163.802 63.2365 163.817 63.2336 163.832 63.229C163.85 63.2235 163.868 63.2163 163.886 63.2094C163.899 63.2044 163.913 63.2004 163.926 63.1949C163.945 63.1869 163.963 63.1776 163.98 63.1689C163.992 63.1631 164.005 63.158 164.016 63.1519C164.034 63.1424 164.051 63.1313 164.068 63.1209C164.079 63.114 164.09 63.1079 164.101 63.1008C164.117 63.0899 164.133 63.0777 164.148 63.0658C164.159 63.0578 164.17 63.0504 164.18 63.0419C164.195 63.03 164.209 63.0165 164.223 63.0035C164.233 62.9945 164.243 62.9858 164.253 62.9762C164.266 62.963 164.279 62.9487 164.291 62.9349C164.301 62.9245 164.311 62.9147 164.32 62.9039C164.331 62.8901 164.341 62.8755 164.352 62.8615C164.361 62.8493 164.37 62.8376 164.379 62.8254C164.389 62.8114 164.397 62.7965 164.405 62.782C164.414 62.7684 164.423 62.7552 164.43 62.7414C164.438 62.7268 164.445 62.7115 164.452 62.6966C164.459 62.6818 164.467 62.6675 164.474 62.6521C164.48 62.6375 164.485 62.6222 164.49 62.607C164.496 62.5909 164.503 62.575 164.508 62.5585C164.513 62.5426 164.516 62.5265 164.521 62.5103C164.525 62.4939 164.53 62.4777 164.533 62.461C164.537 62.4443 164.539 62.4271 164.541 62.4104C164.544 62.3934 164.547 62.3767 164.549 62.3598C164.551 62.3426 164.551 62.3251 164.552 62.3076C164.553 62.2903 164.554 62.2737 164.554 62.2562V50.0074C164.554 49.2251 165.197 48.5779 165.986 48.5644C166.367 48.5591 166.729 48.7049 167.01 48.9781C167.303 49.2625 167.47 49.6555 167.47 50.0562V62.3123C167.47 62.3309 167.472 62.3489 167.473 62.3672C167.474 62.3834 167.474 62.3998 167.476 62.416C167.477 62.434 167.481 62.4515 167.484 62.4692C167.486 62.4854 167.488 62.5016 167.491 62.5172C167.495 62.535 167.5 62.5522 167.505 62.5697C167.509 62.5848 167.512 62.5999 167.517 62.6147C167.523 62.6335 167.53 62.6518 167.537 62.6701C167.542 62.6828 167.546 62.6958 167.551 62.7083C167.56 62.7274 167.569 62.7457 167.579 62.7642C167.584 62.7751 167.589 62.7865 167.595 62.7973C167.605 62.8161 167.617 62.8339 167.628 62.8519C167.634 62.8615 167.64 62.8718 167.646 62.8813C167.659 62.8994 167.672 62.9166 167.686 62.9338C167.693 62.9423 167.699 62.9513 167.706 62.9595C167.72 62.9778 167.737 62.9948 167.753 63.012C167.76 63.0184 167.765 63.0255 167.772 63.0319C167.789 63.0488 167.807 63.0642 167.825 63.0798C167.832 63.0857 167.838 63.092 167.845 63.0976C167.865 63.1143 167.887 63.1294 167.908 63.1445C167.914 63.1482 167.919 63.1525 167.924 63.1564C167.947 63.1718 167.971 63.1859 167.996 63.1994C168 63.2018 168.004 63.2049 168.009 63.2073C168.036 63.2216 168.063 63.2344 168.091 63.2465C168.094 63.2476 168.096 63.2492 168.099 63.2503C168.128 63.2624 168.158 63.273 168.189 63.2826C168.19 63.2834 168.192 63.2839 168.194 63.2844C168.258 63.3043 168.324 63.3178 168.393 63.325C168.394 63.325 168.394 63.325 168.394 63.325C168.429 63.3284 168.464 63.3303 168.5 63.3303C168.5 63.3303 168.5 63.3303 168.501 63.3303C168.519 63.3303 168.537 63.3284 168.555 63.3276C168.572 63.3266 168.589 63.3266 168.605 63.325C168.624 63.3231 168.643 63.3194 168.662 63.3165C168.677 63.3141 168.692 63.3125 168.708 63.3094C168.728 63.3054 168.747 63.2995 168.767 63.2945C168.78 63.2911 168.793 63.2884 168.806 63.2844C168.827 63.2778 168.847 63.2699 168.867 63.2622C168.878 63.2579 168.89 63.2545 168.901 63.25C168.921 63.2412 168.941 63.2312 168.961 63.2211C168.971 63.2163 168.981 63.2124 168.991 63.2071C169.01 63.1965 169.029 63.1845 169.048 63.1726C169.057 63.167 169.066 63.162 169.076 63.1559C169.095 63.1432 169.113 63.1289 169.131 63.1148C169.139 63.109 169.147 63.1034 169.155 63.0973C169.173 63.0825 169.19 63.0663 169.207 63.0504C169.214 63.0441 169.221 63.0382 169.228 63.0316C169.244 63.0152 169.26 62.9977 169.275 62.9799C169.281 62.973 169.288 62.9664 169.294 62.9593C169.309 62.9415 169.322 62.9227 169.336 62.9041C169.341 62.8962 169.348 62.8888 169.353 62.8808C169.366 62.8623 169.377 62.8429 169.389 62.8236C169.394 62.8146 169.4 62.8061 169.405 62.7968C169.416 62.7772 169.425 62.7568 169.434 62.7364C169.439 62.7268 169.444 62.7176 169.448 62.7078C169.457 62.6879 169.464 62.6672 169.471 62.6468C169.475 62.6359 169.48 62.6253 169.483 62.6139C169.489 62.5946 169.493 62.5742 169.499 62.5543C169.501 62.5416 169.506 62.5291 169.508 62.5164C169.512 62.4968 169.515 62.4764 169.518 62.4565C169.519 62.4427 169.522 62.4292 169.524 62.4152C169.526 62.3966 169.526 62.3775 169.527 62.3585C169.527 62.3428 169.529 62.3274 169.529 62.3113V53.9016C169.596 53.3332 170.084 52.8829 170.674 52.8728C170.977 52.8678 171.27 52.986 171.496 53.2062C171.733 53.4363 171.869 53.7543 171.869 54.0784V66.1048L171.869 66.1504C171.875 66.8105 172.313 67.3684 172.959 67.5386C173.601 67.7074 174.257 67.4405 174.594 66.8686L174.6 66.8572C175.407 65.4616 177.564 63.2741 178.194 62.8156C178.267 62.7623 178.35 62.7197 178.443 62.6879C178.853 62.5477 179.367 62.6471 179.723 62.9354C179.891 63.0714 180.082 63.2993 180.04 63.6128Z" fill="white"/>
<path d="M148.918 110.14C147.639 110.14 146.64 109.809 145.922 109.146C145.212 108.483 144.834 107.559 144.788 106.374C144.778 106.103 144.774 105.669 144.774 105.072C144.774 104.475 144.778 104.041 144.788 103.77C144.834 102.613 145.217 101.707 145.936 101.054C146.664 100.391 147.658 100.06 148.918 100.06C149.776 100.06 150.514 100.205 151.13 100.494C151.746 100.783 152.212 101.147 152.53 101.586C152.847 102.015 153.015 102.44 153.034 102.86V102.888C153.034 102.963 153.006 103.028 152.95 103.084C152.894 103.131 152.824 103.154 152.74 103.154H151.298C151.204 103.154 151.134 103.14 151.088 103.112C151.041 103.075 150.999 103.014 150.962 102.93C150.831 102.585 150.602 102.291 150.276 102.048C149.949 101.796 149.496 101.67 148.918 101.67C148.264 101.67 147.751 101.847 147.378 102.202C147.014 102.557 146.818 103.103 146.79 103.84C146.78 104.111 146.776 104.521 146.776 105.072C146.776 105.613 146.78 106.024 146.79 106.304C146.846 107.788 147.564 108.53 148.946 108.53C149.608 108.53 150.14 108.353 150.542 107.998C150.943 107.634 151.144 107.097 151.144 106.388V105.954H149.436C149.333 105.954 149.249 105.921 149.184 105.856C149.128 105.791 149.1 105.707 149.1 105.604V104.862C149.1 104.759 149.128 104.675 149.184 104.61C149.249 104.545 149.333 104.512 149.436 104.512H152.782C152.884 104.512 152.964 104.545 153.02 104.61C153.085 104.675 153.118 104.759 153.118 104.862V106.332C153.118 107.107 152.945 107.783 152.6 108.362C152.264 108.931 151.778 109.37 151.144 109.678C150.509 109.986 149.767 110.14 148.918 110.14ZM156.858 110.14C156.382 110.14 155.944 110.047 155.542 109.86C155.15 109.664 154.838 109.403 154.604 109.076C154.38 108.749 154.268 108.39 154.268 107.998C154.268 107.363 154.525 106.85 155.038 106.458C155.552 106.066 156.256 105.8 157.152 105.66L159.07 105.38V105.086C159.07 104.675 158.968 104.367 158.762 104.162C158.557 103.957 158.226 103.854 157.768 103.854C157.46 103.854 157.208 103.915 157.012 104.036C156.826 104.148 156.676 104.26 156.564 104.372C156.452 104.493 156.378 104.573 156.34 104.61C156.303 104.722 156.233 104.778 156.13 104.778H155.052C154.968 104.778 154.894 104.75 154.828 104.694C154.772 104.638 154.744 104.563 154.744 104.47C154.754 104.237 154.866 103.971 155.08 103.672C155.304 103.373 155.645 103.117 156.102 102.902C156.56 102.687 157.12 102.58 157.782 102.58C158.884 102.58 159.686 102.827 160.19 103.322C160.694 103.817 160.946 104.465 160.946 105.268V109.664C160.946 109.757 160.914 109.837 160.848 109.902C160.792 109.967 160.713 110 160.61 110H159.476C159.383 110 159.304 109.967 159.238 109.902C159.173 109.837 159.14 109.757 159.14 109.664V109.118C158.935 109.417 158.641 109.664 158.258 109.86C157.885 110.047 157.418 110.14 156.858 110.14ZM157.334 108.81C157.848 108.81 158.268 108.642 158.594 108.306C158.921 107.97 159.084 107.48 159.084 106.836V106.542L157.684 106.766C157.143 106.85 156.732 106.985 156.452 107.172C156.182 107.359 156.046 107.587 156.046 107.858C156.046 108.157 156.172 108.39 156.424 108.558C156.676 108.726 156.98 108.81 157.334 108.81ZM163.078 110C162.985 110 162.906 109.967 162.84 109.902C162.775 109.837 162.742 109.757 162.742 109.664V103.056C162.742 102.963 162.775 102.883 162.84 102.818C162.906 102.753 162.985 102.72 163.078 102.72H164.17C164.264 102.72 164.343 102.753 164.408 102.818C164.474 102.883 164.506 102.963 164.506 103.056V103.532C164.992 102.897 165.668 102.58 166.536 102.58C167.572 102.58 168.296 102.995 168.706 103.826C168.93 103.453 169.248 103.154 169.658 102.93C170.069 102.697 170.512 102.58 170.988 102.58C171.754 102.58 172.379 102.841 172.864 103.364C173.35 103.887 173.592 104.647 173.592 105.646V109.664C173.592 109.757 173.56 109.837 173.494 109.902C173.438 109.967 173.359 110 173.256 110H172.108C172.015 110 171.936 109.967 171.87 109.902C171.805 109.837 171.772 109.757 171.772 109.664V105.758C171.772 105.17 171.646 104.745 171.394 104.484C171.152 104.213 170.825 104.078 170.414 104.078C170.05 104.078 169.738 104.213 169.476 104.484C169.224 104.755 169.098 105.179 169.098 105.758V109.664C169.098 109.757 169.066 109.837 169 109.902C168.935 109.967 168.856 110 168.762 110H167.614C167.521 110 167.442 109.967 167.376 109.902C167.311 109.837 167.278 109.757 167.278 109.664V105.758C167.278 105.17 167.148 104.745 166.886 104.484C166.634 104.213 166.312 104.078 165.92 104.078C165.547 104.078 165.23 104.213 164.968 104.484C164.716 104.755 164.59 105.179 164.59 105.758V109.664C164.59 109.757 164.558 109.837 164.492 109.902C164.427 109.967 164.348 110 164.254 110H163.078ZM178.511 110.14C177.475 110.14 176.649 109.841 176.033 109.244C175.427 108.637 175.105 107.788 175.067 106.696L175.053 106.346L175.067 105.996C175.114 104.932 175.441 104.097 176.047 103.49C176.663 102.883 177.485 102.58 178.511 102.58C179.613 102.58 180.462 102.916 181.059 103.588C181.666 104.26 181.969 105.156 181.969 106.276V106.57C181.969 106.663 181.937 106.743 181.871 106.808C181.806 106.873 181.722 106.906 181.619 106.906H176.971V107.018C176.99 107.531 177.13 107.965 177.391 108.32C177.662 108.665 178.031 108.838 178.497 108.838C179.048 108.838 179.491 108.623 179.827 108.194C179.911 108.091 179.977 108.026 180.023 107.998C180.079 107.97 180.159 107.956 180.261 107.956H181.465C181.549 107.956 181.619 107.984 181.675 108.04C181.741 108.087 181.773 108.147 181.773 108.222C181.773 108.446 181.638 108.712 181.367 109.02C181.106 109.319 180.728 109.58 180.233 109.804C179.739 110.028 179.165 110.14 178.511 110.14ZM180.065 105.73V105.688C180.065 105.137 179.925 104.694 179.645 104.358C179.375 104.022 178.997 103.854 178.511 103.854C178.026 103.854 177.648 104.022 177.377 104.358C177.107 104.694 176.971 105.137 176.971 105.688V105.73H180.065ZM186.213 110.14C185.513 110.14 184.925 110.037 184.449 109.832C183.973 109.617 183.619 109.37 183.385 109.09C183.161 108.801 183.049 108.553 183.049 108.348C183.049 108.255 183.082 108.18 183.147 108.124C183.213 108.068 183.287 108.04 183.371 108.04H184.477C184.561 108.04 184.631 108.073 184.687 108.138C184.725 108.166 184.823 108.25 184.981 108.39C185.14 108.539 185.327 108.656 185.541 108.74C185.756 108.824 185.994 108.866 186.255 108.866C186.629 108.866 186.937 108.791 187.179 108.642C187.422 108.493 187.543 108.287 187.543 108.026C187.543 107.83 187.487 107.671 187.375 107.55C187.273 107.429 187.081 107.321 186.801 107.228C186.521 107.125 186.106 107.018 185.555 106.906C184.762 106.738 184.174 106.481 183.791 106.136C183.418 105.791 183.231 105.333 183.231 104.764C183.231 104.391 183.343 104.041 183.567 103.714C183.791 103.378 184.123 103.107 184.561 102.902C185.009 102.687 185.541 102.58 186.157 102.58C186.783 102.58 187.324 102.683 187.781 102.888C188.239 103.084 188.584 103.322 188.817 103.602C189.06 103.873 189.181 104.115 189.181 104.33C189.181 104.414 189.149 104.489 189.083 104.554C189.027 104.61 188.957 104.638 188.873 104.638H187.837C187.763 104.638 187.683 104.605 187.599 104.54C187.534 104.493 187.431 104.405 187.291 104.274C187.151 104.143 186.988 104.041 186.801 103.966C186.615 103.891 186.395 103.854 186.143 103.854C185.798 103.854 185.527 103.929 185.331 104.078C185.145 104.227 185.051 104.423 185.051 104.666C185.051 104.843 185.098 104.988 185.191 105.1C185.285 105.212 185.467 105.319 185.737 105.422C186.008 105.525 186.414 105.627 186.955 105.73C187.851 105.907 188.491 106.183 188.873 106.556C189.265 106.929 189.461 107.387 189.461 107.928C189.461 108.581 189.177 109.113 188.607 109.524C188.038 109.935 187.24 110.14 186.213 110.14Z" fill="#1A7BFF"/>
<path d="M49 59.2778L63.5 48L78 59.2778V77C78 77.8546 77.6605 78.6742 77.0562 79.2785C76.4519 79.8827 75.6324 80.2222 74.7778 80.2222H52.2222C51.3676 80.2222 50.5481 79.8827 49.9438 79.2785C49.3395 78.6742 49 77.8546 49 77V59.2778Z" stroke="#4F4F4F" stroke-width="2" stroke-linecap="round" stroke-linejoin="round"/>
<path d="M58.6667 80.2222V64.1111H68.3334V80.2222" stroke="#4F4F4F" stroke-width="2" stroke-linecap="round" stroke-linejoin="round"/>
<path d="M45.8294 110C45.736 110 45.6567 109.967 45.5914 109.902C45.526 109.837 45.4934 109.757 45.4934 109.664V100.55C45.4934 100.447 45.5214 100.363 45.5774 100.298C45.6427 100.233 45.7267 100.2 45.8294 100.2H47.1034C47.206 100.2 47.2854 100.233 47.3414 100.298C47.4067 100.363 47.4394 100.447 47.4394 100.55V104.162H51.5694V100.55C51.5694 100.447 51.5974 100.363 51.6534 100.298C51.7187 100.233 51.8027 100.2 51.9054 100.2H53.1654C53.268 100.2 53.352 100.233 53.4174 100.298C53.4827 100.363 53.5154 100.447 53.5154 100.55V109.664C53.5154 109.767 53.4827 109.851 53.4174 109.916C53.352 109.972 53.268 110 53.1654 110H51.9054C51.812 110 51.7327 109.967 51.6674 109.902C51.602 109.837 51.5694 109.757 51.5694 109.664V105.912H47.4394V109.664C47.4394 109.757 47.4067 109.837 47.3414 109.902C47.2854 109.967 47.206 110 47.1034 110H45.8294ZM58.7446 110.14C57.6526 110.14 56.8079 109.86 56.2106 109.3C55.6133 108.731 55.2913 107.956 55.2446 106.976L55.2306 106.36L55.2446 105.744C55.2913 104.773 55.6179 104.003 56.2246 103.434C56.8313 102.865 57.6713 102.58 58.7446 102.58C59.8179 102.58 60.6579 102.865 61.2646 103.434C61.8713 104.003 62.1979 104.773 62.2446 105.744C62.2539 105.856 62.2586 106.061 62.2586 106.36C62.2586 106.659 62.2539 106.864 62.2446 106.976C62.1979 107.956 61.8759 108.731 61.2786 109.3C60.6813 109.86 59.8366 110.14 58.7446 110.14ZM58.7446 108.754C59.2393 108.754 59.6219 108.6 59.8926 108.292C60.1633 107.975 60.3126 107.513 60.3406 106.906C60.3499 106.813 60.3546 106.631 60.3546 106.36C60.3546 106.089 60.3499 105.907 60.3406 105.814C60.3126 105.207 60.1633 104.75 59.8926 104.442C59.6219 104.125 59.2393 103.966 58.7446 103.966C58.2499 103.966 57.8673 104.125 57.5966 104.442C57.3259 104.75 57.1766 105.207 57.1486 105.814L57.1346 106.36L57.1486 106.906C57.1766 107.513 57.3259 107.975 57.5966 108.292C57.8673 108.6 58.2499 108.754 58.7446 108.754ZM64.1457 110C64.0524 110 63.9731 109.967 63.9077 109.902C63.8424 109.837 63.8097 109.757 63.8097 109.664V103.056C63.8097 102.963 63.8424 102.883 63.9077 102.818C63.9731 102.753 64.0524 102.72 64.1457 102.72H65.2377C65.3311 102.72 65.4104 102.753 65.4757 102.818C65.5411 102.883 65.5737 102.963 65.5737 103.056V103.532C66.0591 102.897 66.7357 102.58 67.6037 102.58C68.6397 102.58 69.3631 102.995 69.7737 103.826C69.9977 103.453 70.3151 103.154 70.7257 102.93C71.1364 102.697 71.5797 102.58 72.0557 102.58C72.8211 102.58 73.4464 102.841 73.9317 103.364C74.4171 103.887 74.6597 104.647 74.6597 105.646V109.664C74.6597 109.757 74.6271 109.837 74.5617 109.902C74.5057 109.967 74.4264 110 74.3237 110H73.1757C73.0824 110 73.0031 109.967 72.9377 109.902C72.8724 109.837 72.8397 109.757 72.8397 109.664V105.758C72.8397 105.17 72.7137 104.745 72.4617 104.484C72.2191 104.213 71.8924 104.078 71.4817 104.078C71.1177 104.078 70.8051 104.213 70.5437 104.484C70.2917 104.755 70.1657 105.179 70.1657 105.758V109.664C70.1657 109.757 70.1331 109.837 70.0677 109.902C70.0024 109.967 69.9231 110 69.8297 110H68.6817C68.5884 110 68.5091 109.967 68.4437 109.902C68.3784 109.837 68.3457 109.757 68.3457 109.664V105.758C68.3457 105.17 68.2151 104.745 67.9537 104.484C67.7017 104.213 67.3797 104.078 66.9877 104.078C66.6144 104.078 66.2971 104.213 66.0357 104.484C65.7837 104.755 65.6577 105.179 65.6577 105.758V109.664C65.6577 109.757 65.6251 109.837 65.5597 109.902C65.4944 109.967 65.4151 110 65.3217 110H64.1457ZM79.5786 110.14C78.5426 110.14 77.7166 109.841 77.1006 109.244C76.4939 108.637 76.1719 107.788 76.1346 106.696L76.1206 106.346L76.1346 105.996C76.1812 104.932 76.5079 104.097 77.1146 103.49C77.7306 102.883 78.5519 102.58 79.5786 102.58C80.6799 102.58 81.5292 102.916 82.1266 103.588C82.7332 104.26 83.0366 105.156 83.0366 106.276V106.57C83.0366 106.663 83.0039 106.743 82.9386 106.808C82.8732 106.873 82.7892 106.906 82.6866 106.906H78.0386V107.018C78.0572 107.531 78.1972 107.965 78.4586 108.32C78.7292 108.665 79.0979 108.838 79.5646 108.838C80.1152 108.838 80.5586 108.623 80.8946 108.194C80.9786 108.091 81.0439 108.026 81.0906 107.998C81.1466 107.97 81.2259 107.956 81.3286 107.956H82.5326C82.6166 107.956 82.6866 107.984 82.7426 108.04C82.8079 108.087 82.8406 108.147 82.8406 108.222C82.8406 108.446 82.7052 108.712 82.4346 109.02C82.1732 109.319 81.7952 109.58 81.3006 109.804C80.8059 110.028 80.2319 110.14 79.5786 110.14ZM81.1326 105.73V105.688C81.1326 105.137 80.9926 104.694 80.7126 104.358C80.4419 104.022 80.0639 103.854 79.5786 103.854C79.0932 103.854 78.7152 104.022 78.4446 104.358C78.1739 104.694 78.0386 105.137 78.0386 105.688V105.73H81.1326Z" fill="#4F4F4F"/>
<path d="M326.722 110.14C325.891 110.14 325.177 110.014 324.58 109.762C323.982 109.51 323.53 109.179 323.222 108.768C322.914 108.357 322.75 107.914 322.732 107.438C322.732 107.354 322.76 107.284 322.816 107.228C322.872 107.172 322.942 107.144 323.026 107.144H324.272C324.384 107.144 324.468 107.167 324.524 107.214C324.589 107.251 324.65 107.317 324.706 107.41C324.799 107.727 325.014 107.993 325.35 108.208C325.686 108.423 326.143 108.53 326.722 108.53C327.384 108.53 327.884 108.423 328.22 108.208C328.556 107.984 328.724 107.676 328.724 107.284C328.724 107.023 328.635 106.808 328.458 106.64C328.29 106.472 328.033 106.327 327.688 106.206C327.352 106.085 326.848 105.935 326.176 105.758C325.074 105.497 324.267 105.151 323.754 104.722C323.25 104.283 322.998 103.663 322.998 102.86C322.998 102.319 323.142 101.838 323.432 101.418C323.73 100.998 324.155 100.667 324.706 100.424C325.266 100.181 325.914 100.06 326.652 100.06C327.417 100.06 328.08 100.195 328.64 100.466C329.2 100.737 329.624 101.077 329.914 101.488C330.212 101.889 330.371 102.291 330.39 102.692C330.39 102.776 330.362 102.846 330.306 102.902C330.25 102.958 330.18 102.986 330.096 102.986H328.794C328.598 102.986 328.462 102.897 328.388 102.72C328.332 102.421 328.145 102.174 327.828 101.978C327.51 101.773 327.118 101.67 326.652 101.67C326.129 101.67 325.718 101.768 325.42 101.964C325.121 102.16 324.972 102.445 324.972 102.818C324.972 103.079 325.046 103.294 325.196 103.462C325.345 103.63 325.578 103.779 325.896 103.91C326.222 104.041 326.689 104.185 327.296 104.344C328.117 104.531 328.77 104.741 329.256 104.974C329.75 105.207 330.114 105.501 330.348 105.856C330.581 106.211 330.698 106.663 330.698 107.214C330.698 107.811 330.53 108.334 330.194 108.782C329.867 109.221 329.4 109.557 328.794 109.79C328.196 110.023 327.506 110.14 326.722 110.14ZM335.27 110.14C334.234 110.14 333.408 109.841 332.792 109.244C332.185 108.637 331.863 107.788 331.826 106.696L331.812 106.346L331.826 105.996C331.873 104.932 332.199 104.097 332.806 103.49C333.422 102.883 334.243 102.58 335.27 102.58C336.371 102.58 337.221 102.916 337.818 103.588C338.425 104.26 338.728 105.156 338.728 106.276V106.57C338.728 106.663 338.695 106.743 338.63 106.808C338.565 106.873 338.481 106.906 338.378 106.906H333.73V107.018C333.749 107.531 333.889 107.965 334.15 108.32C334.421 108.665 334.789 108.838 335.256 108.838C335.807 108.838 336.25 108.623 336.586 108.194C336.67 108.091 336.735 108.026 336.782 107.998C336.838 107.97 336.917 107.956 337.02 107.956H338.224C338.308 107.956 338.378 107.984 338.434 108.04C338.499 108.087 338.532 108.147 338.532 108.222C338.532 108.446 338.397 108.712 338.126 109.02C337.865 109.319 337.487 109.58 336.992 109.804C336.497 110.028 335.923 110.14 335.27 110.14ZM336.824 105.73V105.688C336.824 105.137 336.684 104.694 336.404 104.358C336.133 104.022 335.755 103.854 335.27 103.854C334.785 103.854 334.407 104.022 334.136 104.358C333.865 104.694 333.73 105.137 333.73 105.688V105.73H336.824ZM343.477 110C342.627 110 341.988 109.781 341.559 109.342C341.139 108.894 340.929 108.241 340.929 107.382V104.204H339.823C339.729 104.204 339.65 104.171 339.585 104.106C339.519 104.031 339.487 103.947 339.487 103.854V103.056C339.487 102.963 339.519 102.883 339.585 102.818C339.65 102.753 339.729 102.72 339.823 102.72H340.929V100.396C340.929 100.293 340.961 100.214 341.027 100.158C341.092 100.093 341.171 100.06 341.265 100.06H342.399C342.501 100.06 342.581 100.093 342.637 100.158C342.702 100.214 342.735 100.293 342.735 100.396V102.72H344.485C344.587 102.72 344.667 102.753 344.723 102.818C344.788 102.874 344.821 102.953 344.821 103.056V103.854C344.821 103.957 344.788 104.041 344.723 104.106C344.657 104.171 344.578 104.204 344.485 104.204H342.735V107.242C342.735 107.643 342.805 107.947 342.945 108.152C343.085 108.357 343.318 108.46 343.645 108.46H344.611C344.704 108.46 344.783 108.493 344.849 108.558C344.914 108.623 344.947 108.703 344.947 108.796V109.664C344.947 109.757 344.914 109.837 344.849 109.902C344.793 109.967 344.713 110 344.611 110H343.477ZM349.479 110C348.629 110 347.99 109.781 347.561 109.342C347.141 108.894 346.931 108.241 346.931 107.382V104.204H345.825C345.731 104.204 345.652 104.171 345.587 104.106C345.521 104.031 345.489 103.947 345.489 103.854V103.056C345.489 102.963 345.521 102.883 345.587 102.818C345.652 102.753 345.731 102.72 345.825 102.72H346.931V100.396C346.931 100.293 346.963 100.214 347.029 100.158C347.094 100.093 347.173 100.06 347.267 100.06H348.401C348.503 100.06 348.583 100.093 348.639 100.158C348.704 100.214 348.737 100.293 348.737 100.396V102.72H350.487C350.589 102.72 350.669 102.753 350.725 102.818C350.79 102.874 350.823 102.953 350.823 103.056V103.854C350.823 103.957 350.79 104.041 350.725 104.106C350.659 104.171 350.58 104.204 350.487 104.204H348.737V107.242C348.737 107.643 348.807 107.947 348.947 108.152C349.087 108.357 349.32 108.46 349.647 108.46H350.613C350.706 108.46 350.785 108.493 350.851 108.558C350.916 108.623 350.949 108.703 350.949 108.796V109.664C350.949 109.757 350.916 109.837 350.851 109.902C350.795 109.967 350.715 110 350.613 110H349.479ZM352.471 101.516C352.377 101.516 352.298 101.483 352.233 101.418C352.167 101.353 352.135 101.273 352.135 101.18V100.172C352.135 100.079 352.167 99.9993 352.233 99.934C352.298 99.8687 352.377 99.836 352.471 99.836H353.745C353.838 99.836 353.917 99.8687 353.983 99.934C354.057 99.9993 354.095 100.079 354.095 100.172V101.18C354.095 101.273 354.062 101.353 353.997 101.418C353.931 101.483 353.847 101.516 353.745 101.516H352.471ZM352.527 110C352.433 110 352.354 109.967 352.289 109.902C352.223 109.837 352.191 109.757 352.191 109.664V103.056C352.191 102.963 352.223 102.883 352.289 102.818C352.354 102.753 352.433 102.72 352.527 102.72H353.689C353.791 102.72 353.871 102.753 353.927 102.818C353.992 102.874 354.025 102.953 354.025 103.056V109.664C354.025 109.757 353.992 109.837 353.927 109.902C353.871 109.967 353.791 110 353.689 110H352.527ZM356.218 110C356.125 110 356.045 109.967 355.98 109.902C355.915 109.837 355.882 109.757 355.882 109.664V103.056C355.882 102.963 355.915 102.883 355.98 102.818C356.045 102.753 356.125 102.72 356.218 102.72H357.366C357.459 102.72 357.539 102.753 357.604 102.818C357.669 102.883 357.702 102.963 357.702 103.056V103.63C358.253 102.93 359.032 102.58 360.04 102.58C360.899 102.58 361.58 102.865 362.084 103.434C362.588 103.994 362.84 104.759 362.84 105.73V109.664C362.84 109.757 362.807 109.837 362.742 109.902C362.686 109.967 362.607 110 362.504 110H361.272C361.179 110 361.099 109.967 361.034 109.902C360.969 109.837 360.936 109.757 360.936 109.664V105.814C360.936 105.263 360.801 104.839 360.53 104.54C360.269 104.232 359.886 104.078 359.382 104.078C358.887 104.078 358.495 104.232 358.206 104.54C357.926 104.848 357.786 105.273 357.786 105.814V109.664C357.786 109.757 357.753 109.837 357.688 109.902C357.632 109.967 357.553 110 357.45 110H356.218ZM367.908 113.08C367.078 113.08 366.406 112.94 365.892 112.66C365.379 112.389 365.015 112.077 364.8 111.722C364.586 111.367 364.478 111.064 364.478 110.812C364.478 110.728 364.511 110.653 364.576 110.588C364.651 110.523 364.73 110.49 364.814 110.49H366.032C366.116 110.49 366.186 110.509 366.242 110.546C366.308 110.593 366.359 110.672 366.396 110.784C366.49 111.036 366.639 111.246 366.844 111.414C367.059 111.591 367.39 111.68 367.838 111.68C368.398 111.68 368.809 111.554 369.07 111.302C369.341 111.05 369.476 110.616 369.476 110V109.048C368.963 109.655 368.244 109.958 367.32 109.958C366.35 109.958 365.617 109.659 365.122 109.062C364.637 108.465 364.376 107.662 364.338 106.654L364.324 106.276L364.338 105.898C364.376 104.909 364.642 104.111 365.136 103.504C365.631 102.888 366.359 102.58 367.32 102.58C367.815 102.58 368.249 102.673 368.622 102.86C368.996 103.047 369.308 103.303 369.56 103.63V103.07C369.56 102.967 369.593 102.883 369.658 102.818C369.724 102.753 369.803 102.72 369.896 102.72H371.03C371.124 102.72 371.203 102.757 371.268 102.832C371.334 102.897 371.366 102.977 371.366 103.07L371.38 109.818C371.38 110.854 371.091 111.657 370.512 112.226C369.934 112.795 369.066 113.08 367.908 113.08ZM367.838 108.474C368.37 108.474 368.767 108.306 369.028 107.97C369.299 107.634 369.448 107.223 369.476 106.738C369.486 106.663 369.49 106.509 369.49 106.276C369.49 106.052 369.486 105.903 369.476 105.828C369.448 105.333 369.299 104.918 369.028 104.582C368.767 104.246 368.37 104.078 367.838 104.078C366.83 104.078 366.298 104.699 366.242 105.94L366.228 106.276C366.228 106.939 366.345 107.471 366.578 107.872C366.821 108.273 367.241 108.474 367.838 108.474ZM376.003 110.14C375.303 110.14 374.715 110.037 374.239 109.832C373.763 109.617 373.409 109.37 373.175 109.09C372.951 108.801 372.839 108.553 372.839 108.348C372.839 108.255 372.872 108.18 372.937 108.124C373.003 108.068 373.077 108.04 373.161 108.04H374.267C374.351 108.04 374.421 108.073 374.477 108.138C374.515 108.166 374.613 108.25 374.771 108.39C374.93 108.539 375.117 108.656 375.331 108.74C375.546 108.824 375.784 108.866 376.045 108.866C376.419 108.866 376.727 108.791 376.969 108.642C377.212 108.493 377.333 108.287 377.333 108.026C377.333 107.83 377.277 107.671 377.165 107.55C377.063 107.429 376.871 107.321 376.591 107.228C376.311 107.125 375.896 107.018 375.345 106.906C374.552 106.738 373.964 106.481 373.581 106.136C373.208 105.791 373.021 105.333 373.021 104.764C373.021 104.391 373.133 104.041 373.357 103.714C373.581 103.378 373.913 103.107 374.351 102.902C374.799 102.687 375.331 102.58 375.947 102.58C376.573 102.58 377.114 102.683 377.571 102.888C378.029 103.084 378.374 103.322 378.607 103.602C378.85 103.873 378.971 104.115 378.971 104.33C378.971 104.414 378.939 104.489 378.873 104.554C378.817 104.61 378.747 104.638 378.663 104.638H377.627C377.553 104.638 377.473 104.605 377.389 104.54C377.324 104.493 377.221 104.405 377.081 104.274C376.941 104.143 376.778 104.041 376.591 103.966C376.405 103.891 376.185 103.854 375.933 103.854C375.588 103.854 375.317 103.929 375.121 104.078C374.935 104.227 374.841 104.423 374.841 104.666C374.841 104.843 374.888 104.988 374.981 105.1C375.075 105.212 375.257 105.319 375.527 105.422C375.798 105.525 376.204 105.627 376.745 105.73C377.641 105.907 378.281 106.183 378.663 106.556C379.055 106.929 379.251 107.387 379.251 107.928C379.251 108.581 378.967 109.113 378.397 109.524C377.828 109.935 377.03 110.14 376.003 110.14Z" fill="#4F4F4F"/>
<path d="M350.5 68.375C353.192 68.375 355.375 66.1924 355.375 63.5C355.375 60.8076 353.192 58.625 350.5 58.625C347.808 58.625 345.625 60.8076 345.625 63.5C345.625 66.1924 347.808 68.375 350.5 68.375Z" stroke="#4F4F4F" stroke-width="2" stroke-linecap="round" stroke-linejoin="round"/>
<path d="M362.525 68.375C362.309 68.8651 362.244 69.4088 362.34 69.936C362.435 70.4631 362.687 70.9495 363.061 71.3325L363.159 71.43C363.461 71.7318 363.701 72.0903 363.864 72.4848C364.028 72.8794 364.112 73.3023 364.112 73.7294C364.112 74.1565 364.028 74.5794 363.864 74.9739C363.701 75.3685 363.461 75.7269 363.159 76.0287C362.857 76.3309 362.498 76.5706 362.104 76.7342C361.709 76.8977 361.286 76.9819 360.859 76.9819C360.432 76.9819 360.009 76.8977 359.615 76.7342C359.22 76.5706 358.862 76.3309 358.56 76.0287L358.462 75.9312C358.08 75.5566 357.593 75.3053 357.066 75.2097C356.539 75.1142 355.995 75.1787 355.505 75.395C355.024 75.601 354.614 75.943 354.326 76.379C354.037 76.815 353.882 77.3258 353.88 77.8487V78.125C353.88 78.987 353.538 79.8136 352.928 80.4231C352.319 81.0326 351.492 81.375 350.63 81.375C349.768 81.375 348.941 81.0326 348.332 80.4231C347.722 79.8136 347.38 78.987 347.38 78.125V77.9787C347.367 77.4409 347.193 76.9192 346.88 76.4816C346.567 76.044 346.13 75.7107 345.625 75.525C345.135 75.3087 344.591 75.2442 344.064 75.3397C343.537 75.4353 343.05 75.6866 342.667 76.0612L342.57 76.1588C342.268 76.4609 341.91 76.7006 341.515 76.8642C341.121 77.0277 340.698 77.1119 340.271 77.1119C339.844 77.1119 339.421 77.0277 339.026 76.8642C338.632 76.7006 338.273 76.4609 337.971 76.1588C337.669 75.8569 337.429 75.4985 337.266 75.1039C337.102 74.7094 337.018 74.2865 337.018 73.8594C337.018 73.4323 337.102 73.0094 337.266 72.6148C337.429 72.2203 337.669 71.8618 337.971 71.56L338.069 71.4625C338.443 71.0795 338.695 70.5931 338.79 70.066C338.886 69.5388 338.821 68.9951 338.605 68.505C338.399 68.0244 338.057 67.6145 337.621 67.3257C337.185 67.037 336.674 66.8821 336.151 66.88H335.875C335.013 66.88 334.186 66.5376 333.577 65.9281C332.967 65.3186 332.625 64.492 332.625 63.63C332.625 62.768 332.967 61.9414 333.577 61.3319C334.186 60.7224 335.013 60.38 335.875 60.38H336.021C336.559 60.3674 337.081 60.1933 337.518 59.8803C337.956 59.5673 338.289 59.1299 338.475 58.625C338.691 58.1349 338.756 57.5912 338.66 57.064C338.565 56.5369 338.313 56.0505 337.939 55.6675L337.841 55.57C337.539 55.2682 337.299 54.9097 337.136 54.5152C336.972 54.1206 336.888 53.6977 336.888 53.2706C336.888 52.8435 336.972 52.4206 337.136 52.0261C337.299 51.6315 337.539 51.2731 337.841 50.9712C338.143 50.6691 338.502 50.4294 338.896 50.2658C339.291 50.1023 339.714 50.0181 340.141 50.0181C340.568 50.0181 340.991 50.1023 341.385 50.2658C341.78 50.4294 342.138 50.6691 342.44 50.9712L342.537 51.0687C342.92 51.4434 343.407 51.6947 343.934 51.7903C344.461 51.8858 345.005 51.8213 345.495 51.605H345.625C346.106 51.399 346.516 51.057 346.804 50.621C347.093 50.185 347.248 49.6742 347.25 49.1513V48.875C347.25 48.013 347.592 47.1864 348.202 46.5769C348.811 45.9674 349.638 45.625 350.5 45.625C351.362 45.625 352.189 45.9674 352.798 46.5769C353.408 47.1864 353.75 48.013 353.75 48.875V49.0212C353.752 49.5442 353.907 50.055 354.196 50.491C354.484 50.927 354.894 51.269 355.375 51.475C355.865 51.6913 356.409 51.7558 356.936 51.6603C357.463 51.5647 357.95 51.3134 358.332 50.9387L358.43 50.8413C358.732 50.5391 359.09 50.2994 359.485 50.1358C359.879 49.9723 360.302 49.8881 360.729 49.8881C361.156 49.8881 361.579 49.9723 361.974 50.1358C362.368 50.2994 362.727 50.5391 363.029 50.8413C363.331 51.1431 363.571 51.5015 363.734 51.8961C363.898 52.2906 363.982 52.7135 363.982 53.1406C363.982 53.5677 363.898 53.9906 363.734 54.3852C363.571 54.7797 363.331 55.1382 363.029 55.44L362.931 55.5375C362.557 55.9205 362.305 56.4069 362.21 56.934C362.114 57.4612 362.179 58.0049 362.395 58.495V58.625C362.601 59.1056 362.943 59.5155 363.379 59.8043C363.815 60.093 364.326 60.2479 364.849 60.25H365.125C365.987 60.25 366.814 60.5924 367.423 61.2019C368.033 61.8114 368.375 62.638 368.375 63.5C368.375 64.362 368.033 65.1886 367.423 65.7981C366.814 66.4076 365.987 66.75 365.125 66.75H364.979C364.456 66.7521 363.945 66.907 363.509 67.1957C363.073 67.4845 362.731 67.8944 362.525 68.375V68.375Z" stroke="#4F4F4F" stroke-width="2" stroke-linecap="round" stroke-linejoin="round"/>
<path d="M242.541 110C242.448 110 242.369 109.967 242.303 109.902C242.238 109.837 242.205 109.757 242.205 109.664V100.55C242.205 100.447 242.233 100.363 242.289 100.298C242.355 100.233 242.439 100.2 242.541 100.2H245.957C248.701 100.2 250.101 101.469 250.157 104.008C250.176 104.549 250.185 104.913 250.185 105.1C250.185 105.277 250.176 105.637 250.157 106.178C250.12 107.485 249.77 108.451 249.107 109.076C248.445 109.692 247.418 110 246.027 110H242.541ZM245.957 108.39C246.741 108.39 247.306 108.217 247.651 107.872C247.997 107.517 248.179 106.939 248.197 106.136C248.216 105.576 248.225 105.226 248.225 105.086C248.225 104.937 248.216 104.591 248.197 104.05C248.179 103.285 247.983 102.72 247.609 102.356C247.245 101.992 246.671 101.81 245.887 101.81H244.151V108.39H245.957ZM253.995 110.14C253.519 110.14 253.08 110.047 252.679 109.86C252.287 109.664 251.974 109.403 251.741 109.076C251.517 108.749 251.405 108.39 251.405 107.998C251.405 107.363 251.662 106.85 252.175 106.458C252.688 106.066 253.393 105.8 254.289 105.66L256.207 105.38V105.086C256.207 104.675 256.104 104.367 255.899 104.162C255.694 103.957 255.362 103.854 254.905 103.854C254.597 103.854 254.345 103.915 254.149 104.036C253.962 104.148 253.813 104.26 253.701 104.372C253.589 104.493 253.514 104.573 253.477 104.61C253.44 104.722 253.37 104.778 253.267 104.778H252.189C252.105 104.778 252.03 104.75 251.965 104.694C251.909 104.638 251.881 104.563 251.881 104.47C251.89 104.237 252.002 103.971 252.217 103.672C252.441 103.373 252.782 103.117 253.239 102.902C253.696 102.687 254.256 102.58 254.919 102.58C256.02 102.58 256.823 102.827 257.327 103.322C257.831 103.817 258.083 104.465 258.083 105.268V109.664C258.083 109.757 258.05 109.837 257.985 109.902C257.929 109.967 257.85 110 257.747 110H256.613C256.52 110 256.44 109.967 256.375 109.902C256.31 109.837 256.277 109.757 256.277 109.664V109.118C256.072 109.417 255.778 109.664 255.395 109.86C255.022 110.047 254.555 110.14 253.995 110.14ZM254.471 108.81C254.984 108.81 255.404 108.642 255.731 108.306C256.058 107.97 256.221 107.48 256.221 106.836V106.542L254.821 106.766C254.28 106.85 253.869 106.985 253.589 107.172C253.318 107.359 253.183 107.587 253.183 107.858C253.183 108.157 253.309 108.39 253.561 108.558C253.813 108.726 254.116 108.81 254.471 108.81ZM263.101 110C262.251 110 261.612 109.781 261.183 109.342C260.763 108.894 260.553 108.241 260.553 107.382V104.204H259.447C259.353 104.204 259.274 104.171 259.209 104.106C259.143 104.031 259.111 103.947 259.111 103.854V103.056C259.111 102.963 259.143 102.883 259.209 102.818C259.274 102.753 259.353 102.72 259.447 102.72H260.553V100.396C260.553 100.293 260.585 100.214 260.651 100.158C260.716 100.093 260.795 100.06 260.889 100.06H262.023C262.125 100.06 262.205 100.093 262.261 100.158C262.326 100.214 262.359 100.293 262.359 100.396V102.72H264.109C264.211 102.72 264.291 102.753 264.347 102.818C264.412 102.874 264.445 102.953 264.445 103.056V103.854C264.445 103.957 264.412 104.041 264.347 104.106C264.281 104.171 264.202 104.204 264.109 104.204H262.359V107.242C262.359 107.643 262.429 107.947 262.569 108.152C262.709 108.357 262.942 108.46 263.269 108.46H264.235C264.328 108.46 264.407 108.493 264.473 108.558C264.538 108.623 264.571 108.703 264.571 108.796V109.664C264.571 109.757 264.538 109.837 264.473 109.902C264.417 109.967 264.337 110 264.235 110H263.101ZM267.927 110.14C267.451 110.14 267.012 110.047 266.611 109.86C266.219 109.664 265.906 109.403 265.673 109.076C265.449 108.749 265.337 108.39 265.337 107.998C265.337 107.363 265.593 106.85 266.107 106.458C266.62 106.066 267.325 105.8 268.221 105.66L270.139 105.38V105.086C270.139 104.675 270.036 104.367 269.831 104.162C269.625 103.957 269.294 103.854 268.837 103.854C268.529 103.854 268.277 103.915 268.081 104.036C267.894 104.148 267.745 104.26 267.633 104.372C267.521 104.493 267.446 104.573 267.409 104.61C267.371 104.722 267.301 104.778 267.199 104.778H266.121C266.037 104.778 265.962 104.75 265.897 104.694C265.841 104.638 265.813 104.563 265.813 104.47C265.822 104.237 265.934 103.971 266.149 103.672C266.373 103.373 266.713 103.117 267.171 102.902C267.628 102.687 268.188 102.58 268.851 102.58C269.952 102.58 270.755 102.827 271.259 103.322C271.763 103.817 272.015 104.465 272.015 105.268V109.664C272.015 109.757 271.982 109.837 271.917 109.902C271.861 109.967 271.781 110 271.679 110H270.545C270.451 110 270.372 109.967 270.307 109.902C270.241 109.837 270.209 109.757 270.209 109.664V109.118C270.003 109.417 269.709 109.664 269.327 109.86C268.953 110.047 268.487 110.14 267.927 110.14ZM268.403 108.81C268.916 108.81 269.336 108.642 269.663 108.306C269.989 107.97 270.153 107.48 270.153 106.836V106.542L268.753 106.766C268.211 106.85 267.801 106.985 267.521 107.172C267.25 107.359 267.115 107.587 267.115 107.858C267.115 108.157 267.241 108.39 267.493 108.558C267.745 108.726 268.048 108.81 268.403 108.81Z" fill="#4F4F4F"/>
<path d="M268 76.5V60.25" stroke="#4F4F4F" stroke-width="2.5" stroke-linecap="round" stroke-linejoin="round"/>
<path d="M257 76.5V50.5" stroke="#4F4F4F" stroke-width="2.5" stroke-linecap="round" stroke-linejoin="round"/>
<path d="M246 76.5V66.75" stroke="#4F4F4F" stroke-width="2.5" stroke-linecap="round" stroke-linejoin="round"/>
<defs>
<filter id="filter0_d" x="-16" y="0" width="448" height="144" filterUnits="userSpaceOnUse" color-interpolation-filters="sRGB">
<feFlood flood-opacity="0" result="BackgroundImageFix"/>
<feColorMatrix in="SourceAlpha" type="matrix" values="0 0 0 0 0 0 0 0 0 0 0 0 0 0 0 0 0 0 127 0"/>
<feOffset dx="2" dy="-5"/>
<feGaussianBlur stdDeviation="8.5"/>
<feColorMatrix type="matrix" values="0 0 0 0 0.329412 0 0 0 0 0.341961 0 0 0 0 0.360784 0 0 0 0.1 0"/>
<feBlend mode="normal" in2="BackgroundImageFix" result="effect1_dropShadow"/>
<feBlend mode="normal" in="SourceGraphic" in2="effect1_dropShadow" result="shape"/>
</filter>
</defs>
</svg>
