<svg width="45" height="45" viewBox="0 0 45 45" fill="none" xmlns="http://www.w3.org/2000/svg">
<path d="M36.026 20.3577C35.1234 19.6273 33.8453 19.3936 32.7692 19.762C32.4809 19.8608 32.2131 19.9994 31.9732 20.1741C31.3615 20.6196 30.0032 21.9569 28.9269 23.2804V13.0784C28.9269 12.2113 28.5668 11.3637 27.939 10.7529C27.3157 10.1465 26.4969 9.81946 25.6378 9.83536C25.2477 9.84225 24.8739 9.91884 24.5285 10.0527V9.0562C24.5285 8.11246 24.1366 7.18992 23.4528 6.52472C22.7751 5.86535 21.8884 5.50996 20.9505 5.52692C19.0806 5.55898 17.554 7.06351 17.498 8.90275C17.0929 8.72095 16.653 8.61891 16.1976 8.6054C15.2477 8.57783 14.3068 8.94171 13.6171 9.60453C12.9416 10.2536 12.5695 11.1104 12.5695 12.0146L12.5671 12.9809C12.2755 12.886 11.9647 12.8341 11.6415 12.8341C10.0107 12.8341 8.68408 14.1472 8.68408 15.7612L8.68515 30.5912L8.68756 30.6615C8.82384 32.6078 9.23535 34.2742 9.91112 35.6147C10.5446 36.8714 11.4284 37.8833 12.5379 38.6222C14.7213 40.0766 17.4185 40.2632 19.5242 40.2632C23.6595 40.2632 27.3797 38.2281 29.2402 34.9503C29.4664 34.5893 30.0627 33.6612 30.7066 32.6603C31.3336 31.685 31.917 30.7863 32.4313 29.9934C32.7141 29.5574 32.9714 29.1609 33.1947 28.8153C34.0265 27.5276 34.913 26.2791 35.8297 25.1043C36.1698 24.6686 36.2745 24.5504 36.2983 24.5244C36.7275 24.0609 36.9979 23.4935 37.0803 22.8831C37.2102 21.9256 36.8257 21.0049 36.026 20.3577ZM35.0402 22.6128C35.0137 22.8079 34.924 22.9928 34.7807 23.1476C34.706 23.2284 34.5724 23.3822 34.2008 23.8587C33.2469 25.0809 32.3248 26.3793 31.4603 27.7176C31.2375 28.0624 30.9813 28.4573 30.6991 28.8922C30.1837 29.6867 29.5995 30.5875 28.97 31.566C28.3111 32.5906 27.7012 33.5396 27.4779 33.8966L27.4546 33.9358C25.9615 36.5818 22.9229 38.2254 19.5245 38.2254C17.7111 38.2254 15.4086 38.0783 13.6873 36.9319C11.9309 35.7621 10.9682 33.6764 10.7438 30.5555L10.7427 15.7615C10.7427 15.2709 11.1459 14.8718 11.6415 14.8718C12.14 14.8718 12.5457 15.2709 12.5457 15.7615V21.3113C12.5457 21.3277 12.5475 21.3436 12.5481 21.36C12.5491 21.3781 12.5491 21.3964 12.551 21.4144C12.5526 21.4305 12.5558 21.4462 12.5582 21.4621C12.5609 21.4798 12.5628 21.4979 12.5663 21.5156C12.5698 21.5315 12.5746 21.5472 12.5786 21.5628C12.5829 21.5795 12.5864 21.5967 12.5917 21.6131C12.5965 21.629 12.603 21.6444 12.6088 21.6598C12.6145 21.6754 12.6196 21.6913 12.6263 21.7067C12.6327 21.7221 12.6404 21.7366 12.6477 21.7515C12.6549 21.7663 12.6616 21.7814 12.6694 21.796C12.6771 21.8103 12.6865 21.8241 12.6951 21.8381C12.7036 21.8522 12.7117 21.8665 12.7208 21.88C12.7301 21.8935 12.7406 21.9063 12.7505 21.9192C12.7604 21.9325 12.7695 21.946 12.7799 21.9585C12.7904 21.9709 12.8019 21.9823 12.8126 21.9942C12.8238 22.0064 12.8346 22.0194 12.8463 22.0311C12.8578 22.0422 12.8699 22.0523 12.8819 22.0631C12.8943 22.0743 12.9063 22.0862 12.9194 22.0968C12.9317 22.1069 12.9449 22.1159 12.9577 22.1254C12.9714 22.1355 12.9845 22.1461 12.9984 22.1556C13.0115 22.1644 13.0254 22.1718 13.0388 22.1798C13.0536 22.1888 13.068 22.1983 13.0833 22.2068C13.0972 22.2142 13.1119 22.2203 13.1261 22.2272C13.1416 22.2349 13.1572 22.2428 13.1732 22.2497C13.188 22.2561 13.2038 22.2609 13.2188 22.2664C13.2351 22.2722 13.2512 22.2789 13.2678 22.2842C13.2835 22.2889 13.3001 22.2924 13.3162 22.2966C13.3331 22.3009 13.3494 22.3059 13.3663 22.3094C13.3834 22.3128 13.4005 22.3147 13.4177 22.3173C13.4348 22.3197 13.4514 22.3231 13.4686 22.325C13.4857 22.3266 13.5034 22.3268 13.5208 22.3276C13.5379 22.3284 13.555 22.3303 13.5724 22.3303C13.5732 22.3303 13.5743 22.3303 13.5751 22.3303C13.6107 22.3303 13.6458 22.3284 13.6803 22.325C13.6953 22.3237 13.7101 22.3205 13.725 22.3184C13.7441 22.3157 13.7636 22.3136 13.7823 22.3096C13.8022 22.3056 13.8212 22.3001 13.8404 22.295C13.8538 22.2913 13.8678 22.2887 13.8809 22.2847C13.9023 22.2781 13.9232 22.2699 13.9441 22.2619C13.9542 22.2579 13.9652 22.2548 13.9754 22.2505C13.9963 22.2418 14.0161 22.2314 14.0362 22.2216C14.0458 22.2169 14.0557 22.2129 14.0653 22.2078C14.0841 22.1978 14.1018 22.1861 14.1197 22.175C14.1299 22.1689 14.1403 22.1633 14.1499 22.1567C14.1665 22.1458 14.1823 22.1334 14.1981 22.1212C14.2086 22.1135 14.2193 22.1063 14.2292 22.0981C14.2439 22.0865 14.2573 22.0732 14.2712 22.0605C14.2817 22.0512 14.2924 22.0422 14.3026 22.0327C14.3154 22.0199 14.3269 22.0062 14.339 21.9929C14.3489 21.9821 14.3596 21.9715 14.369 21.9603C14.3797 21.9473 14.3893 21.9336 14.3995 21.92C14.4091 21.9073 14.4193 21.8951 14.4281 21.8819C14.4375 21.8684 14.4453 21.8543 14.4538 21.8403C14.4624 21.8262 14.4718 21.8124 14.4798 21.7981C14.4876 21.7838 14.494 21.769 14.5012 21.7544C14.5084 21.7393 14.5165 21.7245 14.5232 21.7091C14.5296 21.6942 14.5344 21.6786 14.54 21.6635C14.5462 21.6476 14.5526 21.632 14.558 21.6155C14.5628 21.5999 14.5663 21.584 14.5703 21.5681C14.5746 21.5514 14.5797 21.535 14.5834 21.518C14.5866 21.5021 14.5885 21.4854 14.5909 21.469C14.5939 21.4517 14.5971 21.4345 14.5989 21.417C14.6008 21.4006 14.6008 21.3836 14.6016 21.3669C14.6027 21.3492 14.6046 21.332 14.6046 21.3142L14.6284 12.0173C14.6284 11.6664 14.7786 11.3287 15.0512 11.0666C15.3441 10.7855 15.7403 10.6302 16.1368 10.6423C16.8795 10.6643 17.4838 11.3038 17.4838 12.0695L17.4956 21.2575C17.4956 21.276 17.4975 21.2941 17.4985 21.3121C17.4993 21.3282 17.4993 21.3449 17.501 21.3608C17.5028 21.3799 17.5066 21.3982 17.5095 21.4168C17.5119 21.4319 17.5135 21.4472 17.5165 21.4621C17.5208 21.4822 17.5267 21.5018 17.532 21.5214C17.5355 21.5342 17.5382 21.5472 17.5419 21.5596C17.5486 21.5808 17.5572 21.6015 17.5652 21.6222C17.5692 21.6325 17.5722 21.6431 17.5765 21.6532C17.5861 21.6752 17.5971 21.6966 17.608 21.7178C17.6123 21.7258 17.6155 21.7343 17.6198 21.7419C17.6319 21.7639 17.6455 21.7849 17.6589 21.8055C17.6632 21.8124 17.667 21.8193 17.6715 21.826C17.6857 21.8469 17.7012 21.8665 17.7167 21.8861C17.7216 21.8922 17.7259 21.8986 17.7307 21.9044C17.7481 21.9253 17.7668 21.9449 17.7858 21.9643C17.7898 21.9685 17.7931 21.9728 17.7971 21.9768C17.8166 21.9961 17.8375 22.0141 17.8587 22.0319C17.8627 22.0353 17.8661 22.039 17.8702 22.0425C17.8913 22.0597 17.9133 22.0753 17.9355 22.0907C17.9403 22.0942 17.9446 22.0979 17.9494 22.101C17.9719 22.1162 17.9955 22.1297 18.019 22.1429C18.0241 22.1458 18.0289 22.1493 18.0343 22.1522C18.0589 22.1652 18.0844 22.1768 18.1101 22.1882C18.1149 22.1904 18.1194 22.193 18.1242 22.1951C18.1505 22.206 18.1775 22.2153 18.2048 22.2243C18.2097 22.2256 18.2139 22.2277 18.2188 22.2293C18.2458 22.2375 18.2734 22.2442 18.301 22.2503C18.3066 22.2513 18.3119 22.2532 18.3176 22.2545C18.3845 22.268 18.4538 22.2752 18.5248 22.2752C18.5253 22.2752 18.5259 22.2752 18.5264 22.2752C18.5443 22.2752 18.562 22.2733 18.5797 22.2725C18.5968 22.2715 18.6139 22.2715 18.6308 22.2699C18.6495 22.2677 18.6675 22.2643 18.686 22.2614C18.7015 22.259 18.7176 22.2574 18.7331 22.2542C18.7516 22.2505 18.7695 22.2452 18.7877 22.2404C18.8024 22.2365 18.8172 22.2336 18.8316 22.229C18.8501 22.2235 18.8678 22.2163 18.8857 22.2094C18.8991 22.2044 18.913 22.2004 18.9261 22.1949C18.9446 22.1869 18.9625 22.1776 18.9805 22.1689C18.9923 22.1631 19.0046 22.158 19.0161 22.1519C19.0338 22.1424 19.0506 22.1313 19.0678 22.1209C19.0787 22.114 19.0902 22.1079 19.101 22.1008C19.1173 22.0899 19.1325 22.0777 19.1481 22.0658C19.1588 22.0578 19.1698 22.0504 19.1802 22.0419C19.1949 22.03 19.2089 22.0165 19.223 22.0035C19.2329 21.9945 19.2434 21.9858 19.2533 21.9762C19.2664 21.963 19.2787 21.9487 19.2913 21.9349C19.3007 21.9245 19.3106 21.9147 19.3197 21.9039C19.3309 21.8901 19.3411 21.8755 19.3516 21.8615C19.3607 21.8493 19.3703 21.8376 19.3789 21.8254C19.3885 21.8114 19.3965 21.7965 19.4054 21.782C19.4137 21.7684 19.4228 21.7552 19.4303 21.7414C19.4383 21.7268 19.4447 21.7115 19.452 21.6966C19.4592 21.6818 19.4672 21.6675 19.4736 21.6521C19.4798 21.6375 19.4849 21.6222 19.4902 21.607C19.4964 21.5909 19.5031 21.575 19.5082 21.5585C19.513 21.5426 19.5165 21.5265 19.5208 21.5103C19.5251 21.4939 19.5301 21.4777 19.5333 21.461C19.5368 21.4443 19.5387 21.4271 19.5414 21.4104C19.5438 21.3934 19.5473 21.3767 19.5489 21.3598C19.5508 21.3426 19.5508 21.3251 19.5516 21.3076C19.5526 21.2903 19.5542 21.2737 19.5542 21.2562V9.00743C19.5542 8.22509 20.1968 7.57791 20.9864 7.5644C21.3674 7.5591 21.7293 7.70486 22.0102 7.97809C22.3026 8.26246 22.4702 8.65549 22.4702 9.0562V21.3123C22.4702 21.3309 22.472 21.3489 22.4731 21.3672C22.4739 21.3834 22.4739 21.3998 22.4755 21.416C22.4774 21.434 22.4811 21.4515 22.4838 21.4692C22.4865 21.4854 22.4881 21.5016 22.4913 21.5172C22.4951 21.535 22.5004 21.5522 22.505 21.5697C22.509 21.5848 22.5119 21.5999 22.5168 21.6147C22.5226 21.6335 22.5301 21.6518 22.5371 21.6701C22.5419 21.6828 22.5459 21.6958 22.5513 21.7083C22.5596 21.7274 22.5692 21.7457 22.5786 21.7642C22.584 21.7751 22.5888 21.7865 22.5947 21.7973C22.6048 21.8161 22.6166 21.8339 22.6281 21.8519C22.6343 21.8615 22.6396 21.8718 22.6463 21.8813C22.6587 21.8994 22.6723 21.9166 22.686 21.9338C22.6927 21.9423 22.6985 21.9513 22.7055 21.9595C22.7205 21.9778 22.7371 21.9948 22.7534 22.012C22.7599 22.0184 22.7655 22.0255 22.7719 22.0319C22.7888 22.0488 22.807 22.0642 22.8252 22.0798C22.8319 22.0857 22.838 22.092 22.845 22.0976C22.8653 22.1143 22.8868 22.1294 22.9082 22.1445C22.9135 22.1482 22.9186 22.1525 22.9242 22.1564C22.9473 22.1718 22.9714 22.1859 22.9957 22.1994C23.0003 22.2018 23.0043 22.2049 23.0089 22.2073C23.0356 22.2216 23.0629 22.2344 23.091 22.2465C23.0937 22.2476 23.0961 22.2492 23.0988 22.2503C23.128 22.2624 23.158 22.273 23.1885 22.2826C23.1901 22.2834 23.1917 22.2839 23.1936 22.2844C23.2576 22.3043 23.3242 22.3178 23.3931 22.325C23.3936 22.325 23.3939 22.325 23.3944 22.325C23.4289 22.3284 23.464 22.3303 23.4996 22.3303C23.4999 22.3303 23.5002 22.3303 23.5007 22.3303C23.5189 22.3303 23.5368 22.3284 23.555 22.3276C23.5719 22.3266 23.5888 22.3266 23.6054 22.325C23.6244 22.3231 23.6429 22.3194 23.6616 22.3165C23.6769 22.3141 23.6924 22.3125 23.7076 22.3094C23.7277 22.3054 23.747 22.2995 23.7666 22.2945C23.7797 22.2911 23.7933 22.2884 23.8062 22.2844C23.8271 22.2778 23.8471 22.2699 23.8675 22.2622C23.8785 22.2579 23.8897 22.2545 23.9007 22.25C23.9213 22.2412 23.9411 22.2312 23.9612 22.2211C23.9708 22.2163 23.981 22.2124 23.9906 22.2071C24.0102 22.1965 24.0289 22.1845 24.0479 22.1726C24.057 22.167 24.0664 22.162 24.0755 22.1559C24.0948 22.1432 24.1127 22.1289 24.1309 22.1148C24.1387 22.109 24.147 22.1034 24.1548 22.0973C24.1727 22.0825 24.1896 22.0663 24.2067 22.0504C24.2137 22.0441 24.2212 22.0382 24.2276 22.0316C24.2442 22.0152 24.2597 21.9977 24.275 21.9799C24.2814 21.973 24.2881 21.9664 24.2943 21.9593C24.309 21.9415 24.3224 21.9227 24.3358 21.9041C24.3414 21.8962 24.3478 21.8888 24.3534 21.8808C24.366 21.8623 24.3773 21.8429 24.3885 21.8236C24.3939 21.8146 24.4 21.8061 24.4051 21.7968C24.4158 21.7772 24.4249 21.7568 24.4343 21.7364C24.4388 21.7268 24.4442 21.7176 24.4482 21.7078C24.4568 21.6879 24.4637 21.6672 24.471 21.6468C24.4747 21.6359 24.4795 21.6253 24.483 21.6139C24.4889 21.5946 24.4935 21.5742 24.4985 21.5543C24.5015 21.5416 24.5055 21.5291 24.5082 21.5164C24.5122 21.4968 24.5146 21.4764 24.5176 21.4565C24.5194 21.4427 24.5224 21.4292 24.5237 21.4152C24.5259 21.3966 24.5259 21.3775 24.5267 21.3585C24.5275 21.3428 24.5291 21.3274 24.5291 21.3113V12.9016C24.596 12.3332 25.0836 11.8829 25.6739 11.8728C25.9773 11.8678 26.2702 11.986 26.4964 12.2062C26.7331 12.4363 26.8688 12.7543 26.8688 13.0784V25.1048L26.8694 25.1504C26.875 25.8105 27.313 26.3684 27.9591 26.5386C28.6008 26.7074 29.2565 26.4405 29.5939 25.8686L29.6003 25.8572C30.4072 24.4616 32.5641 22.2741 33.1939 21.8156C33.2667 21.7623 33.3505 21.7197 33.4429 21.6879C33.853 21.5477 34.3674 21.6471 34.7234 21.9354C34.8911 22.0714 35.0825 22.2993 35.0402 22.6128Z" fill="#4F4F4F"/>
</svg>
