<svg width="445" height="144" viewBox="0 0 445 144" fill="none" xmlns="http://www.w3.org/2000/svg">
<g filter="url(#filter0_d)">
<rect x="15" y="22" width="411" height="110" fill="white"/>
</g>
<g clip-path="url(#clip0)">
<path d="M193.026 61.3577C192.124 60.6273 190.846 60.3936 189.769 60.762C189.481 60.8608 189.213 60.9994 188.973 61.1741C188.362 61.6196 187.003 62.9569 185.927 64.2804V54.0784C185.927 53.2113 185.567 52.3637 184.939 51.7529C184.316 51.1465 183.497 50.8195 182.638 50.8354C182.248 50.8422 181.874 50.9188 181.529 51.0527V50.0562C181.529 49.1125 181.137 48.1899 180.453 47.5247C179.775 46.8653 178.889 46.51 177.951 46.5269C176.081 46.559 174.554 48.0635 174.498 49.9028C174.093 49.7209 173.653 49.6189 173.198 49.6054C172.248 49.5778 171.307 49.9417 170.617 50.6045C169.942 51.2536 169.57 52.1104 169.57 53.0146L169.567 53.9809C169.276 53.886 168.965 53.8341 168.642 53.8341C167.011 53.8341 165.684 55.1472 165.684 56.7612L165.685 71.5912L165.688 71.6615C165.824 73.6078 166.236 75.2742 166.911 76.6147C167.545 77.8714 168.429 78.8833 169.538 79.6222C171.722 81.0766 174.419 81.2632 176.524 81.2632C180.66 81.2632 184.38 79.2281 186.24 75.9503C186.467 75.5893 187.063 74.6612 187.707 73.6603C188.334 72.685 188.917 71.7863 189.432 70.9934C189.714 70.5574 189.972 70.1609 190.195 69.8153C191.027 68.5276 191.913 67.2791 192.83 66.1043C193.17 65.6686 193.275 65.5504 193.299 65.5244C193.728 65.0609 193.998 64.4935 194.081 63.8831C194.21 62.9256 193.826 62.0049 193.026 61.3577ZM192.04 63.6128C192.014 63.8079 191.924 63.9928 191.781 64.1476C191.706 64.2284 191.573 64.3822 191.201 64.8587C190.247 66.0809 189.325 67.3793 188.461 68.7176C188.238 69.0624 187.982 69.4573 187.699 69.8922C187.184 70.6867 186.6 71.5875 185.97 72.566C185.311 73.5906 184.701 74.5396 184.478 74.8966L184.455 74.9358C182.962 77.5818 179.923 79.2254 176.525 79.2254C174.711 79.2254 172.409 79.0783 170.688 77.9319C168.931 76.7621 167.968 74.6764 167.744 71.5555L167.743 56.7615C167.743 56.2709 168.146 55.8718 168.642 55.8718C169.14 55.8718 169.546 56.2709 169.546 56.7615V62.3113C169.546 62.3277 169.548 62.3436 169.548 62.36C169.549 62.3781 169.549 62.3964 169.551 62.4144C169.553 62.4305 169.556 62.4462 169.558 62.4621C169.561 62.4798 169.563 62.4979 169.567 62.5156C169.57 62.5315 169.575 62.5472 169.579 62.5628C169.583 62.5795 169.587 62.5967 169.592 62.6131C169.597 62.629 169.603 62.6444 169.609 62.6598C169.615 62.6754 169.62 62.6913 169.626 62.7067C169.633 62.7221 169.641 62.7366 169.648 62.7515C169.655 62.7663 169.662 62.7814 169.67 62.796C169.677 62.8103 169.687 62.8241 169.695 62.8381C169.704 62.8522 169.712 62.8665 169.721 62.88C169.73 62.8935 169.741 62.9063 169.751 62.9192C169.761 62.9325 169.77 62.946 169.78 62.9585C169.791 62.9709 169.802 62.9823 169.813 62.9942C169.824 63.0064 169.835 63.0194 169.847 63.0311C169.858 63.0422 169.87 63.0523 169.882 63.0631C169.895 63.0743 169.907 63.0862 169.92 63.0968C169.932 63.1069 169.945 63.1159 169.958 63.1254C169.972 63.1355 169.985 63.1461 169.999 63.1556C170.012 63.1644 170.026 63.1718 170.039 63.1798C170.054 63.1888 170.068 63.1983 170.084 63.2068C170.097 63.2142 170.112 63.2203 170.126 63.2272C170.142 63.2349 170.157 63.2428 170.173 63.2497C170.188 63.2561 170.204 63.2609 170.219 63.2664C170.235 63.2722 170.251 63.2789 170.268 63.2842C170.284 63.2889 170.3 63.2924 170.316 63.2966C170.333 63.3009 170.35 63.3059 170.367 63.3094C170.384 63.3128 170.401 63.3147 170.418 63.3173C170.435 63.3197 170.452 63.3231 170.469 63.325C170.486 63.3266 170.504 63.3268 170.521 63.3276C170.538 63.3284 170.555 63.3303 170.573 63.3303C170.573 63.3303 170.575 63.3303 170.575 63.3303C170.611 63.3303 170.646 63.3284 170.681 63.325C170.696 63.3237 170.71 63.3205 170.725 63.3184C170.744 63.3157 170.764 63.3136 170.783 63.3096C170.802 63.3056 170.821 63.3001 170.841 63.295C170.854 63.2913 170.868 63.2887 170.881 63.2847C170.903 63.2781 170.923 63.2699 170.944 63.2619C170.954 63.2579 170.965 63.2548 170.976 63.2505C170.997 63.2418 171.016 63.2314 171.036 63.2216C171.046 63.2169 171.056 63.2129 171.066 63.2078C171.084 63.1978 171.102 63.1861 171.12 63.175C171.13 63.1689 171.141 63.1633 171.15 63.1567C171.167 63.1458 171.183 63.1334 171.198 63.1212C171.209 63.1135 171.22 63.1063 171.229 63.0981C171.244 63.0865 171.258 63.0732 171.271 63.0605C171.282 63.0512 171.293 63.0422 171.303 63.0327C171.316 63.0199 171.327 63.0062 171.339 62.9929C171.349 62.9821 171.36 62.9715 171.369 62.9603C171.38 62.9473 171.39 62.9336 171.4 62.92C171.409 62.9073 171.42 62.8951 171.428 62.8819C171.438 62.8684 171.446 62.8543 171.454 62.8403C171.463 62.8262 171.472 62.8124 171.48 62.7981C171.488 62.7838 171.494 62.769 171.501 62.7544C171.509 62.7393 171.517 62.7245 171.523 62.7091C171.53 62.6942 171.535 62.6786 171.54 62.6635C171.546 62.6476 171.553 62.632 171.558 62.6155C171.563 62.5999 171.567 62.584 171.571 62.5681C171.575 62.5514 171.58 62.535 171.584 62.518C171.587 62.5021 171.589 62.4854 171.591 62.469C171.594 62.4517 171.597 62.4345 171.599 62.417C171.601 62.4006 171.601 62.3836 171.602 62.3669C171.603 62.3492 171.605 62.332 171.605 62.3142L171.629 53.0173C171.629 52.6664 171.779 52.3287 172.051 52.0666C172.344 51.7855 172.741 51.6302 173.137 51.6423C173.88 51.6643 174.484 52.3038 174.484 53.0695L174.496 62.2575C174.496 62.276 174.498 62.2941 174.499 62.3121C174.5 62.3282 174.5 62.3449 174.501 62.3608C174.503 62.3799 174.507 62.3982 174.51 62.4168C174.512 62.4319 174.514 62.4472 174.517 62.4621C174.521 62.4822 174.527 62.5018 174.532 62.5214C174.536 62.5342 174.538 62.5472 174.542 62.5596C174.549 62.5808 174.557 62.6015 174.565 62.6222C174.569 62.6325 174.572 62.6431 174.577 62.6532C174.586 62.6752 174.597 62.6966 174.608 62.7178C174.613 62.7258 174.616 62.7343 174.62 62.7419C174.632 62.7639 174.646 62.7849 174.659 62.8055C174.663 62.8124 174.667 62.8193 174.672 62.826C174.686 62.8469 174.701 62.8665 174.717 62.8861C174.722 62.8922 174.726 62.8986 174.731 62.9044C174.748 62.9253 174.767 62.9449 174.786 62.9643C174.79 62.9685 174.793 62.9728 174.797 62.9768C174.817 62.9961 174.838 63.0141 174.859 63.0319C174.863 63.0353 174.866 63.039 174.87 63.0425C174.892 63.0597 174.914 63.0753 174.936 63.0907C174.941 63.0942 174.945 63.0979 174.95 63.101C174.972 63.1162 174.996 63.1297 175.019 63.1429C175.024 63.1458 175.029 63.1493 175.035 63.1522C175.059 63.1652 175.085 63.1768 175.11 63.1882C175.115 63.1904 175.12 63.193 175.124 63.1951C175.151 63.206 175.178 63.2153 175.205 63.2243C175.21 63.2256 175.214 63.2277 175.219 63.2293C175.246 63.2375 175.274 63.2442 175.301 63.2503C175.307 63.2513 175.312 63.2532 175.318 63.2545C175.385 63.268 175.454 63.2752 175.525 63.2752C175.526 63.2752 175.526 63.2752 175.527 63.2752C175.545 63.2752 175.562 63.2733 175.58 63.2725C175.597 63.2715 175.614 63.2715 175.631 63.2699C175.65 63.2677 175.668 63.2643 175.686 63.2614C175.702 63.259 175.718 63.2574 175.733 63.2542C175.752 63.2505 175.77 63.2452 175.788 63.2404C175.803 63.2365 175.817 63.2336 175.832 63.229C175.85 63.2235 175.868 63.2163 175.886 63.2094C175.899 63.2044 175.913 63.2004 175.926 63.1949C175.945 63.1869 175.963 63.1776 175.981 63.1689C175.992 63.1631 176.005 63.158 176.016 63.1519C176.034 63.1424 176.051 63.1313 176.068 63.1209C176.079 63.114 176.09 63.1079 176.101 63.1008C176.118 63.0899 176.133 63.0777 176.148 63.0658C176.159 63.0578 176.17 63.0504 176.18 63.0419C176.195 63.03 176.209 63.0165 176.223 63.0035C176.233 62.9945 176.244 62.9858 176.254 62.9762C176.267 62.963 176.279 62.9487 176.292 62.9349C176.301 62.9245 176.311 62.9147 176.32 62.9039C176.331 62.8901 176.341 62.8755 176.352 62.8615C176.361 62.8493 176.371 62.8376 176.379 62.8254C176.389 62.8114 176.397 62.7965 176.406 62.782C176.414 62.7684 176.423 62.7552 176.431 62.7414C176.439 62.7268 176.445 62.7115 176.452 62.6966C176.459 62.6818 176.467 62.6675 176.474 62.6521C176.48 62.6375 176.485 62.6222 176.49 62.607C176.497 62.5909 176.503 62.575 176.508 62.5585C176.513 62.5426 176.517 62.5265 176.521 62.5103C176.525 62.4939 176.53 62.4777 176.534 62.461C176.537 62.4443 176.539 62.4271 176.542 62.4104C176.544 62.3934 176.548 62.3767 176.549 62.3598C176.551 62.3426 176.551 62.3251 176.552 62.3076C176.553 62.2903 176.554 62.2737 176.554 62.2562V50.0074C176.554 49.2251 177.197 48.5779 177.987 48.5644C178.368 48.5591 178.73 48.7049 179.01 48.9781C179.303 49.2625 179.47 49.6555 179.47 50.0562V62.3123C179.47 62.3309 179.472 62.3489 179.473 62.3672C179.474 62.3834 179.474 62.3998 179.476 62.416C179.478 62.434 179.481 62.4515 179.484 62.4692C179.487 62.4854 179.488 62.5016 179.492 62.5172C179.495 62.535 179.501 62.5522 179.505 62.5697C179.509 62.5848 179.512 62.5999 179.517 62.6147C179.523 62.6335 179.53 62.6518 179.537 62.6701C179.542 62.6828 179.546 62.6958 179.552 62.7083C179.56 62.7274 179.569 62.7457 179.579 62.7642C179.584 62.7751 179.589 62.7865 179.595 62.7973C179.605 62.8161 179.617 62.8339 179.628 62.8519C179.635 62.8615 179.64 62.8718 179.647 62.8813C179.659 62.8994 179.673 62.9166 179.686 62.9338C179.693 62.9423 179.699 62.9513 179.706 62.9595C179.721 62.9778 179.737 62.9948 179.754 63.012C179.76 63.0184 179.766 63.0255 179.772 63.0319C179.789 63.0488 179.807 63.0642 179.825 63.0798C179.832 63.0857 179.838 63.092 179.845 63.0976C179.866 63.1143 179.887 63.1294 179.908 63.1445C179.914 63.1482 179.919 63.1525 179.924 63.1564C179.948 63.1718 179.972 63.1859 179.996 63.1994C180.001 63.2018 180.005 63.2049 180.009 63.2073C180.036 63.2216 180.063 63.2344 180.091 63.2465C180.094 63.2476 180.096 63.2492 180.099 63.2503C180.128 63.2624 180.158 63.273 180.189 63.2826C180.19 63.2834 180.192 63.2839 180.194 63.2844C180.258 63.3043 180.324 63.3178 180.393 63.325C180.394 63.325 180.394 63.325 180.395 63.325C180.429 63.3284 180.464 63.3303 180.5 63.3303C180.5 63.3303 180.5 63.3303 180.501 63.3303C180.519 63.3303 180.537 63.3284 180.555 63.3276C180.572 63.3266 180.589 63.3266 180.606 63.325C180.625 63.3231 180.643 63.3194 180.662 63.3165C180.677 63.3141 180.693 63.3125 180.708 63.3094C180.728 63.3054 180.747 63.2995 180.767 63.2945C180.78 63.2911 180.794 63.2884 180.806 63.2844C180.827 63.2778 180.847 63.2699 180.868 63.2622C180.879 63.2579 180.89 63.2545 180.901 63.25C180.922 63.2412 180.941 63.2312 180.961 63.2211C180.971 63.2163 180.981 63.2124 180.991 63.2071C181.01 63.1965 181.029 63.1845 181.048 63.1726C181.057 63.167 181.067 63.162 181.076 63.1559C181.095 63.1432 181.113 63.1289 181.131 63.1148C181.139 63.109 181.147 63.1034 181.155 63.0973C181.173 63.0825 181.19 63.0663 181.207 63.0504C181.214 63.0441 181.221 63.0382 181.228 63.0316C181.244 63.0152 181.26 62.9977 181.275 62.9799C181.282 62.973 181.288 62.9664 181.295 62.9593C181.309 62.9415 181.323 62.9227 181.336 62.9041C181.342 62.8962 181.348 62.8888 181.354 62.8808C181.366 62.8623 181.378 62.8429 181.389 62.8236C181.394 62.8146 181.4 62.8061 181.405 62.7968C181.416 62.7772 181.425 62.7568 181.435 62.7364C181.439 62.7268 181.444 62.7176 181.448 62.7078C181.457 62.6879 181.464 62.6672 181.471 62.6468C181.475 62.6359 181.48 62.6253 181.483 62.6139C181.489 62.5946 181.494 62.5742 181.499 62.5543C181.502 62.5416 181.506 62.5291 181.508 62.5164C181.512 62.4968 181.515 62.4764 181.518 62.4565C181.52 62.4427 181.523 62.4292 181.524 62.4152C181.526 62.3966 181.526 62.3775 181.527 62.3585C181.528 62.3428 181.529 62.3274 181.529 62.3113V53.9016C181.596 53.3332 182.084 52.8829 182.674 52.8728C182.978 52.8678 183.27 52.986 183.497 53.2062C183.733 53.4363 183.869 53.7543 183.869 54.0784V66.1048L183.87 66.1504C183.875 66.8105 184.313 67.3684 184.959 67.5386C185.601 67.7074 186.257 67.4405 186.594 66.8686L186.601 66.8572C187.407 65.4616 189.564 63.2741 190.194 62.8156C190.267 62.7623 190.351 62.7197 190.443 62.6879C190.853 62.5477 191.368 62.6471 191.724 62.9354C191.891 63.0714 192.083 63.2993 192.04 63.6128Z" fill="#4F4F4F"/>
</g>
<path d="M161.918 107.14C160.639 107.14 159.64 106.809 158.922 106.146C158.212 105.483 157.834 104.559 157.788 103.374C157.778 103.103 157.774 102.669 157.774 102.072C157.774 101.475 157.778 101.041 157.788 100.77C157.834 99.6127 158.217 98.7073 158.936 98.054C159.664 97.3913 160.658 97.06 161.918 97.06C162.776 97.06 163.514 97.2047 164.13 97.494C164.746 97.7833 165.212 98.1473 165.53 98.586C165.847 99.0153 166.015 99.44 166.034 99.86V99.888C166.034 99.9627 166.006 100.028 165.95 100.084C165.894 100.131 165.824 100.154 165.74 100.154H164.298C164.204 100.154 164.134 100.14 164.088 100.112C164.041 100.075 163.999 100.014 163.962 99.93C163.831 99.5847 163.602 99.2907 163.276 99.048C162.949 98.796 162.496 98.67 161.918 98.67C161.264 98.67 160.751 98.8473 160.378 99.202C160.014 99.5567 159.818 100.103 159.79 100.84C159.78 101.111 159.776 101.521 159.776 102.072C159.776 102.613 159.78 103.024 159.79 103.304C159.846 104.788 160.564 105.53 161.946 105.53C162.608 105.53 163.14 105.353 163.542 104.998C163.943 104.634 164.144 104.097 164.144 103.388V102.954H162.436C162.333 102.954 162.249 102.921 162.184 102.856C162.128 102.791 162.1 102.707 162.1 102.604V101.862C162.1 101.759 162.128 101.675 162.184 101.61C162.249 101.545 162.333 101.512 162.436 101.512H165.782C165.884 101.512 165.964 101.545 166.02 101.61C166.085 101.675 166.118 101.759 166.118 101.862V103.332C166.118 104.107 165.945 104.783 165.6 105.362C165.264 105.931 164.778 106.37 164.144 106.678C163.509 106.986 162.767 107.14 161.918 107.14ZM169.858 107.14C169.382 107.14 168.944 107.047 168.542 106.86C168.15 106.664 167.838 106.403 167.604 106.076C167.38 105.749 167.268 105.39 167.268 104.998C167.268 104.363 167.525 103.85 168.038 103.458C168.552 103.066 169.256 102.8 170.152 102.66L172.07 102.38V102.086C172.07 101.675 171.968 101.367 171.762 101.162C171.557 100.957 171.226 100.854 170.768 100.854C170.46 100.854 170.208 100.915 170.012 101.036C169.826 101.148 169.676 101.26 169.564 101.372C169.452 101.493 169.378 101.573 169.34 101.61C169.303 101.722 169.233 101.778 169.13 101.778H168.052C167.968 101.778 167.894 101.75 167.828 101.694C167.772 101.638 167.744 101.563 167.744 101.47C167.754 101.237 167.866 100.971 168.08 100.672C168.304 100.373 168.645 100.117 169.102 99.902C169.56 99.6873 170.12 99.58 170.782 99.58C171.884 99.58 172.686 99.8273 173.19 100.322C173.694 100.817 173.946 101.465 173.946 102.268V106.664C173.946 106.757 173.914 106.837 173.848 106.902C173.792 106.967 173.713 107 173.61 107H172.476C172.383 107 172.304 106.967 172.238 106.902C172.173 106.837 172.14 106.757 172.14 106.664V106.118C171.935 106.417 171.641 106.664 171.258 106.86C170.885 107.047 170.418 107.14 169.858 107.14ZM170.334 105.81C170.848 105.81 171.268 105.642 171.594 105.306C171.921 104.97 172.084 104.48 172.084 103.836V103.542L170.684 103.766C170.143 103.85 169.732 103.985 169.452 104.172C169.182 104.359 169.046 104.587 169.046 104.858C169.046 105.157 169.172 105.39 169.424 105.558C169.676 105.726 169.98 105.81 170.334 105.81ZM176.078 107C175.985 107 175.906 106.967 175.84 106.902C175.775 106.837 175.742 106.757 175.742 106.664V100.056C175.742 99.9627 175.775 99.8833 175.84 99.818C175.906 99.7527 175.985 99.72 176.078 99.72H177.17C177.264 99.72 177.343 99.7527 177.408 99.818C177.474 99.8833 177.506 99.9627 177.506 100.056V100.532C177.992 99.8973 178.668 99.58 179.536 99.58C180.572 99.58 181.296 99.9953 181.706 100.826C181.93 100.453 182.248 100.154 182.658 99.93C183.069 99.6967 183.512 99.58 183.988 99.58C184.754 99.58 185.379 99.8413 185.864 100.364C186.35 100.887 186.592 101.647 186.592 102.646V106.664C186.592 106.757 186.56 106.837 186.494 106.902C186.438 106.967 186.359 107 186.256 107H185.108C185.015 107 184.936 106.967 184.87 106.902C184.805 106.837 184.772 106.757 184.772 106.664V102.758C184.772 102.17 184.646 101.745 184.394 101.484C184.152 101.213 183.825 101.078 183.414 101.078C183.05 101.078 182.738 101.213 182.476 101.484C182.224 101.755 182.098 102.179 182.098 102.758V106.664C182.098 106.757 182.066 106.837 182 106.902C181.935 106.967 181.856 107 181.762 107H180.614C180.521 107 180.442 106.967 180.376 106.902C180.311 106.837 180.278 106.757 180.278 106.664V102.758C180.278 102.17 180.148 101.745 179.886 101.484C179.634 101.213 179.312 101.078 178.92 101.078C178.547 101.078 178.23 101.213 177.968 101.484C177.716 101.755 177.59 102.179 177.59 102.758V106.664C177.59 106.757 177.558 106.837 177.492 106.902C177.427 106.967 177.348 107 177.254 107H176.078ZM191.511 107.14C190.475 107.14 189.649 106.841 189.033 106.244C188.427 105.637 188.105 104.788 188.067 103.696L188.053 103.346L188.067 102.996C188.114 101.932 188.441 101.097 189.047 100.49C189.663 99.8833 190.485 99.58 191.511 99.58C192.613 99.58 193.462 99.916 194.059 100.588C194.666 101.26 194.969 102.156 194.969 103.276V103.57C194.969 103.663 194.937 103.743 194.871 103.808C194.806 103.873 194.722 103.906 194.619 103.906H189.971V104.018C189.99 104.531 190.13 104.965 190.391 105.32C190.662 105.665 191.031 105.838 191.497 105.838C192.048 105.838 192.491 105.623 192.827 105.194C192.911 105.091 192.977 105.026 193.023 104.998C193.079 104.97 193.159 104.956 193.261 104.956H194.465C194.549 104.956 194.619 104.984 194.675 105.04C194.741 105.087 194.773 105.147 194.773 105.222C194.773 105.446 194.638 105.712 194.367 106.02C194.106 106.319 193.728 106.58 193.233 106.804C192.739 107.028 192.165 107.14 191.511 107.14ZM193.065 102.73V102.688C193.065 102.137 192.925 101.694 192.645 101.358C192.375 101.022 191.997 100.854 191.511 100.854C191.026 100.854 190.648 101.022 190.377 101.358C190.107 101.694 189.971 102.137 189.971 102.688V102.73H193.065ZM199.213 107.14C198.513 107.14 197.925 107.037 197.449 106.832C196.973 106.617 196.619 106.37 196.385 106.09C196.161 105.801 196.049 105.553 196.049 105.348C196.049 105.255 196.082 105.18 196.147 105.124C196.213 105.068 196.287 105.04 196.371 105.04H197.477C197.561 105.04 197.631 105.073 197.687 105.138C197.725 105.166 197.823 105.25 197.981 105.39C198.14 105.539 198.327 105.656 198.541 105.74C198.756 105.824 198.994 105.866 199.255 105.866C199.629 105.866 199.937 105.791 200.179 105.642C200.422 105.493 200.543 105.287 200.543 105.026C200.543 104.83 200.487 104.671 200.375 104.55C200.273 104.429 200.081 104.321 199.801 104.228C199.521 104.125 199.106 104.018 198.555 103.906C197.762 103.738 197.174 103.481 196.791 103.136C196.418 102.791 196.231 102.333 196.231 101.764C196.231 101.391 196.343 101.041 196.567 100.714C196.791 100.378 197.123 100.107 197.561 99.902C198.009 99.6873 198.541 99.58 199.157 99.58C199.783 99.58 200.324 99.6827 200.781 99.888C201.239 100.084 201.584 100.322 201.817 100.602C202.06 100.873 202.181 101.115 202.181 101.33C202.181 101.414 202.149 101.489 202.083 101.554C202.027 101.61 201.957 101.638 201.873 101.638H200.837C200.763 101.638 200.683 101.605 200.599 101.54C200.534 101.493 200.431 101.405 200.291 101.274C200.151 101.143 199.988 101.041 199.801 100.966C199.615 100.891 199.395 100.854 199.143 100.854C198.798 100.854 198.527 100.929 198.331 101.078C198.145 101.227 198.051 101.423 198.051 101.666C198.051 101.843 198.098 101.988 198.191 102.1C198.285 102.212 198.467 102.319 198.737 102.422C199.008 102.525 199.414 102.627 199.955 102.73C200.851 102.907 201.491 103.183 201.873 103.556C202.265 103.929 202.461 104.387 202.461 104.928C202.461 105.581 202.177 106.113 201.607 106.524C201.038 106.935 200.24 107.14 199.213 107.14Z" fill="#4F4F4F"/>
<rect x="49" y="36" width="56" height="56" rx="18" fill="#1A7BFF"/>
<path d="M62 59.2778L76.5 48L91 59.2778V77C91 77.8546 90.6605 78.6742 90.0562 79.2785C89.4519 79.8827 88.6324 80.2222 87.7778 80.2222H65.2222C64.3676 80.2222 63.5481 79.8827 62.9438 79.2785C62.3395 78.6742 62 77.8546 62 77V59.2778Z" stroke="white" stroke-width="2" stroke-linecap="round" stroke-linejoin="round"/>
<path d="M71.6667 80.2222V64.1111H81.3334V80.2222" stroke="white" stroke-width="2" stroke-linecap="round" stroke-linejoin="round"/>
<path d="M58.8294 110C58.736 110 58.6567 109.967 58.5914 109.902C58.526 109.837 58.4934 109.757 58.4934 109.664V100.55C58.4934 100.447 58.5214 100.363 58.5774 100.298C58.6427 100.233 58.7267 100.2 58.8294 100.2H60.1034C60.206 100.2 60.2854 100.233 60.3414 100.298C60.4067 100.363 60.4394 100.447 60.4394 100.55V104.162H64.5694V100.55C64.5694 100.447 64.5974 100.363 64.6534 100.298C64.7187 100.233 64.8027 100.2 64.9054 100.2H66.1654C66.268 100.2 66.352 100.233 66.4174 100.298C66.4827 100.363 66.5154 100.447 66.5154 100.55V109.664C66.5154 109.767 66.4827 109.851 66.4174 109.916C66.352 109.972 66.268 110 66.1654 110H64.9054C64.812 110 64.7327 109.967 64.6674 109.902C64.602 109.837 64.5694 109.757 64.5694 109.664V105.912H60.4394V109.664C60.4394 109.757 60.4067 109.837 60.3414 109.902C60.2854 109.967 60.206 110 60.1034 110H58.8294ZM71.7446 110.14C70.6526 110.14 69.8079 109.86 69.2106 109.3C68.6133 108.731 68.2913 107.956 68.2446 106.976L68.2306 106.36L68.2446 105.744C68.2913 104.773 68.6179 104.003 69.2246 103.434C69.8313 102.865 70.6713 102.58 71.7446 102.58C72.8179 102.58 73.6579 102.865 74.2646 103.434C74.8713 104.003 75.1979 104.773 75.2446 105.744C75.2539 105.856 75.2586 106.061 75.2586 106.36C75.2586 106.659 75.2539 106.864 75.2446 106.976C75.1979 107.956 74.8759 108.731 74.2786 109.3C73.6813 109.86 72.8366 110.14 71.7446 110.14ZM71.7446 108.754C72.2393 108.754 72.6219 108.6 72.8926 108.292C73.1633 107.975 73.3126 107.513 73.3406 106.906C73.3499 106.813 73.3546 106.631 73.3546 106.36C73.3546 106.089 73.3499 105.907 73.3406 105.814C73.3126 105.207 73.1633 104.75 72.8926 104.442C72.6219 104.125 72.2393 103.966 71.7446 103.966C71.2499 103.966 70.8673 104.125 70.5966 104.442C70.3259 104.75 70.1766 105.207 70.1486 105.814L70.1346 106.36L70.1486 106.906C70.1766 107.513 70.3259 107.975 70.5966 108.292C70.8673 108.6 71.2499 108.754 71.7446 108.754ZM77.1457 110C77.0524 110 76.9731 109.967 76.9077 109.902C76.8424 109.837 76.8097 109.757 76.8097 109.664V103.056C76.8097 102.963 76.8424 102.883 76.9077 102.818C76.9731 102.753 77.0524 102.72 77.1457 102.72H78.2377C78.3311 102.72 78.4104 102.753 78.4757 102.818C78.5411 102.883 78.5737 102.963 78.5737 103.056V103.532C79.0591 102.897 79.7357 102.58 80.6037 102.58C81.6397 102.58 82.3631 102.995 82.7737 103.826C82.9977 103.453 83.3151 103.154 83.7257 102.93C84.1364 102.697 84.5797 102.58 85.0557 102.58C85.8211 102.58 86.4464 102.841 86.9317 103.364C87.4171 103.887 87.6597 104.647 87.6597 105.646V109.664C87.6597 109.757 87.6271 109.837 87.5617 109.902C87.5057 109.967 87.4264 110 87.3237 110H86.1757C86.0824 110 86.0031 109.967 85.9377 109.902C85.8724 109.837 85.8397 109.757 85.8397 109.664V105.758C85.8397 105.17 85.7137 104.745 85.4617 104.484C85.2191 104.213 84.8924 104.078 84.4817 104.078C84.1177 104.078 83.8051 104.213 83.5437 104.484C83.2917 104.755 83.1657 105.179 83.1657 105.758V109.664C83.1657 109.757 83.1331 109.837 83.0677 109.902C83.0024 109.967 82.9231 110 82.8297 110H81.6817C81.5884 110 81.5091 109.967 81.4437 109.902C81.3784 109.837 81.3457 109.757 81.3457 109.664V105.758C81.3457 105.17 81.2151 104.745 80.9537 104.484C80.7017 104.213 80.3797 104.078 79.9877 104.078C79.6144 104.078 79.2971 104.213 79.0357 104.484C78.7837 104.755 78.6577 105.179 78.6577 105.758V109.664C78.6577 109.757 78.6251 109.837 78.5597 109.902C78.4944 109.967 78.4151 110 78.3217 110H77.1457ZM92.5786 110.14C91.5426 110.14 90.7166 109.841 90.1006 109.244C89.4939 108.637 89.1719 107.788 89.1346 106.696L89.1206 106.346L89.1346 105.996C89.1812 104.932 89.5079 104.097 90.1146 103.49C90.7306 102.883 91.5519 102.58 92.5786 102.58C93.6799 102.58 94.5292 102.916 95.1266 103.588C95.7332 104.26 96.0366 105.156 96.0366 106.276V106.57C96.0366 106.663 96.0039 106.743 95.9386 106.808C95.8732 106.873 95.7892 106.906 95.6866 106.906H91.0386V107.018C91.0572 107.531 91.1972 107.965 91.4586 108.32C91.7292 108.665 92.0979 108.838 92.5646 108.838C93.1152 108.838 93.5586 108.623 93.8946 108.194C93.9786 108.091 94.0439 108.026 94.0906 107.998C94.1466 107.97 94.2259 107.956 94.3286 107.956H95.5326C95.6166 107.956 95.6866 107.984 95.7426 108.04C95.8079 108.087 95.8406 108.147 95.8406 108.222C95.8406 108.446 95.7052 108.712 95.4346 109.02C95.1732 109.319 94.7952 109.58 94.3006 109.804C93.8059 110.028 93.2319 110.14 92.5786 110.14ZM94.1326 105.73V105.688C94.1326 105.137 93.9926 104.694 93.7126 104.358C93.4419 104.022 93.0639 103.854 92.5786 103.854C92.0932 103.854 91.7152 104.022 91.4446 104.358C91.1739 104.694 91.0386 105.137 91.0386 105.688V105.73H94.1326Z" fill="#1A7BFF"/>
<path d="M339.722 108.14C338.891 108.14 338.177 108.014 337.58 107.762C336.982 107.51 336.53 107.179 336.222 106.768C335.914 106.357 335.75 105.914 335.732 105.438C335.732 105.354 335.76 105.284 335.816 105.228C335.872 105.172 335.942 105.144 336.026 105.144H337.272C337.384 105.144 337.468 105.167 337.524 105.214C337.589 105.251 337.65 105.317 337.706 105.41C337.799 105.727 338.014 105.993 338.35 106.208C338.686 106.423 339.143 106.53 339.722 106.53C340.384 106.53 340.884 106.423 341.22 106.208C341.556 105.984 341.724 105.676 341.724 105.284C341.724 105.023 341.635 104.808 341.458 104.64C341.29 104.472 341.033 104.327 340.688 104.206C340.352 104.085 339.848 103.935 339.176 103.758C338.074 103.497 337.267 103.151 336.754 102.722C336.25 102.283 335.998 101.663 335.998 100.86C335.998 100.319 336.142 99.838 336.432 99.418C336.73 98.998 337.155 98.6667 337.706 98.424C338.266 98.1813 338.914 98.06 339.652 98.06C340.417 98.06 341.08 98.1953 341.64 98.466C342.2 98.7367 342.624 99.0773 342.914 99.488C343.212 99.8893 343.371 100.291 343.39 100.692C343.39 100.776 343.362 100.846 343.306 100.902C343.25 100.958 343.18 100.986 343.096 100.986H341.794C341.598 100.986 341.462 100.897 341.388 100.72C341.332 100.421 341.145 100.174 340.828 99.978C340.51 99.7727 340.118 99.67 339.652 99.67C339.129 99.67 338.718 99.768 338.42 99.964C338.121 100.16 337.972 100.445 337.972 100.818C337.972 101.079 338.046 101.294 338.196 101.462C338.345 101.63 338.578 101.779 338.896 101.91C339.222 102.041 339.689 102.185 340.296 102.344C341.117 102.531 341.77 102.741 342.256 102.974C342.75 103.207 343.114 103.501 343.348 103.856C343.581 104.211 343.698 104.663 343.698 105.214C343.698 105.811 343.53 106.334 343.194 106.782C342.867 107.221 342.4 107.557 341.794 107.79C341.196 108.023 340.506 108.14 339.722 108.14ZM348.27 108.14C347.234 108.14 346.408 107.841 345.792 107.244C345.185 106.637 344.863 105.788 344.826 104.696L344.812 104.346L344.826 103.996C344.873 102.932 345.199 102.097 345.806 101.49C346.422 100.883 347.243 100.58 348.27 100.58C349.371 100.58 350.221 100.916 350.818 101.588C351.425 102.26 351.728 103.156 351.728 104.276V104.57C351.728 104.663 351.695 104.743 351.63 104.808C351.565 104.873 351.481 104.906 351.378 104.906H346.73V105.018C346.749 105.531 346.889 105.965 347.15 106.32C347.421 106.665 347.789 106.838 348.256 106.838C348.807 106.838 349.25 106.623 349.586 106.194C349.67 106.091 349.735 106.026 349.782 105.998C349.838 105.97 349.917 105.956 350.02 105.956H351.224C351.308 105.956 351.378 105.984 351.434 106.04C351.499 106.087 351.532 106.147 351.532 106.222C351.532 106.446 351.397 106.712 351.126 107.02C350.865 107.319 350.487 107.58 349.992 107.804C349.497 108.028 348.923 108.14 348.27 108.14ZM349.824 103.73V103.688C349.824 103.137 349.684 102.694 349.404 102.358C349.133 102.022 348.755 101.854 348.27 101.854C347.785 101.854 347.407 102.022 347.136 102.358C346.865 102.694 346.73 103.137 346.73 103.688V103.73H349.824ZM356.477 108C355.627 108 354.988 107.781 354.559 107.342C354.139 106.894 353.929 106.241 353.929 105.382V102.204H352.823C352.729 102.204 352.65 102.171 352.585 102.106C352.519 102.031 352.487 101.947 352.487 101.854V101.056C352.487 100.963 352.519 100.883 352.585 100.818C352.65 100.753 352.729 100.72 352.823 100.72H353.929V98.396C353.929 98.2933 353.961 98.214 354.027 98.158C354.092 98.0927 354.171 98.06 354.265 98.06H355.399C355.501 98.06 355.581 98.0927 355.637 98.158C355.702 98.214 355.735 98.2933 355.735 98.396V100.72H357.485C357.587 100.72 357.667 100.753 357.723 100.818C357.788 100.874 357.821 100.953 357.821 101.056V101.854C357.821 101.957 357.788 102.041 357.723 102.106C357.657 102.171 357.578 102.204 357.485 102.204H355.735V105.242C355.735 105.643 355.805 105.947 355.945 106.152C356.085 106.357 356.318 106.46 356.645 106.46H357.611C357.704 106.46 357.783 106.493 357.849 106.558C357.914 106.623 357.947 106.703 357.947 106.796V107.664C357.947 107.757 357.914 107.837 357.849 107.902C357.793 107.967 357.713 108 357.611 108H356.477ZM362.479 108C361.629 108 360.99 107.781 360.561 107.342C360.141 106.894 359.931 106.241 359.931 105.382V102.204H358.825C358.731 102.204 358.652 102.171 358.587 102.106C358.521 102.031 358.489 101.947 358.489 101.854V101.056C358.489 100.963 358.521 100.883 358.587 100.818C358.652 100.753 358.731 100.72 358.825 100.72H359.931V98.396C359.931 98.2933 359.963 98.214 360.029 98.158C360.094 98.0927 360.173 98.06 360.267 98.06H361.401C361.503 98.06 361.583 98.0927 361.639 98.158C361.704 98.214 361.737 98.2933 361.737 98.396V100.72H363.487C363.589 100.72 363.669 100.753 363.725 100.818C363.79 100.874 363.823 100.953 363.823 101.056V101.854C363.823 101.957 363.79 102.041 363.725 102.106C363.659 102.171 363.58 102.204 363.487 102.204H361.737V105.242C361.737 105.643 361.807 105.947 361.947 106.152C362.087 106.357 362.32 106.46 362.647 106.46H363.613C363.706 106.46 363.785 106.493 363.851 106.558C363.916 106.623 363.949 106.703 363.949 106.796V107.664C363.949 107.757 363.916 107.837 363.851 107.902C363.795 107.967 363.715 108 363.613 108H362.479ZM365.471 99.516C365.377 99.516 365.298 99.4833 365.233 99.418C365.167 99.3527 365.135 99.2733 365.135 99.18V98.172C365.135 98.0787 365.167 97.9993 365.233 97.934C365.298 97.8687 365.377 97.836 365.471 97.836H366.745C366.838 97.836 366.917 97.8687 366.983 97.934C367.057 97.9993 367.095 98.0787 367.095 98.172V99.18C367.095 99.2733 367.062 99.3527 366.997 99.418C366.931 99.4833 366.847 99.516 366.745 99.516H365.471ZM365.527 108C365.433 108 365.354 107.967 365.289 107.902C365.223 107.837 365.191 107.757 365.191 107.664V101.056C365.191 100.963 365.223 100.883 365.289 100.818C365.354 100.753 365.433 100.72 365.527 100.72H366.689C366.791 100.72 366.871 100.753 366.927 100.818C366.992 100.874 367.025 100.953 367.025 101.056V107.664C367.025 107.757 366.992 107.837 366.927 107.902C366.871 107.967 366.791 108 366.689 108H365.527ZM369.218 108C369.125 108 369.045 107.967 368.98 107.902C368.915 107.837 368.882 107.757 368.882 107.664V101.056C368.882 100.963 368.915 100.883 368.98 100.818C369.045 100.753 369.125 100.72 369.218 100.72H370.366C370.459 100.72 370.539 100.753 370.604 100.818C370.669 100.883 370.702 100.963 370.702 101.056V101.63C371.253 100.93 372.032 100.58 373.04 100.58C373.899 100.58 374.58 100.865 375.084 101.434C375.588 101.994 375.84 102.759 375.84 103.73V107.664C375.84 107.757 375.807 107.837 375.742 107.902C375.686 107.967 375.607 108 375.504 108H374.272C374.179 108 374.099 107.967 374.034 107.902C373.969 107.837 373.936 107.757 373.936 107.664V103.814C373.936 103.263 373.801 102.839 373.53 102.54C373.269 102.232 372.886 102.078 372.382 102.078C371.887 102.078 371.495 102.232 371.206 102.54C370.926 102.848 370.786 103.273 370.786 103.814V107.664C370.786 107.757 370.753 107.837 370.688 107.902C370.632 107.967 370.553 108 370.45 108H369.218ZM380.908 111.08C380.078 111.08 379.406 110.94 378.892 110.66C378.379 110.389 378.015 110.077 377.8 109.722C377.586 109.367 377.478 109.064 377.478 108.812C377.478 108.728 377.511 108.653 377.576 108.588C377.651 108.523 377.73 108.49 377.814 108.49H379.032C379.116 108.49 379.186 108.509 379.242 108.546C379.308 108.593 379.359 108.672 379.396 108.784C379.49 109.036 379.639 109.246 379.844 109.414C380.059 109.591 380.39 109.68 380.838 109.68C381.398 109.68 381.809 109.554 382.07 109.302C382.341 109.05 382.476 108.616 382.476 108V107.048C381.963 107.655 381.244 107.958 380.32 107.958C379.35 107.958 378.617 107.659 378.122 107.062C377.637 106.465 377.376 105.662 377.338 104.654L377.324 104.276L377.338 103.898C377.376 102.909 377.642 102.111 378.136 101.504C378.631 100.888 379.359 100.58 380.32 100.58C380.815 100.58 381.249 100.673 381.622 100.86C381.996 101.047 382.308 101.303 382.56 101.63V101.07C382.56 100.967 382.593 100.883 382.658 100.818C382.724 100.753 382.803 100.72 382.896 100.72H384.03C384.124 100.72 384.203 100.757 384.268 100.832C384.334 100.897 384.366 100.977 384.366 101.07L384.38 107.818C384.38 108.854 384.091 109.657 383.512 110.226C382.934 110.795 382.066 111.08 380.908 111.08ZM380.838 106.474C381.37 106.474 381.767 106.306 382.028 105.97C382.299 105.634 382.448 105.223 382.476 104.738C382.486 104.663 382.49 104.509 382.49 104.276C382.49 104.052 382.486 103.903 382.476 103.828C382.448 103.333 382.299 102.918 382.028 102.582C381.767 102.246 381.37 102.078 380.838 102.078C379.83 102.078 379.298 102.699 379.242 103.94L379.228 104.276C379.228 104.939 379.345 105.471 379.578 105.872C379.821 106.273 380.241 106.474 380.838 106.474ZM389.003 108.14C388.303 108.14 387.715 108.037 387.239 107.832C386.763 107.617 386.409 107.37 386.175 107.09C385.951 106.801 385.839 106.553 385.839 106.348C385.839 106.255 385.872 106.18 385.937 106.124C386.003 106.068 386.077 106.04 386.161 106.04H387.267C387.351 106.04 387.421 106.073 387.477 106.138C387.515 106.166 387.613 106.25 387.771 106.39C387.93 106.539 388.117 106.656 388.331 106.74C388.546 106.824 388.784 106.866 389.045 106.866C389.419 106.866 389.727 106.791 389.969 106.642C390.212 106.493 390.333 106.287 390.333 106.026C390.333 105.83 390.277 105.671 390.165 105.55C390.063 105.429 389.871 105.321 389.591 105.228C389.311 105.125 388.896 105.018 388.345 104.906C387.552 104.738 386.964 104.481 386.581 104.136C386.208 103.791 386.021 103.333 386.021 102.764C386.021 102.391 386.133 102.041 386.357 101.714C386.581 101.378 386.913 101.107 387.351 100.902C387.799 100.687 388.331 100.58 388.947 100.58C389.573 100.58 390.114 100.683 390.571 100.888C391.029 101.084 391.374 101.322 391.607 101.602C391.85 101.873 391.971 102.115 391.971 102.33C391.971 102.414 391.939 102.489 391.873 102.554C391.817 102.61 391.747 102.638 391.663 102.638H390.627C390.553 102.638 390.473 102.605 390.389 102.54C390.324 102.493 390.221 102.405 390.081 102.274C389.941 102.143 389.778 102.041 389.591 101.966C389.405 101.891 389.185 101.854 388.933 101.854C388.588 101.854 388.317 101.929 388.121 102.078C387.935 102.227 387.841 102.423 387.841 102.666C387.841 102.843 387.888 102.988 387.981 103.1C388.075 103.212 388.257 103.319 388.527 103.422C388.798 103.525 389.204 103.627 389.745 103.73C390.641 103.907 391.281 104.183 391.663 104.556C392.055 104.929 392.251 105.387 392.251 105.928C392.251 106.581 391.967 107.113 391.397 107.524C390.828 107.935 390.03 108.14 389.003 108.14Z" fill="#4F4F4F"/>
<path d="M363.5 68.375C366.192 68.375 368.375 66.1924 368.375 63.5C368.375 60.8076 366.192 58.625 363.5 58.625C360.808 58.625 358.625 60.8076 358.625 63.5C358.625 66.1924 360.808 68.375 363.5 68.375Z" stroke="#4F4F4F" stroke-width="2" stroke-linecap="round" stroke-linejoin="round"/>
<path d="M375.525 68.375C375.309 68.8651 375.244 69.4088 375.34 69.936C375.435 70.4631 375.687 70.9495 376.061 71.3325L376.159 71.43C376.461 71.7318 376.701 72.0903 376.864 72.4848C377.028 72.8794 377.112 73.3023 377.112 73.7294C377.112 74.1565 377.028 74.5794 376.864 74.9739C376.701 75.3685 376.461 75.7269 376.159 76.0287C375.857 76.3309 375.498 76.5706 375.104 76.7342C374.709 76.8977 374.286 76.9819 373.859 76.9819C373.432 76.9819 373.009 76.8977 372.615 76.7342C372.22 76.5706 371.862 76.3309 371.56 76.0287L371.462 75.9312C371.08 75.5566 370.593 75.3053 370.066 75.2097C369.539 75.1142 368.995 75.1787 368.505 75.395C368.024 75.601 367.614 75.943 367.326 76.379C367.037 76.815 366.882 77.3258 366.88 77.8487V78.125C366.88 78.987 366.538 79.8136 365.928 80.4231C365.319 81.0326 364.492 81.375 363.63 81.375C362.768 81.375 361.941 81.0326 361.332 80.4231C360.722 79.8136 360.38 78.987 360.38 78.125V77.9787C360.367 77.4409 360.193 76.9192 359.88 76.4816C359.567 76.044 359.13 75.7107 358.625 75.525C358.135 75.3087 357.591 75.2442 357.064 75.3397C356.537 75.4353 356.05 75.6866 355.667 76.0612L355.57 76.1588C355.268 76.4609 354.91 76.7006 354.515 76.8642C354.121 77.0277 353.698 77.1119 353.271 77.1119C352.844 77.1119 352.421 77.0277 352.026 76.8642C351.632 76.7006 351.273 76.4609 350.971 76.1588C350.669 75.8569 350.429 75.4985 350.266 75.1039C350.102 74.7094 350.018 74.2865 350.018 73.8594C350.018 73.4323 350.102 73.0094 350.266 72.6148C350.429 72.2203 350.669 71.8618 350.971 71.56L351.069 71.4625C351.443 71.0795 351.695 70.5931 351.79 70.066C351.886 69.5388 351.821 68.9951 351.605 68.505C351.399 68.0244 351.057 67.6145 350.621 67.3257C350.185 67.037 349.674 66.8821 349.151 66.88H348.875C348.013 66.88 347.186 66.5376 346.577 65.9281C345.967 65.3186 345.625 64.492 345.625 63.63C345.625 62.768 345.967 61.9414 346.577 61.3319C347.186 60.7224 348.013 60.38 348.875 60.38H349.021C349.559 60.3674 350.081 60.1933 350.518 59.8803C350.956 59.5673 351.289 59.1299 351.475 58.625C351.691 58.1349 351.756 57.5912 351.66 57.064C351.565 56.5369 351.313 56.0505 350.939 55.6675L350.841 55.57C350.539 55.2682 350.299 54.9097 350.136 54.5152C349.972 54.1206 349.888 53.6977 349.888 53.2706C349.888 52.8435 349.972 52.4206 350.136 52.0261C350.299 51.6315 350.539 51.2731 350.841 50.9712C351.143 50.6691 351.502 50.4294 351.896 50.2658C352.291 50.1023 352.714 50.0181 353.141 50.0181C353.568 50.0181 353.991 50.1023 354.385 50.2658C354.78 50.4294 355.138 50.6691 355.44 50.9712L355.537 51.0687C355.92 51.4434 356.407 51.6947 356.934 51.7903C357.461 51.8858 358.005 51.8213 358.495 51.605H358.625C359.106 51.399 359.516 51.057 359.804 50.621C360.093 50.185 360.248 49.6742 360.25 49.1513V48.875C360.25 48.013 360.592 47.1864 361.202 46.5769C361.811 45.9674 362.638 45.625 363.5 45.625C364.362 45.625 365.189 45.9674 365.798 46.5769C366.408 47.1864 366.75 48.013 366.75 48.875V49.0212C366.752 49.5442 366.907 50.055 367.196 50.491C367.484 50.927 367.894 51.269 368.375 51.475C368.865 51.6913 369.409 51.7558 369.936 51.6603C370.463 51.5647 370.95 51.3134 371.332 50.9387L371.43 50.8413C371.732 50.5391 372.09 50.2994 372.485 50.1358C372.879 49.9723 373.302 49.8881 373.729 49.8881C374.156 49.8881 374.579 49.9723 374.974 50.1358C375.368 50.2994 375.727 50.5391 376.029 50.8413C376.331 51.1431 376.571 51.5015 376.734 51.8961C376.898 52.2906 376.982 52.7135 376.982 53.1406C376.982 53.5677 376.898 53.9906 376.734 54.3852C376.571 54.7797 376.331 55.1382 376.029 55.44L375.931 55.5375C375.557 55.9205 375.305 56.4069 375.21 56.934C375.114 57.4612 375.179 58.0049 375.395 58.495V58.625C375.601 59.1056 375.943 59.5155 376.379 59.8043C376.815 60.093 377.326 60.2479 377.849 60.25H378.125C378.987 60.25 379.814 60.5924 380.423 61.2019C381.033 61.8114 381.375 62.638 381.375 63.5C381.375 64.362 381.033 65.1886 380.423 65.7981C379.814 66.4076 378.987 66.75 378.125 66.75H377.979C377.456 66.7521 376.945 66.907 376.509 67.1957C376.073 67.4845 375.731 67.8944 375.525 68.375V68.375Z" stroke="#4F4F4F" stroke-width="2" stroke-linecap="round" stroke-linejoin="round"/>
<path d="M255.541 108C255.448 108 255.369 107.967 255.303 107.902C255.238 107.837 255.205 107.757 255.205 107.664V98.55C255.205 98.4473 255.233 98.3633 255.289 98.298C255.355 98.2327 255.439 98.2 255.541 98.2H258.957C261.701 98.2 263.101 99.4693 263.157 102.008C263.176 102.549 263.185 102.913 263.185 103.1C263.185 103.277 263.176 103.637 263.157 104.178C263.12 105.485 262.77 106.451 262.107 107.076C261.445 107.692 260.418 108 259.027 108H255.541ZM258.957 106.39C259.741 106.39 260.306 106.217 260.651 105.872C260.997 105.517 261.179 104.939 261.197 104.136C261.216 103.576 261.225 103.226 261.225 103.086C261.225 102.937 261.216 102.591 261.197 102.05C261.179 101.285 260.983 100.72 260.609 100.356C260.245 99.992 259.671 99.81 258.887 99.81H257.151V106.39H258.957ZM266.995 108.14C266.519 108.14 266.08 108.047 265.679 107.86C265.287 107.664 264.974 107.403 264.741 107.076C264.517 106.749 264.405 106.39 264.405 105.998C264.405 105.363 264.662 104.85 265.175 104.458C265.688 104.066 266.393 103.8 267.289 103.66L269.207 103.38V103.086C269.207 102.675 269.104 102.367 268.899 102.162C268.694 101.957 268.362 101.854 267.905 101.854C267.597 101.854 267.345 101.915 267.149 102.036C266.962 102.148 266.813 102.26 266.701 102.372C266.589 102.493 266.514 102.573 266.477 102.61C266.44 102.722 266.37 102.778 266.267 102.778H265.189C265.105 102.778 265.03 102.75 264.965 102.694C264.909 102.638 264.881 102.563 264.881 102.47C264.89 102.237 265.002 101.971 265.217 101.672C265.441 101.373 265.782 101.117 266.239 100.902C266.696 100.687 267.256 100.58 267.919 100.58C269.02 100.58 269.823 100.827 270.327 101.322C270.831 101.817 271.083 102.465 271.083 103.268V107.664C271.083 107.757 271.05 107.837 270.985 107.902C270.929 107.967 270.85 108 270.747 108H269.613C269.52 108 269.44 107.967 269.375 107.902C269.31 107.837 269.277 107.757 269.277 107.664V107.118C269.072 107.417 268.778 107.664 268.395 107.86C268.022 108.047 267.555 108.14 266.995 108.14ZM267.471 106.81C267.984 106.81 268.404 106.642 268.731 106.306C269.058 105.97 269.221 105.48 269.221 104.836V104.542L267.821 104.766C267.28 104.85 266.869 104.985 266.589 105.172C266.318 105.359 266.183 105.587 266.183 105.858C266.183 106.157 266.309 106.39 266.561 106.558C266.813 106.726 267.116 106.81 267.471 106.81ZM276.101 108C275.251 108 274.612 107.781 274.183 107.342C273.763 106.894 273.553 106.241 273.553 105.382V102.204H272.447C272.353 102.204 272.274 102.171 272.209 102.106C272.143 102.031 272.111 101.947 272.111 101.854V101.056C272.111 100.963 272.143 100.883 272.209 100.818C272.274 100.753 272.353 100.72 272.447 100.72H273.553V98.396C273.553 98.2933 273.585 98.214 273.651 98.158C273.716 98.0927 273.795 98.06 273.889 98.06H275.023C275.125 98.06 275.205 98.0927 275.261 98.158C275.326 98.214 275.359 98.2933 275.359 98.396V100.72H277.109C277.211 100.72 277.291 100.753 277.347 100.818C277.412 100.874 277.445 100.953 277.445 101.056V101.854C277.445 101.957 277.412 102.041 277.347 102.106C277.281 102.171 277.202 102.204 277.109 102.204H275.359V105.242C275.359 105.643 275.429 105.947 275.569 106.152C275.709 106.357 275.942 106.46 276.269 106.46H277.235C277.328 106.46 277.407 106.493 277.473 106.558C277.538 106.623 277.571 106.703 277.571 106.796V107.664C277.571 107.757 277.538 107.837 277.473 107.902C277.417 107.967 277.337 108 277.235 108H276.101ZM280.927 108.14C280.451 108.14 280.012 108.047 279.611 107.86C279.219 107.664 278.906 107.403 278.673 107.076C278.449 106.749 278.337 106.39 278.337 105.998C278.337 105.363 278.593 104.85 279.107 104.458C279.62 104.066 280.325 103.8 281.221 103.66L283.139 103.38V103.086C283.139 102.675 283.036 102.367 282.831 102.162C282.625 101.957 282.294 101.854 281.837 101.854C281.529 101.854 281.277 101.915 281.081 102.036C280.894 102.148 280.745 102.26 280.633 102.372C280.521 102.493 280.446 102.573 280.409 102.61C280.371 102.722 280.301 102.778 280.199 102.778H279.121C279.037 102.778 278.962 102.75 278.897 102.694C278.841 102.638 278.813 102.563 278.813 102.47C278.822 102.237 278.934 101.971 279.149 101.672C279.373 101.373 279.713 101.117 280.171 100.902C280.628 100.687 281.188 100.58 281.851 100.58C282.952 100.58 283.755 100.827 284.259 101.322C284.763 101.817 285.015 102.465 285.015 103.268V107.664C285.015 107.757 284.982 107.837 284.917 107.902C284.861 107.967 284.781 108 284.679 108H283.545C283.451 108 283.372 107.967 283.307 107.902C283.241 107.837 283.209 107.757 283.209 107.664V107.118C283.003 107.417 282.709 107.664 282.327 107.86C281.953 108.047 281.487 108.14 280.927 108.14ZM281.403 106.81C281.916 106.81 282.336 106.642 282.663 106.306C282.989 105.97 283.153 105.48 283.153 104.836V104.542L281.753 104.766C281.211 104.85 280.801 104.985 280.521 105.172C280.25 105.359 280.115 105.587 280.115 105.858C280.115 106.157 280.241 106.39 280.493 106.558C280.745 106.726 281.048 106.81 281.403 106.81Z" fill="#4F4F4F"/>
<path d="M281 76.5V60.25" stroke="#4F4F4F" stroke-width="2.5" stroke-linecap="round" stroke-linejoin="round"/>
<path d="M270 76.5V50.5" stroke="#4F4F4F" stroke-width="2.5" stroke-linecap="round" stroke-linejoin="round"/>
<path d="M259 76.5V66.75" stroke="#4F4F4F" stroke-width="2.5" stroke-linecap="round" stroke-linejoin="round"/>
<defs>
<filter id="filter0_d" x="0" y="0" width="445" height="144" filterUnits="userSpaceOnUse" color-interpolation-filters="sRGB">
<feFlood flood-opacity="0" result="BackgroundImageFix"/>
<feColorMatrix in="SourceAlpha" type="matrix" values="0 0 0 0 0 0 0 0 0 0 0 0 0 0 0 0 0 0 127 0"/>
<feOffset dx="2" dy="-5"/>
<feGaussianBlur stdDeviation="8.5"/>
<feColorMatrix type="matrix" values="0 0 0 0 0.329412 0 0 0 0 0.341961 0 0 0 0 0.360784 0 0 0 0.1 0"/>
<feBlend mode="normal" in2="BackgroundImageFix" result="effect1_dropShadow"/>
<feBlend mode="normal" in="SourceGraphic" in2="effect1_dropShadow" result="shape"/>
</filter>
<clipPath id="clip0">
<rect width="45" height="45" fill="white" transform="translate(157 41)"/>
</clipPath>
</defs>
</svg>
