<svg width="255" height="375" viewBox="0 0 255 375" fill="none" xmlns="http://www.w3.org/2000/svg">
<path d="M188.716 -2.05C186.986 -8.28001 182.196 -32.11 178.396 -61.42C175.276 -85.58 194.036 -107 218.386 -107H232.286C254.626 -107 272.716 -88.84 272.616 -66.5C272.116 47.18 268.856 220.09 258.426 234.74C249.706 246.98 240.076 272.01 233.536 291.44C225.756 314.53 212.156 335.29 193.776 351.28C193.226 351.76 192.676 352.23 192.136 352.68C180.496 362.48 166.376 368.9 151.386 371.5C31.3263 392.3 0.726278 307.36 0.626278 259.13C0.626278 258.27 0.596278 257.41 0.546278 256.55C-0.863722 228.93 18.5363 169.12 108.166 140.52C199.226 111.48 199.816 33.37 188.716 -2.05Z" fill="url(#paint0_linear)"/>
<defs>
<linearGradient id="paint0_linear" x1="27.1354" y1="322.563" x2="424.979" y2="-202.07" gradientUnits="userSpaceOnUse">
<stop stop-color="#D6EAF5"/>
<stop offset="1" stop-color="#F2EDE4" stop-opacity="0"/>
</linearGradient>
</defs>
</svg>
